{
.appVersion = "1064";
copyright = "Copyright (c) 2014 by Matthieu Cortat. All rights reserved.";
customParameters = (
{
name = vendorID;
value = "";
},
{
name = panose;
value = (
2,
11,
6,
0,
3,
0,
4,
2,
0,
4
);
},
{
name = unicodeRanges;
value = (
0,
1
);
},
{
name = codePageRanges;
value = (
1252,
1254
);
},
{
name = glyphOrder;
value = (
.notdef,
uni0000,
uni000D,
space,
exclam,
quotedbl,
numbersign,
dollar,
percent,
ampersand,
quotesingle,
parenleft,
parenright,
asterisk,
plus,
comma,
hyphen,
period,
slash,
zero,
one,
two,
three,
four,
five,
six,
seven,
eight,
nine,
colon,
semicolon,
less,
equal,
greater,
question,
at,
A,
B,
C,
D,
E,
F,
G,
H,
I,
J,
K,
L,
M,
N,
O,
P,
Q,
R,
S,
T,
U,
V,
W,
X,
Y,
Z,
bracketleft,
backslash,
bracketright,
asciicircum,
underscore,
grave,
a,
b,
c,
d,
e,
f,
g,
h,
i,
j,
k,
l,
m,
n,
o,
p,
q,
r,
s,
t,
u,
v,
w,
x,
y,
z,
braceleft,
bar,
braceright,
asciitilde,
exclamdown,
cent,
sterling,
yen,
brokenbar,
section,
dieresis,
copyright,
ordfeminine,
guillemotleft,
logicalnot,
uni00AD,
registered,
macron,
degree,
plusminus,
twosuperior,
threesuperior,
acute,
mu,
paragraph,
periodcentered,
cedilla,
onesuperior,
ordmasculine,
guillemotright,
onequarter,
onehalf,
threequarters,
questiondown,
Agrave,
Aacute,
Acircumflex,
Atilde,
Adieresis,
Aring,
AE,
Ccedilla,
Egrave,
Eacute,
Ecircumflex,
Edieresis,
Igrave,
Iacute,
Icircumflex,
Idieresis,
Eth,
Ntilde,
Ograve,
Oacute,
Ocircumflex,
Otilde,
Odieresis,
multiply,
Oslash,
Ugrave,
Uacute,
Ucircumflex,
Udieresis,
Yacute,
Thorn,
germandbls,
agrave,
aacute,
acircumflex,
atilde,
adieresis,
aring,
ae,
ccedilla,
egrave,
eacute,
ecircumflex,
edieresis,
igrave,
iacute,
icircumflex,
idieresis,
eth,
ntilde,
ograve,
oacute,
ocircumflex,
otilde,
odieresis,
divide,
oslash,
ugrave,
uacute,
ucircumflex,
udieresis,
yacute,
thorn,
ydieresis,
Gbreve,
gbreve,
dotlessI,
dotlessi,
Lslash,
lslash,
OE,
oe,
Scedilla,
scedilla,
Scaron,
scaron,
Ydieresis,
Zcaron,
zcaron,
florin,
dotlessj,
circumflex,
caron,
breve,
dotaccent,
ring,

glyphs = (
{
glyphname = exclam;
lastChange = "2017-11-01 11:12:25 +0000";
layers = (
{
layerId = "63834EBD-EB8E-4539-93C4-16AFAF002AC8";
paths = (
{
closed = 1;
nodes = (
"100 197 LINE",
"151 197 LINE",
"176 714 LINE",
"75 714 LINE"
);
},
{
closed = 1;
nodes = (
"67 14 OFFCURVE",
"94 -10 OFFCURVE",
"126 -10 CURVE SMOOTH",
"157 -10 OFFCURVE",
"183 14 OFFCURVE",
"183 49 CURVE SMOOTH",
"183 85 OFFCURVE",
"157 108 OFFCURVE",
"126 108 CURVE SMOOTH",
"94 108 OFFCURVE",
"67 85 OFFCURVE",
"67 49 CURVE SMOOTH"
);
}
);
width = 250;
}
);
note = exclam;
unicode = 0021;
},
{
glyphname = quotedbl;
lastChange = "2017-11-01 11:12:25 +0000";
layers = (
{
layerId = "63834EBD-EB8E-4539-93C4-16AFAF002AC8";
paths = (
{
closed = 1;
nodes = (
"151 486 LINE",
"173 714 LINE",
"78 714 LINE",
"101 486 LINE"
);
},
{
closed = 1;
nodes = (
"320 486 LINE",
"342 714 LINE",
"247 714 LINE",
"270 486 LINE"
);
}
);
width = 420;
}
);
note = quotedbl;
unicode = 0022;
},
{
glyphname = numbersign;
lastChange = "2017-11-01 11:12:25 +0000";
layers = (
{
layerId = "63834EBD-EB8E-4539-93C4-16AFAF002AC8";
paths = (
{
closed = 1;
nodes = (
"490 502 LINE",
"529 714 LINE",
"457 714 LINE",
"416 502 LINE",
"276 502 LINE",
"316 714 LINE",
"240 714 LINE",
"202 502 LINE",
"56 502 LINE",
"56 434 LINE",
"190 434 LINE",
"157 278 LINE",
"18 278 LINE",
"18 208 LINE",
"145 208 LINE",
"105 0 LINE",
"181 0 LINE",
"221 208 LINE",
"359 208 LINE",
"318 0 LINE",
"392 0 LINE",
"432 208 LINE",
"582 208 LINE",
"582 278 LINE",
"445 278 LINE",
"478 434 LINE",
"618 434 LINE",
"618 502 LINE"
);
},
{
closed = 1;
nodes = (
"369 278 LINE",
"231 278 LINE",
"263 434 LINE",
"402 434 LINE"
);
}
);
width = 636;
}
);
note = numbersign;
unicode = 0023;
},
{
glyphname = dollar;
lastChange = "2017-11-01 11:12:25 +0000";
layers = (
{
layerId = "63834EBD-EB8E-4539-93C4-16AFAF002AC8";
paths = (
{
closed = 1;
nodes = (
"438 12 OFFCURVE",
"506 82 OFFCURVE",
"506 182 CURVE SMOOTH",
"506 274 OFFCURVE",
"458 340 OFFCURVE",
"363 379 CURVE SMOOTH",
"321 396 LINE",
"321 646 LINE",
"370 640 OFFCURVE",
"419 623 OFFCURVE",
"466 594 CURVE",
"484 681 LINE",
"429 706 OFFCURVE",
"375 720 OFFCURVE",
"321 723 CURVE",
"321 853 LINE",
"253 853 LINE",
"253 721 LINE",
"137 708 OFFCURVE",
"61 633 OFFCURVE",
"61 537 CURVE SMOOTH",
"61 448 OFFCURVE",
"109 393 OFFCURVE",
"209 350 CURVE SMOOTH",
"253 331 LINE",
"253 66 LINE",
"195 67 OFFCURVE",
"131 88 OFFCURVE",
"62 129 CURVE",
"52 40 LINE",
"115 7 OFFCURVE",
"182 -9 OFFCURVE",
"253 -10 CURVE",
"253 -140 LINE",
"321 -140 LINE",
"321 -5 LINE"
);
},
{
closed = 1;
nodes = (
"145 590 OFFCURVE",
"185 633 OFFCURVE",
"253 645 CURVE",
"253 424 LINE",
"239 430 LINE SMOOTH",
"176 455 OFFCURVE",
"145 482 OFFCURVE",
"145 537 CURVE SMOOTH"
);
},
{
closed = 1;
nodes = (
"390 274 OFFCURVE",
"420 234 OFFCURVE",
"420 181 CURVE SMOOTH",
"420 128 OFFCURVE",
"385 87 OFFCURVE",
"321 72 CURVE",
"321 303 LINE",
"331 299 LINE SMOOTH"
);
}
);
width = 549;
}
);
note = dollar;
unicode = 0024;
},
{
glyphname = percent;
lastChange = "2017-11-01 11:12:25 +0000";
layers = (
{
layerId = "63834EBD-EB8E-4539-93C4-16AFAF002AC8";
paths = (
{
closed = 1;
nodes = (
"328 0 LINE",
"634 714 LINE",
"552 714 LINE",
"246 0 LINE"
);
},
{
closed = 1;
nodes = (
"132 647 OFFCURVE",
"154 659 OFFCURVE",
"181 659 CURVE SMOOTH",
"236 659 OFFCURVE",
"271 609 OFFCURVE",
"271 521 CURVE SMOOTH",
"271 432 OFFCURVE",
"236 382 OFFCURVE",
"181 382 CURVE SMOOTH",
"126 382 OFFCURVE",
"94 432 OFFCURVE",
"94 521 CURVE SMOOTH",
"94 566 OFFCURVE",
"102 600 OFFCURVE",
"117 624 CURVE SMOOTH"
);
},
{
closed = 1;
nodes = (
"341 649 OFFCURVE",
"274 724 OFFCURVE",
"181 724 CURVE SMOOTH",
"86 724 OFFCURVE",
"24 654 OFFCURVE",
"24 521 CURVE SMOOTH",
"24 392 OFFCURVE",
"90 316 OFFCURVE",
"181 316 CURVE SMOOTH",
"276 316 OFFCURVE",
"341 388 OFFCURVE",
"341 521 CURVE SMOOTH"
);
},
{
closed = 1;
nodes = (
"649 322 OFFCURVE",
"671 334 OFFCURVE",
"698 334 CURVE SMOOTH",
"753 334 OFFCURVE",
"788 284 OFFCURVE",
"788 196 CURVE SMOOTH",
"788 107 OFFCURVE",
"753 57 OFFCURVE",
"698 57 CURVE SMOOTH",
"643 57 OFFCURVE",
"611 107 OFFCURVE",
"611 196 CURVE SMOOTH",
"611 241 OFFCURVE",
"619 275 OFFCURVE",
"634 299 CURVE SMOOTH"
);
},
{
closed = 1;
nodes = (
"858 324 OFFCURVE",
"791 399 OFFCURVE",
"698 399 CURVE SMOOTH",
"603 399 OFFCURVE",
"541 329 OFFCURVE",
"541 196 CURVE SMOOTH",
"541 67 OFFCURVE",
"607 -9 OFFCURVE",
"698 -9 CURVE SMOOTH",
"793 -9 OFFCURVE",
"858 63 OFFCURVE",
"858 196 CURVE SMOOTH"
);
}
);
width = 882;
}
);
note = percent;
unicode = 0025;
},
{
glyphname = ampersand;
lastChange = "2017-11-01 11:12:25 +0000";
layers = (
{
layerId = "63834EBD-EB8E-4539-93C4-16AFAF002AC8";
paths = (
{
closed = 1;
nodes = (
"194 614 OFFCURVE",
"236 648 OFFCURVE",
"293 648 CURVE SMOOTH",
"345 648 OFFCURVE",
"382 613 OFFCURVE",
"382 562 CURVE SMOOTH",
"382 510 OFFCURVE",
"357 484 OFFCURVE",
"297 448 CURVE SMOOTH",
"274 434 LINE",
"254 455 LINE SMOOTH",
"214 495 OFFCURVE",
"194 530 OFFCURVE",
"194 561 CURVE SMOOTH"
);
},
{
closed = 1;
nodes = (
"193 66 OFFCURVE",
"133 117 OFFCURVE",
"133 193 CURVE SMOOTH",
"133 257 OFFCURVE",
"171 309 OFFCURVE",
"248 348 CURVE",
"456 145 LINE",
"405 92 OFFCURVE",
"345 66 OFFCURVE",
"278 66 CURVE SMOOTH"
);
},
{
closed = 1;
nodes = (
"47 70 OFFCURVE",
"138 -10 OFFCURVE",
"277 -10 CURVE SMOOTH",
"376 -10 OFFCURVE",
"439 23 OFFCURVE",
"510 92 CURVE",
"607 0 LINE",
"722 0 LINE",
"562 156 LINE",
"610 224 OFFCURVE",
"640 295 OFFCURVE",
"652 369 CURVE",
"566 369 LINE",
"557 311 OFFCURVE",
"537 258 OFFCURVE",
"507 210 CURVE",
"325 384 LINE",
"345 395 LINE SMOOTH",
"430 443 OFFCURVE",
"467 489 OFFCURVE",
"467 562 CURVE SMOOTH",
"467 657 OFFCURVE",
"395 724 OFFCURVE",
"292 724 CURVE SMOOTH",
"188 724 OFFCURVE",
"110 654 OFFCURVE",
"110 561 CURVE SMOOTH",
"110 504 OFFCURVE",
"132 465 OFFCURVE",
"179 416 CURVE SMOOTH",
"194 400 LINE",
"96 351 OFFCURVE",
"47 281 OFFCURVE",
"47 191 CURVE SMOOTH"
);
}
);
width = 730;
}
);
note = ampersand;
unicode = 0026;
},
{
glyphname = quotesingle;
lastChange = "2017-11-01 11:12:25 +0000";
layers = (
{
layerId = "63834EBD-EB8E-4539-93C4-16AFAF002AC8";
paths = (
{
closed = 1;
nodes = (
"151 486 LINE",
"173 714 LINE",
"78 714 LINE",
"101 486 LINE"
);
}
);
width = 250;
}
);
note = quotesingle;
unicode = 0027;
},
{
glyphname = parenleft;
lastChange = "2017-11-01 11:12:25 +0000";
layers = (
{
layerId = "63834EBD-EB8E-4539-93C4-16AFAF002AC8";
paths = (
{
closed = 1;
nodes = (
"137 452 OFFCURVE",
"187 609 OFFCURVE",
"286 742 CURVE",
"212 742 LINE",
"113 623 OFFCURVE",
"50 456 OFFCURVE",
"50 271 CURVE SMOOTH",
"50 86 OFFCURVE",
"113 -81 OFFCURVE",
"212 -200 CURVE",
"286 -200 LINE",
"187 -67 OFFCURVE",
"137 91 OFFCURVE",
"137 272 CURVE SMOOTH"
);
}
);
width = 296;
}
);
note = parenleft;
unicode = 0028;
},
{
glyphname = parenright;
lastChange = "2017-11-01 11:12:25 +0000";
layers = (
{
layerId = "63834EBD-EB8E-4539-93C4-16AFAF002AC8";
paths = (
{
closed = 1;
nodes = (
"159 91 OFFCURVE",
"109 -67 OFFCURVE",
"10 -200 CURVE",
"84 -200 LINE",
"183 -81 OFFCURVE",
"246 86 OFFCURVE",
"246 271 CURVE SMOOTH",
"246 456 OFFCURVE",
"183 623 OFFCURVE",
"84 742 CURVE",
"10 742 LINE",
"109 609 OFFCURVE",
"159 452 OFFCURVE",
"159 272 CURVE SMOOTH"
);
}
);
width = 296;
}
);
note = parenright;
unicode = 0029;
},
{
glyphname = asterisk;
lastChange = "2017-11-01 11:12:25 +0000";
layers = (
{
layerId = "63834EBD-EB8E-4539-93C4-16AFAF002AC8";
paths = (
{
closed = 1;
nodes = (
"58 566 LINE",
"43 477 LINE",
"240 462 LINE",
"114 293 LINE",
"200 247 LINE",
"284 435 LINE",
"376 247 LINE",
"460 293 LINE",
"331 462 LINE",
"530 477 LINE",
"516 566 LINE",
"311 510 LINE",
"333 714 LINE",
"238 714 LINE",
"260 510 LINE"
);
}
);
width = 572;
}
);
note = asterisk;
unicode = 002A;
},
{
glyphname = plus;
lastChange = "2017-11-01 11:12:25 +0000";
layers = (
{
layerId = "63834EBD-EB8E-4539-93C4-16AFAF002AC8";
paths = (
{
closed = 1;
nodes = (
"251 391 LINE",
"51 391 LINE",
"51 324 LINE",
"251 324 LINE",
"251 116 LINE",
"319 116 LINE",
"319 324 LINE",
"520 324 LINE",
"520 391 LINE",
"319 391 LINE",
"319 600 LINE",
"251 600 LINE"
);
}
);
width = 572;
}
);
note = plus;
unicode = 002B;
},
{
glyphname = comma;
lastChange = "2017-11-01 11:12:25 +0000";
layers = (
{
layerId = "63834EBD-EB8E-4539-93C4-16AFAF002AC8";
paths = (
{
closed = 1;
nodes = (
"103 -128 LINE",
"193 108 LINE",
"94 108 LINE",
"43 -128 LINE"
);
}
);
width = 250;
}
);
note = comma;
unicode = 002C;
},
{
glyphname = hyphen;
lastChange = "2017-11-01 11:12:25 +0000";
layers = (
{
layerId = "63834EBD-EB8E-4539-93C4-16AFAF002AC8";
paths = (
{
closed = 1;
nodes = (
"40 305 LINE",
"40 231 LINE",
"300 231 LINE",
"300 305 LINE"
);
}
);
width = 340;
}
);
note = hyphen;
unicode = 002D;
},
{
glyphname = period;
lastChange = "2017-11-01 11:12:25 +0000";
layers = (
{
layerId = "63834EBD-EB8E-4539-93C4-16AFAF002AC8";
paths = (
{
closed = 1;
nodes = (
"67 14 OFFCURVE",
"94 -10 OFFCURVE",
"126 -10 CURVE SMOOTH",
"157 -10 OFFCURVE",
"183 14 OFFCURVE",
"183 49 CURVE SMOOTH",
"183 85 OFFCURVE",
"157 108 OFFCURVE",
"126 108 CURVE SMOOTH",
"94 108 OFFCURVE",
"67 85 OFFCURVE",
"67 49 CURVE SMOOTH"
);
}
);
width = 250;
}
);
note = period;
unicode = 002E;
},
{
glyphname = slash;
lastChange = "2017-11-01 11:12:25 +0000";
layers = (
{
layerId = "63834EBD-EB8E-4539-93C4-16AFAF002AC8";
paths = (
{
closed = 1;
nodes = (
"92 0 LINE",
"398 714 LINE",
"316 714 LINE",
"10 0 LINE"
);
}
);
width = 408;
}
);
note = slash;
unicode = 002F;
},
{
glyphname = zero;
lastChange = "2017-11-01 11:12:25 +0000";
layers = (
{
layerId = "63834EBD-EB8E-4539-93C4-16AFAF002AC8";
paths = (
{
closed = 1;
nodes = (
"525 599 OFFCURVE",
"437 724 OFFCURVE",
"286 724 CURVE SMOOTH",
"135 724 OFFCURVE",
"47 599 OFFCURVE",
"47 358 CURVE SMOOTH",
"47 115 OFFCURVE",
"135 -10 OFFCURVE",
"286 -10 CURVE SMOOTH",
"437 -10 OFFCURVE",
"525 115 OFFCURVE",
"525 358 CURVE SMOOTH"
);
},
{
closed = 1;
nodes = (
"440 158 OFFCURVE",
"382 66 OFFCURVE",
"286 66 CURVE SMOOTH",
"184 66 OFFCURVE",
"133 163 OFFCURVE",
"133 358 CURVE SMOOTH",
"133 551 OFFCURVE",
"184 648 OFFCURVE",
"287 648 CURVE SMOOTH",
"389 648 OFFCURVE",
"440 551 OFFCURVE",
"440 358 CURVE SMOOTH"
);
}
);
width = 572;
}
);
note = zero;
unicode = 0030;
},
{
glyphname = one;
lastChange = "2017-11-01 11:12:25 +0000";
layers = (
{
layerId = "63834EBD-EB8E-4539-93C4-16AFAF002AC8";
paths = (
{
closed = 1;
nodes = (
"97 544 LINE",
"142 482 LINE",
"213 537 LINE",
"310 616 LINE",
"310 0 LINE",
"392 0 LINE",
"392 714 LINE",
"316 714 LINE"
);
}
);
width = 572;
}
);
note = one;
unicode = 0031;
},
{
glyphname = two;
lastChange = "2017-11-01 11:12:25 +0000";
layers = (
{
layerId = "63834EBD-EB8E-4539-93C4-16AFAF002AC8";
paths = (
{
closed = 1;
nodes = (
"150 625 OFFCURVE",
"212 646 OFFCURVE",
"273 646 CURVE SMOOTH",
"354 646 OFFCURVE",
"407 598 OFFCURVE",
"407 519 CURVE SMOOTH",
"407 483 OFFCURVE",
"396 448 OFFCURVE",
"375 414 CURVE SMOOTH",
"353 379 OFFCURVE",
"308 328 OFFCURVE",
"239 259 CURVE SMOOTH",
"51 70 LINE",
"51 0 LINE",
"520 0 LINE",
"520 74 LINE",
"153 74 LINE",
"309 222 LINE SMOOTH",
"456 362 OFFCURVE",
"493 421 OFFCURVE",
"493 517 CURVE SMOOTH",
"493 640 OFFCURVE",
"402 724 OFFCURVE",
"273 724 CURVE SMOOTH",
"198 724 OFFCURVE",
"132 704 OFFCURVE",
"75 665 CURVE",
"87 582 LINE"
);
}
);
width = 572;
}
);
note = two;
unicode = 0032;
},
{
glyphname = three;
lastChange = "2017-11-01 11:12:25 +0000";
layers = (
{
layerId = "63834EBD-EB8E-4539-93C4-16AFAF002AC8";
paths = (
{
closed = 1;
nodes = (
"117 12 OFFCURVE",
"189 -10 OFFCURVE",
"268 -10 CURVE SMOOTH",
"417 -10 OFFCURVE",
"515 67 OFFCURVE",
"515 194 CURVE SMOOTH",
"515 293 OFFCURVE",
"444 361 OFFCURVE",
"336 376 CURVE",
"441 402 OFFCURVE",
"493 456 OFFCURVE",
"493 538 CURVE SMOOTH",
"493 646 OFFCURVE",
"397 724 OFFCURVE",
"272 724 CURVE SMOOTH",
"201 724 OFFCURVE",
"135 704 OFFCURVE",
"74 663 CURVE",
"86 582 LINE",
"148 625 OFFCURVE",
"210 646 OFFCURVE",
"271 646 CURVE SMOOTH",
"355 646 OFFCURVE",
"407 600 OFFCURVE",
"407 535 CURVE SMOOTH",
"407 464 OFFCURVE",
"342 411 OFFCURVE",
"215 411 CURVE SMOOTH",
"155 411 LINE",
"155 337 LINE",
"225 337 LINE SMOOTH",
"360 337 OFFCURVE",
"429 278 OFFCURVE",
"429 197 CURVE SMOOTH",
"429 117 OFFCURVE",
"372 66 OFFCURVE",
"268 66 CURVE SMOOTH",
"198 66 OFFCURVE",
"134 91 OFFCURVE",
"76 140 CURVE",
"54 57 LINE"
);
}
);
width = 572;
}
);
note = three;
unicode = 0033;
},
{
glyphname = four;
lastChange = "2017-11-01 11:12:25 +0000";
layers = (
{
layerId = "63834EBD-EB8E-4539-93C4-16AFAF002AC8";
paths = (
{
closed = 1;
nodes = (
"450 714 LINE",
"357 714 LINE",
"21 235 LINE",
"21 160 LINE",
"368 160 LINE",
"368 0 LINE",
"450 0 LINE",
"450 160 LINE",
"552 160 LINE",
"552 238 LINE",
"450 238 LINE"
);
},
{
closed = 1;
nodes = (
"368 613 LINE",
"368 238 LINE",
"117 238 LINE",
"257 443 LINE"
);
}
);
width = 572;
}
);
note = four;
unicode = 0034;
},
{
glyphname = five;
lastChange = "2017-11-01 11:12:25 +0000";
layers = (
{
layerId = "63834EBD-EB8E-4539-93C4-16AFAF002AC8";
paths = (
{
closed = 1;
nodes = (
"114 9 OFFCURVE",
"184 -10 OFFCURVE",
"262 -10 CURVE SMOOTH",
"418 -10 OFFCURVE",
"517 92 OFFCURVE",
"517 225 CURVE SMOOTH",
"517 361 OFFCURVE",
"417 449 OFFCURVE",
"269 449 CURVE SMOOTH",
"241 449 OFFCURVE",
"205 445 OFFCURVE",
"160 436 CURVE",
"176 640 LINE",
"449 640 LINE",
"464 714 LINE",
"109 714 LINE",
"80 349 LINE",
"137 369 OFFCURVE",
"194 379 OFFCURVE",
"251 379 CURVE SMOOTH",
"362 379 OFFCURVE",
"431 318 OFFCURVE",
"431 227 CURVE SMOOTH",
"431 132 OFFCURVE",
"369 66 OFFCURVE",
"262 66 CURVE SMOOTH",
"188 66 OFFCURVE",
"123 87 OFFCURVE",
"68 130 CURVE",
"52 46 LINE"
);
}
);
width = 572;
}
);
note = five;
unicode = 0035;
},
{
glyphname = six;
lastChange = "2017-11-01 11:12:25 +0000";
layers = (
{
layerId = "63834EBD-EB8E-4539-93C4-16AFAF002AC8";
paths = (
{
closed = 1;
nodes = (
"450 714 OFFCURVE",
"400 724 OFFCURVE",
"345 724 CURVE SMOOTH",
"170 724 OFFCURVE",
"56 581 OFFCURVE",
"56 302 CURVE SMOOTH",
"56 102 OFFCURVE",
"139 -10 OFFCURVE",
"300 -10 CURVE SMOOTH",
"432 -10 OFFCURVE",
"529 91 OFFCURVE",
"529 222 CURVE SMOOTH",
"529 351 OFFCURVE",
"431 448 OFFCURVE",
"312 448 CURVE SMOOTH",
"240 448 OFFCURVE",
"183 420 OFFCURVE",
"142 365 CURVE",
"150 549 OFFCURVE",
"230 648 OFFCURVE",
"345 648 CURVE SMOOTH",
"394 648 OFFCURVE",
"441 636 OFFCURVE",
"486 612 CURVE",
"496 694 LINE"
);
},
{
closed = 1;
nodes = (
"144 313 OFFCURVE",
"207 374 OFFCURVE",
"296 374 CURVE SMOOTH",
"384 374 OFFCURVE",
"445 310 OFFCURVE",
"445 223 CURVE SMOOTH",
"445 135 OFFCURVE",
"388 66 OFFCURVE",
"299 66 CURVE SMOOTH",
"204 66 OFFCURVE",
"144 135 OFFCURVE",
"144 226 CURVE SMOOTH"
);
}
);
width = 572;
}
);
note = six;
unicode = 0036;
},
{
glyphname = seven;
lastChange = "2017-11-01 11:12:25 +0000";
layers = (
{
layerId = "63834EBD-EB8E-4539-93C4-16AFAF002AC8";
paths = (
{
closed = 1;
nodes = (
"525 714 LINE",
"50 714 LINE",
"50 640 LINE",
"447 640 LINE",
"346 439 LINE",
"133 0 LINE",
"233 0 LINE",
"525 649 LINE"
);
}
);
width = 572;
}
);
note = seven;
unicode = 0037;
},
{
glyphname = eight;
lastChange = "2017-11-01 11:12:25 +0000";
layers = (
{
layerId = "63834EBD-EB8E-4539-93C4-16AFAF002AC8";
paths = (
{
closed = 1;
nodes = (
"53 72 OFFCURVE",
"144 -10 OFFCURVE",
"288 -10 CURVE SMOOTH",
"427 -10 OFFCURVE",
"520 74 OFFCURVE",
"520 185 CURVE SMOOTH",
"520 278 OFFCURVE",
"468 332 OFFCURVE",
"368 377 CURVE",
"364 378 LINE",
"451 413 OFFCURVE",
"495 467 OFFCURVE",
"495 540 CURVE SMOOTH",
"495 652 OFFCURVE",
"408 724 OFFCURVE",
"284 724 CURVE SMOOTH",
"167 724 OFFCURVE",
"76 644 OFFCURVE",
"76 540 CURVE SMOOTH",
"76 469 OFFCURVE",
"116 414 OFFCURVE",
"195 375 CURVE",
"100 336 OFFCURVE",
"53 273 OFFCURVE",
"53 187 CURVE SMOOTH"
);
},
{
closed = 1;
nodes = (
"404 276 OFFCURVE",
"437 242 OFFCURVE",
"437 186 CURVE SMOOTH",
"437 117 OFFCURVE",
"376 66 OFFCURVE",
"288 66 CURVE SMOOTH",
"197 66 OFFCURVE",
"135 118 OFFCURVE",
"135 190 CURVE SMOOTH",
"135 256 OFFCURVE",
"178 307 OFFCURVE",
"264 342 CURVE",
"331 311 LINE SMOOTH"
);
},
{
closed = 1;
nodes = (
"157 601 OFFCURVE",
"211 648 OFFCURVE",
"284 648 CURVE SMOOTH",
"359 648 OFFCURVE",
"414 603 OFFCURVE",
"414 540 CURVE SMOOTH",
"414 485 OFFCURVE",
"373 442 OFFCURVE",
"291 411 CURVE",
"248 431 LINE SMOOTH",
"187 459 OFFCURVE",
"157 495 OFFCURVE",
"157 540 CURVE SMOOTH"
);
}
);
width = 572;
}
);
note = eight;
unicode = 0038;
},
{
glyphname = nine;
lastChange = "2017-11-01 11:12:25 +0000";
layers = (
{
layerId = "63834EBD-EB8E-4539-93C4-16AFAF002AC8";
paths = (
{
closed = 1;
nodes = (
"122 0 OFFCURVE",
"172 -10 OFFCURVE",
"227 -10 CURVE SMOOTH",
"404 -10 OFFCURVE",
"516 128 OFFCURVE",
"516 412 CURVE SMOOTH",
"516 612 OFFCURVE",
"433 724 OFFCURVE",
"272 724 CURVE SMOOTH",
"140 724 OFFCURVE",
"43 623 OFFCURVE",
"43 492 CURVE SMOOTH",
"43 363 OFFCURVE",
"141 266 OFFCURVE",
"260 266 CURVE SMOOTH",
"332 266 OFFCURVE",
"389 294 OFFCURVE",
"430 349 CURVE",
"422 165 OFFCURVE",
"342 66 OFFCURVE",
"227 66 CURVE SMOOTH",
"178 66 OFFCURVE",
"131 78 OFFCURVE",
"86 102 CURVE",
"76 20 LINE"
);
},
{
closed = 1;
nodes = (
"428 401 OFFCURVE",
"365 340 OFFCURVE",
"276 340 CURVE SMOOTH",
"188 340 OFFCURVE",
"127 404 OFFCURVE",
"127 491 CURVE SMOOTH",
"127 579 OFFCURVE",
"184 648 OFFCURVE",
"273 648 CURVE SMOOTH",
"368 648 OFFCURVE",
"428 579 OFFCURVE",
"428 488 CURVE SMOOTH"
);
}
);
width = 572;
}
);
note = nine;
unicode = 0039;
},
{
glyphname = colon;
lastChange = "2017-11-01 11:12:25 +0000";
layers = (
{
layerId = "63834EBD-EB8E-4539-93C4-16AFAF002AC8";
paths = (
{
closed = 1;
nodes = (
"67 14 OFFCURVE",
"94 -10 OFFCURVE",
"126 -10 CURVE SMOOTH",
"157 -10 OFFCURVE",
"183 14 OFFCURVE",
"183 49 CURVE SMOOTH",
"183 85 OFFCURVE",
"157 108 OFFCURVE",
"126 108 CURVE SMOOTH",
"94 108 OFFCURVE",
"67 85 OFFCURVE",
"67 49 CURVE SMOOTH"
);
},
{
closed = 1;
nodes = (
"67 472 OFFCURVE",
"94 448 OFFCURVE",
"126 448 CURVE SMOOTH",
"157 448 OFFCURVE",
"183 472 OFFCURVE",
"183 507 CURVE SMOOTH",
"183 543 OFFCURVE",
"157 566 OFFCURVE",
"126 566 CURVE SMOOTH",
"94 566 OFFCURVE",
"67 543 OFFCURVE",
"67 507 CURVE SMOOTH"
);
}
);
width = 250;
}
);
note = colon;
unicode = 003A;
},
{
glyphname = semicolon;
lastChange = "2017-11-01 11:12:25 +0000";
layers = (
{
layerId = "63834EBD-EB8E-4539-93C4-16AFAF002AC8";
paths = (
{
closed = 1;
nodes = (
"103 -128 LINE",
"193 108 LINE",
"94 108 LINE",
"43 -128 LINE"
);
},
{
closed = 1;
nodes = (
"67 472 OFFCURVE",
"94 448 OFFCURVE",
"126 448 CURVE SMOOTH",
"157 448 OFFCURVE",
"183 472 OFFCURVE",
"183 507 CURVE SMOOTH",
"183 543 OFFCURVE",
"157 566 OFFCURVE",
"126 566 CURVE SMOOTH",
"94 566 OFFCURVE",
"67 543 OFFCURVE",
"67 507 CURVE SMOOTH"
);
}
);
width = 250;
}
);
note = semicolon;
unicode = 003B;
},
{
glyphname = less;
lastChange = "2017-11-01 11:12:25 +0000";
layers = (
{
layerId = "63834EBD-EB8E-4539-93C4-16AFAF002AC8";
paths = (
{
closed = 1;
nodes = (
"520 203 LINE",
"144 358 LINE",
"520 513 LINE",
"520 591 LINE",
"51 383 LINE",
"51 333 LINE",
"520 125 LINE"
);
}
);
width = 572;
}
);
note = less;
unicode = 003C;
},
{
glyphname = equal;
lastChange = "2017-11-01 11:12:25 +0000";
layers = (
{
layerId = "63834EBD-EB8E-4539-93C4-16AFAF002AC8";
paths = (
{
closed = 1;
nodes = (
"520 424 LINE",
"520 491 LINE",
"51 491 LINE",
"51 424 LINE"
);
},
{
closed = 1;
nodes = (
"520 224 LINE",
"520 291 LINE",
"51 291 LINE",
"51 224 LINE"
);
}
);
width = 572;
}
);
note = equal;
unicode = 003D;
},
{
glyphname = greater;
lastChange = "2017-11-01 11:12:25 +0000";
layers = (
{
layerId = "63834EBD-EB8E-4539-93C4-16AFAF002AC8";
paths = (
{
closed = 1;
nodes = (
"51 513 LINE",
"427 358 LINE",
"51 203 LINE",
"51 125 LINE",
"520 333 LINE",
"520 383 LINE",
"51 591 LINE"
);
}
);
width = 572;
}
);
note = greater;
unicode = 003E;
},
{
glyphname = question;
lastChange = "2017-11-01 11:12:25 +0000";
layers = (
{
layerId = "63834EBD-EB8E-4539-93C4-16AFAF002AC8";
paths = (
{
closed = 1;
nodes = (
"123 14 OFFCURVE",
"150 -10 OFFCURVE",
"182 -10 CURVE SMOOTH",
"213 -10 OFFCURVE",
"239 14 OFFCURVE",
"239 49 CURVE SMOOTH",
"239 85 OFFCURVE",
"213 108 OFFCURVE",
"182 108 CURVE SMOOTH",
"150 108 OFFCURVE",
"123 85 OFFCURVE",
"123 49 CURVE SMOOTH"
);
},
{
closed = 1;
nodes = (
"408 643 OFFCURVE",
"326 724 OFFCURVE",
"193 724 CURVE SMOOTH",
"130 724 OFFCURVE",
"70 707 OFFCURVE",
"13 672 CURVE",
"29 594 LINE",
"81 631 OFFCURVE",
"135 649 OFFCURVE",
"192 649 CURVE SMOOTH",
"283 649 OFFCURVE",
"327 604 OFFCURVE",
"327 537 CURVE SMOOTH",
"327 502 OFFCURVE",
"303 461 OFFCURVE",
"256 416 CURVE SMOOTH",
"201 363 LINE SMOOTH",
"167 331 OFFCURVE",
"150 293 OFFCURVE",
"150 250 CURVE SMOOTH",
"150 231 OFFCURVE",
"153 213 OFFCURVE",
"160 197 CURVE",
"213 197 LINE",
"210 218 OFFCURVE",
"209 230 OFFCURVE",
"209 232 CURVE SMOOTH",
"209 261 OFFCURVE",
"223 289 OFFCURVE",
"250 314 CURVE SMOOTH",
"341 399 LINE SMOOTH",
"386 441 OFFCURVE",
"408 487 OFFCURVE",
"408 538 CURVE SMOOTH"
);
}
);
width = 429;
}
);
note = question;
unicode = 003F;
},
{
glyphname = at;
lastChange = "2017-11-01 11:12:25 +0000";
layers = (
{
layerId = "63834EBD-EB8E-4539-93C4-16AFAF002AC8";
paths = (
{
closed = 1;
nodes = (
"901 562 OFFCURVE",
"742 725 OFFCURVE",
"517 725 CURVE SMOOTH",
"249 725 OFFCURVE",
"60 541 OFFCURVE",
"60 268 CURVE SMOOTH",
"60 17 OFFCURVE",
"216 -138 OFFCURVE",
"471 -138 CURVE SMOOTH",
"559 -138 OFFCURVE",
"639 -123 OFFCURVE",
"711 -92 CURVE",
"702 -14 LINE",
"630 -46 OFFCURVE",
"553 -62 OFFCURVE",
"471 -62 CURVE SMOOTH",
"263 -62 OFFCURVE",
"141 65 OFFCURVE",
"141 268 CURVE SMOOTH",
"141 500 OFFCURVE",
"294 650 OFFCURVE",
"518 650 CURVE SMOOTH",
"698 650 OFFCURVE",
"819 525 OFFCURVE",
"819 342 CURVE SMOOTH",
"819 227 OFFCURVE",
"781 149 OFFCURVE",
"718 149 CURVE SMOOTH",
"673 149 OFFCURVE",
"652 177 OFFCURVE",
"652 253 CURVE SMOOTH",
"652 290 OFFCURVE",
"657 370 OFFCURVE",
"666 493 CURVE",
"607 509 OFFCURVE",
"555 517 OFFCURVE",
"509 517 CURVE SMOOTH",
"369 517 OFFCURVE",
"275 416 OFFCURVE",
"275 275 CURVE SMOOTH",
"275 147 OFFCURVE",
"344 73 OFFCURVE",
"437 73 CURVE SMOOTH",
"504 73 OFFCURVE",
"553 107 OFFCURVE",
"584 176 CURVE",
"593 115 OFFCURVE",
"645 73 OFFCURVE",
"718 73 CURVE SMOOTH",
"823 73 OFFCURVE",
"901 170 OFFCURVE",
"901 341 CURVE SMOOTH"
);
},
{
closed = 1;
nodes = (
"362 373 OFFCURVE",
"421 441 OFFCURVE",
"506 441 CURVE SMOOTH",
"535 441 OFFCURVE",
"560 438 OFFCURVE",
"581 433 CURVE",
"572 303 LINE SMOOTH",
"565 207 OFFCURVE",
"516 149 OFFCURVE",
"448 149 CURVE SMOOTH",
"391 149 OFFCURVE",
"362 190 OFFCURVE",
"362 273 CURVE SMOOTH"
);
}
);
width = 951;
}
);
note = at;
unicode = 0040;
},
{
glyphname = A;
lastChange = "2017-11-01 11:12:25 +0000";
layers = (
{
layerId = "63834EBD-EB8E-4539-93C4-16AFAF002AC8";
paths = (
{
closed = 1;
nodes = (
"282 714 LINE",
"5 0 LINE",
"89 0 LINE",
"162 187 LINE",
"479 187 LINE",
"552 0 LINE",
"639 0 LINE",
"363 714 LINE"
);
},
{
closed = 1;
nodes = (
"321 626 LINE",
"392 422 LINE",
"453 261 LINE",
"190 261 LINE",
"257 437 LINE"
);
}
);
width = 644;
}
);
note = A;
unicode = 0041;
},
{
glyphname = B;
lastChange = "2017-11-01 11:12:25 +0000";
layers = (
{
layerId = "63834EBD-EB8E-4539-93C4-16AFAF002AC8";
paths = (
{
closed = 1;
nodes = (
"460 0 OFFCURVE",
"553 76 OFFCURVE",
"553 203 CURVE SMOOTH",
"553 299 OFFCURVE",
"495 363 OFFCURVE",
"391 376 CURVE",
"482 388 OFFCURVE",
"527 439 OFFCURVE",
"527 529 CURVE SMOOTH",
"527 636 OFFCURVE",
"454 714 OFFCURVE",
"303 714 CURVE SMOOTH",
"98 714 LINE",
"98 0 LINE",
"307 0 LINE SMOOTH"
);
},
{
closed = 1;
nodes = (
"296 640 LINE SMOOTH",
"394 640 OFFCURVE",
"443 601 OFFCURVE",
"443 524 CURVE SMOOTH",
"443 449 OFFCURVE",
"391 411 OFFCURVE",
"287 411 CURVE SMOOTH",
"268 411 LINE",
"268 337 LINE",
"294 337 LINE SMOOTH",
"409 337 OFFCURVE",
"467 289 OFFCURVE",
"467 204 CURVE SMOOTH",
"467 117 OFFCURVE",
"406 74 OFFCURVE",
"284 74 CURVE SMOOTH",
"181 74 LINE",
"181 640 LINE"
);
}
);
width = 610;
}
);
note = B;
unicode = 0042;
},
{
glyphname = C;
lastChange = "2017-11-01 11:12:25 +0000";
layers = (
{
layerId = "63834EBD-EB8E-4539-93C4-16AFAF002AC8";
paths = (
{
closed = 1;
nodes = (
"484 -10 OFFCURVE",
"548 2 OFFCURVE",
"600 25 CURVE",
"590 109 LINE",
"535 80 OFFCURVE",
"475 66 OFFCURVE",
"412 66 CURVE SMOOTH",
"261 66 OFFCURVE",
"147 174 OFFCURVE",
"147 354 CURVE SMOOTH",
"147 547 OFFCURVE",
"251 648 OFFCURVE",
"410 648 CURVE SMOOTH",
"470 648 OFFCURVE",
"527 634 OFFCURVE",
"581 607 CURVE",
"591 694 LINE",
"540 714 OFFCURVE",
"479 724 OFFCURVE",
"409 724 CURVE SMOOTH",
"201 724 OFFCURVE",
"59 581 OFFCURVE",
"59 356 CURVE SMOOTH",
"59 132 OFFCURVE",
"211 -10 OFFCURVE",
"407 -10 CURVE SMOOTH"
);
}
);
width = 631;
}
);
note = C;
unicode = 0043;
},
{
glyphname = D;
lastChange = "2017-11-01 11:12:25 +0000";
layers = (
{
layerId = "63834EBD-EB8E-4539-93C4-16AFAF002AC8";
paths = (
{
closed = 1;
nodes = (
"282 0 LINE SMOOTH",
"494 0 OFFCURVE",
"638 135 OFFCURVE",
"638 356 CURVE SMOOTH",
"638 577 OFFCURVE",
"503 714 OFFCURVE",
"287 714 CURVE SMOOTH",
"98 714 LINE",
"98 0 LINE"
);
},
{
closed = 1;
nodes = (
"454 642 OFFCURVE",
"550 543 OFFCURVE",
"550 354 CURVE SMOOTH",
"550 177 OFFCURVE",
"445 72 OFFCURVE",
"282 72 CURVE SMOOTH",
"181 72 LINE",
"181 642 LINE",
"297 642 LINE SMOOTH"
);
}
);
width = 700;
}
);
note = D;
unicode = 0044;
},
{
glyphname = E;
lastChange = "2017-11-01 11:12:25 +0000";
layers = (
{
layerId = "63834EBD-EB8E-4539-93C4-16AFAF002AC8";
paths = (
{
closed = 1;
nodes = (
"181 337 LINE",
"467 337 LINE",
"467 411 LINE",
"181 411 LINE",
"181 640 LINE",
"486 640 LINE",
"486 714 LINE",
"98 714 LINE",
"98 0 LINE",
"496 0 LINE",
"496 74 LINE",
"181 74 LINE"
);
}
);
width = 556;
}
);
note = E;
unicode = 0045;
},
{
glyphname = F;
lastChange = "2017-11-01 11:12:25 +0000";
layers = (
{
layerId = "63834EBD-EB8E-4539-93C4-16AFAF002AC8";
paths = (
{
closed = 1;
nodes = (
"457 411 LINE",
"181 411 LINE",
"181 640 LINE",
"496 640 LINE",
"496 714 LINE",
"98 714 LINE",
"98 0 LINE",
"181 0 LINE",
"181 337 LINE",
"457 337 LINE"
);
}
);
width = 516;
}
);
note = F;
unicode = 0046;
},
{
glyphname = G;
lastChange = "2017-11-01 11:12:25 +0000";
layers = (
{
layerId = "63834EBD-EB8E-4539-93C4-16AFAF002AC8";
paths = (
{
closed = 1;
nodes = (
"402 364 LINE",
"402 290 LINE",
"554 290 LINE",
"554 79 LINE",
"509 70 OFFCURVE",
"470 66 OFFCURVE",
"438 66 CURVE SMOOTH",
"265 66 OFFCURVE",
"149 171 OFFCURVE",
"149 354 CURVE SMOOTH",
"149 546 OFFCURVE",
"256 648 OFFCURVE",
"412 648 CURVE SMOOTH",
"467 648 OFFCURVE",
"524 635 OFFCURVE",
"583 608 CURVE",
"593 694 LINE",
"542 714 OFFCURVE",
"481 724 OFFCURVE",
"411 724 CURVE SMOOTH",
"207 724 OFFCURVE",
"61 580 OFFCURVE",
"61 356 CURVE SMOOTH",
"61 129 OFFCURVE",
"215 -10 OFFCURVE",
"439 -10 CURVE SMOOTH",
"500 -10 OFFCURVE",
"565 1 OFFCURVE",
"635 24 CURVE",
"635 364 LINE"
);
}
);
width = 718;
}
);
note = G;
unicode = 0047;
},
{
glyphname = H;
lastChange = "2017-11-01 11:12:25 +0000";
layers = (
{
layerId = "63834EBD-EB8E-4539-93C4-16AFAF002AC8";
paths = (
{
closed = 1;
nodes = (
"537 410 LINE",
"181 410 LINE",
"181 714 LINE",
"98 714 LINE",
"98 0 LINE",
"181 0 LINE",
"181 336 LINE",
"537 336 LINE",
"537 0 LINE",
"620 0 LINE",
"620 714 LINE",
"537 714 LINE"
);
}
);
width = 718;
}
);
note = H;
unicode = 0048;
},
{
glyphname = I;
lastChange = "2017-11-01 11:12:25 +0000";
layers = (
{
layerId = "63834EBD-EB8E-4539-93C4-16AFAF002AC8";
paths = (
{
closed = 1;
nodes = (
"98 714 LINE",
"98 0 LINE",
"181 0 LINE",
"181 714 LINE"
);
}
);
width = 279;
}
);
note = I;
unicode = 0049;
},
{
glyphname = J;
lastChange = "2017-11-01 11:12:25 +0000";
layers = (
{
layerId = "63834EBD-EB8E-4539-93C4-16AFAF002AC8";
paths = (
{
closed = 1;
nodes = (
"266 235 LINE SMOOTH",
"266 134 OFFCURVE",
"203 66 OFFCURVE",
"111 66 CURVE SMOOTH",
"86 66 OFFCURVE",
"64 69 OFFCURVE",
"47 75 CURVE",
"40 -1 LINE",
"59 -7 OFFCURVE",
"80 -10 OFFCURVE",
"103 -10 CURVE SMOOTH",
"251 -10 OFFCURVE",
"349 87 OFFCURVE",
"349 240 CURVE SMOOTH",
"349 714 LINE",
"45 714 LINE",
"45 640 LINE",
"266 640 LINE"
);
}
);
width = 433;
}
);
note = J;
unicode = 004A;
},
{
glyphname = K;
lastChange = "2017-11-01 11:12:25 +0000";
layers = (
{
layerId = "63834EBD-EB8E-4539-93C4-16AFAF002AC8";
paths = (
{
closed = 1;
nodes = (
"98 0 LINE",
"181 0 LINE",
"181 714 LINE",
"98 714 LINE"
);
},
{
closed = 1;
nodes = (
"312 394 LINE",
"613 714 LINE",
"512 714 LINE",
"210 394 LINE",
"521 0 LINE",
"624 0 LINE"
);
}
);
width = 624;
}
);
note = K;
unicode = 004B;
},
{
glyphname = L;
lastChange = "2017-11-01 11:12:25 +0000";
layers = (
{
layerId = "63834EBD-EB8E-4539-93C4-16AFAF002AC8";
paths = (
{
closed = 1;
nodes = (
"181 75 LINE",
"181 714 LINE",
"98 714 LINE",
"98 0 LINE",
"496 0 LINE",
"496 75 LINE"
);
}
);
width = 519;
}
);
note = L;
unicode = 004C;
},
{
glyphname = M;
lastChange = "2017-11-01 11:12:25 +0000";
layers = (
{
layerId = "63834EBD-EB8E-4539-93C4-16AFAF002AC8";
paths = (
{
closed = 1;
nodes = (
"580 160 LINE",
"580 0 LINE",
"663 0 LINE",
"663 714 LINE",
"569 714 LINE",
"378 311 LINE",
"193 714 LINE",
"98 714 LINE",
"98 0 LINE",
"175 0 LINE",
"175 154 LINE",
"168 587 LINE",
"343 200 LINE",
"410 200 LINE",
"587 586 LINE"
);
}
);
width = 761;
}
);
note = M;
unicode = 004D;
},
{
glyphname = N;
lastChange = "2017-11-01 11:12:25 +0000";
layers = (
{
layerId = "63834EBD-EB8E-4539-93C4-16AFAF002AC8";
paths = (
{
closed = 1;
nodes = (
"576 714 LINE",
"576 406 LINE",
"580 172 LINE",
"183 714 LINE",
"98 714 LINE",
"98 0 LINE",
"177 0 LINE",
"177 367 LINE",
"173 597 LINE",
"595 0 LINE",
"656 0 LINE",
"656 714 LINE"
);
}
);
width = 754;
}
);
note = N;
unicode = 004E;
},
{
glyphname = O;
lastChange = "2017-11-01 11:12:25 +0000";
layers = (
{
layerId = "63834EBD-EB8E-4539-93C4-16AFAF002AC8";
paths = (
{
closed = 1;
nodes = (
"150 545 OFFCURVE",
"237 648 OFFCURVE",
"384 648 CURVE SMOOTH",
"527 648 OFFCURVE",
"630 538 OFFCURVE",
"630 361 CURVE SMOOTH",
"630 184 OFFCURVE",
"535 66 OFFCURVE",
"394 66 CURVE SMOOTH",
"249 66 OFFCURVE",
"150 175 OFFCURVE",
"150 354 CURVE SMOOTH"
);
},
{
closed = 1;
nodes = (
"717 568 OFFCURVE",
"591 724 OFFCURVE",
"391 724 CURVE SMOOTH",
"190 724 OFFCURVE",
"62 578 OFFCURVE",
"62 357 CURVE SMOOTH",
"62 136 OFFCURVE",
"204 -10 OFFCURVE",
"387 -10 CURVE SMOOTH",
"590 -10 OFFCURVE",
"717 138 OFFCURVE",
"717 357 CURVE SMOOTH"
);
}
);
width = 779;
}
);
note = O;
unicode = 004F;
},
{
glyphname = P;
lastChange = "2017-11-01 11:12:25 +0000";
layers = (
{
layerId = "63834EBD-EB8E-4539-93C4-16AFAF002AC8";
paths = (
{
closed = 1;
nodes = (
"451 283 OFFCURVE",
"551 356 OFFCURVE",
"551 499 CURVE SMOOTH",
"551 631 OFFCURVE",
"458 714 OFFCURVE",
"289 714 CURVE SMOOTH",
"98 714 LINE",
"98 0 LINE",
"181 0 LINE",
"181 283 LINE",
"267 283 LINE SMOOTH"
);
},
{
closed = 1;
nodes = (
"401 640 OFFCURVE",
"465 589 OFFCURVE",
"465 500 CURVE SMOOTH",
"465 405 OFFCURVE",
"399 357 OFFCURVE",
"267 357 CURVE SMOOTH",
"181 357 LINE",
"181 640 LINE",
"278 640 LINE SMOOTH"
);
}
);
width = 596;
}
);
note = P;
unicode = 0050;
},
{
glyphname = Q;
lastChange = "2017-11-01 11:12:25 +0000";
layers = (
{
layerId = "63834EBD-EB8E-4539-93C4-16AFAF002AC8";
paths = (
{
closed = 1;
nodes = (
"689 163 OFFCURVE",
"717 250 OFFCURVE",
"717 357 CURVE SMOOTH",
"717 568 OFFCURVE",
"591 724 OFFCURVE",
"391 724 CURVE SMOOTH",
"190 724 OFFCURVE",
"62 578 OFFCURVE",
"62 357 CURVE SMOOTH",
"62 136 OFFCURVE",
"204 -10 OFFCURVE",
"387 -10 CURVE SMOOTH",
"462 -10 OFFCURVE",
"527 9 OFFCURVE",
"580 47 CURVE",
"619 0 LINE",
"716 0 LINE",
"634 98 LINE"
);
},
{
closed = 1;
nodes = (
"489 80 OFFCURVE",
"445 66 OFFCURVE",
"394 66 CURVE SMOOTH",
"249 66 OFFCURVE",
"150 175 OFFCURVE",
"150 354 CURVE SMOOTH",
"150 545 OFFCURVE",
"237 648 OFFCURVE",
"384 648 CURVE SMOOTH",
"527 648 OFFCURVE",
"630 538 OFFCURVE",
"630 361 CURVE SMOOTH",
"630 282 OFFCURVE",
"612 216 OFFCURVE",
"577 164 CURVE",
"476 283 LINE",
"379 283 LINE",
"527 109 LINE"
);
}
);
width = 779;
}
);
note = Q;
unicode = 0051;
},
{
glyphname = R;
lastChange = "2017-11-01 11:12:25 +0000";
layers = (
{
layerId = "63834EBD-EB8E-4539-93C4-16AFAF002AC8";
paths = (
{
closed = 1;
nodes = (
"293 283 OFFCURVE",
"312 284 OFFCURVE",
"324 285 CURVE",
"503 0 LINE",
"601 0 LINE",
"406 302 LINE",
"503 333 OFFCURVE",
"551 399 OFFCURVE",
"551 499 CURVE SMOOTH",
"551 631 OFFCURVE",
"458 714 OFFCURVE",
"289 714 CURVE SMOOTH",
"98 714 LINE",
"98 0 LINE",
"181 0 LINE",
"181 283 LINE",
"267 283 LINE SMOOTH"
);
},
{
closed = 1;
nodes = (
"401 640 OFFCURVE",
"465 588 OFFCURVE",
"465 500 CURVE SMOOTH",
"465 405 OFFCURVE",
"399 357 OFFCURVE",
"267 357 CURVE SMOOTH",
"181 357 LINE",
"181 640 LINE",
"278 640 LINE SMOOTH"
);
}
);
width = 626;
}
);
note = R;
unicode = 0052;
},
{
glyphname = S;
lastChange = "2017-11-01 11:12:25 +0000";
layers = (
{
layerId = "63834EBD-EB8E-4539-93C4-16AFAF002AC8";
paths = (
{
closed = 1;
nodes = (
"506 274 OFFCURVE",
"458 340 OFFCURVE",
"363 379 CURVE SMOOTH",
"239 430 LINE SMOOTH",
"176 455 OFFCURVE",
"145 482 OFFCURVE",
"145 537 CURVE SMOOTH",
"145 601 OFFCURVE",
"200 648 OFFCURVE",
"293 648 CURVE SMOOTH",
"351 648 OFFCURVE",
"409 630 OFFCURVE",
"466 594 CURVE",
"484 681 LINE",
"423 710 OFFCURVE",
"359 724 OFFCURVE",
"292 724 CURVE SMOOTH",
"156 724 OFFCURVE",
"61 645 OFFCURVE",
"61 537 CURVE SMOOTH",
"61 448 OFFCURVE",
"109 393 OFFCURVE",
"209 350 CURVE SMOOTH",
"331 299 LINE SMOOTH",
"390 274 OFFCURVE",
"420 234 OFFCURVE",
"420 181 CURVE SMOOTH",
"420 112 OFFCURVE",
"361 66 OFFCURVE",
"260 66 CURVE SMOOTH",
"199 66 OFFCURVE",
"133 87 OFFCURVE",
"62 129 CURVE",
"52 40 LINE",
"117 7 OFFCURVE",
"186 -10 OFFCURVE",
"257 -10 CURVE SMOOTH",
"413 -10 OFFCURVE",
"506 65 OFFCURVE",
"506 182 CURVE SMOOTH"
);
}
);
width = 549;
}
);
note = S;
unicode = 0053;
},
{
glyphname = T;
lastChange = "2017-11-01 11:12:25 +0000";
layers = (
{
layerId = "63834EBD-EB8E-4539-93C4-16AFAF002AC8";
paths = (
{
closed = 1;
nodes = (
"487 714 LINE",
"12 714 LINE",
"12 640 LINE",
"208 640 LINE",
"208 0 LINE",
"291 0 LINE",
"291 640 LINE",
"487 640 LINE"
);
}
);
width = 499;
}
);
note = T;
unicode = 0054;
},
{
glyphname = U;
lastChange = "2017-11-01 11:12:25 +0000";
layers = (
{
layerId = "63834EBD-EB8E-4539-93C4-16AFAF002AC8";
paths = (
{
closed = 1;
nodes = (
"525 134 OFFCURVE",
"454 68 OFFCURVE",
"345 68 CURVE SMOOTH",
"237 68 OFFCURVE",
"167 133 OFFCURVE",
"167 248 CURVE SMOOTH",
"167 714 LINE",
"84 714 LINE",
"84 255 LINE SMOOTH",
"84 87 OFFCURVE",
"186 -10 OFFCURVE",
"345 -10 CURVE SMOOTH",
"504 -10 OFFCURVE",
"606 87 OFFCURVE",
"606 255 CURVE SMOOTH",
"606 714 LINE",
"525 714 LINE",
"525 249 LINE SMOOTH"
);
}
);
width = 690;
}
);
note = U;
unicode = 0055;
},
{
glyphname = V;
lastChange = "2017-11-01 11:12:25 +0000";
layers = (
{
layerId = "63834EBD-EB8E-4539-93C4-16AFAF002AC8";
paths = (
{
closed = 1;
nodes = (
"232 342 LINE",
"101 714 LINE",
"12 714 LINE",
"268 0 LINE",
"352 0 LINE",
"609 714 LINE",
"519 714 LINE",
"388 342 LINE",
"310 97 LINE"
);
}
);
width = 621;
}
);
note = V;
unicode = 0056;
},
{
glyphname = W;
lastChange = "2017-11-01 11:12:25 +0000";
layers = (
{
layerId = "63834EBD-EB8E-4539-93C4-16AFAF002AC8";
paths = (
{
closed = 1;
nodes = (
"600 97 LINE",
"521 333 LINE",
"487 424 LINE",
"595 714 LINE",
"513 714 LINE",
"444 511 LINE",
"374 714 LINE",
"293 714 LINE",
"399 424 LINE",
"368 332 LINE",
"291 97 LINE",
"221 332 LINE",
"98 714 LINE",
"10 714 LINE",
"248 0 LINE",
"330 0 LINE",
"443 325 LINE",
"557 0 LINE",
"639 0 LINE",
"878 714 LINE",
"789 714 LINE",
"668 333 LINE"
);
}
);
width = 888;
}
);
note = W;
unicode = 0057;
},
{
glyphname = X;
lastChange = "2017-11-01 11:12:25 +0000";
layers = (
{
layerId = "63834EBD-EB8E-4539-93C4-16AFAF002AC8";
paths = (
{
closed = 1;
nodes = (
"463 714 LINE",
"289 434 LINE",
"114 714 LINE",
"20 714 LINE",
"240 374 LINE",
"4 0 LINE",
"100 0 LINE",
"287 311 LINE",
"478 0 LINE",
"573 0 LINE",
"335 376 LINE",
"556 714 LINE"
);
}
);
width = 577;
}
);
note = X;
unicode = 0058;
},
{
glyphname = Y;
lastChange = "2017-11-01 11:12:25 +0000";
layers = (
{
layerId = "63834EBD-EB8E-4539-93C4-16AFAF002AC8";
paths = (
{
closed = 1;
nodes = (
"250 303 LINE",
"250 0 LINE",
"334 0 LINE",
"334 307 LINE",
"572 714 LINE",
"482 714 LINE",
"292 389 LINE",
"103 714 LINE",
"12 714 LINE"
);
}
);
width = 584;
}
);
note = Y;
unicode = 0059;
},
{
glyphname = Z;
lastChange = "2017-11-01 11:12:25 +0000";
layers = (
{
layerId = "63834EBD-EB8E-4539-93C4-16AFAF002AC8";
paths = (
{
closed = 1;
nodes = (
"520 649 LINE",
"520 714 LINE",
"52 714 LINE",
"52 640 LINE",
"419 640 LINE",
"40 65 LINE",
"40 0 LINE",
"531 0 LINE",
"531 74 LINE",
"141 74 LINE"
);
}
);
width = 571;
}
);
note = Z;
unicode = 005A;
},
{
glyphname = bracketleft;
lastChange = "2017-11-01 11:12:25 +0000";
layers = (
{
layerId = "63834EBD-EB8E-4539-93C4-16AFAF002AC8";
paths = (
{
closed = 1;
nodes = (
"133 673 LINE",
"278 673 LINE",
"278 741 LINE",
"65 741 LINE",
"65 -200 LINE",
"278 -200 LINE",
"278 -134 LINE",
"133 -134 LINE"
);
}
);
width = 296;
}
);
note = bracketleft;
unicode = 005B;
},
{
glyphname = backslash;
lastChange = "2017-11-01 11:12:25 +0000";
layers = (
{
layerId = "63834EBD-EB8E-4539-93C4-16AFAF002AC8";
paths = (
{
closed = 1;
nodes = (
"398 0 LINE",
"92 714 LINE",
"10 714 LINE",
"316 0 LINE"
);
}
);
width = 408;
}
);
note = backslash;
unicode = 005C;
},
{
glyphname = bracketright;
lastChange = "2017-11-01 11:12:25 +0000";
layers = (
{
layerId = "63834EBD-EB8E-4539-93C4-16AFAF002AC8";
paths = (
{
closed = 1;
nodes = (
"231 742 LINE",
"18 742 LINE",
"18 674 LINE",
"163 674 LINE",
"163 -134 LINE",
"18 -134 LINE",
"18 -200 LINE",
"231 -200 LINE"
);
}
);
width = 296;
}
);
note = bracketright;
unicode = 005D;
},
{
glyphname = asciicircum;
lastChange = "2017-11-01 11:12:25 +0000";
layers = (
{
layerId = "63834EBD-EB8E-4539-93C4-16AFAF002AC8";
paths = (
{
closed = 1;
nodes = (
"131 245 LINE",
"286 621 LINE",
"441 245 LINE",
"519 245 LINE",
"311 714 LINE",
"261 714 LINE",
"53 245 LINE"
);
}
);
width = 572;
}
);
note = asciicircum;
unicode = 005E;
},
{
glyphname = underscore;
lastChange = "2017-11-01 11:12:25 +0000";
layers = (
{
layerId = "63834EBD-EB8E-4539-93C4-16AFAF002AC8";
paths = (
{
closed = 1;
nodes = (
"500 -79 LINE",
"0 -79 LINE",
"0 -147 LINE",
"500 -147 LINE"
);
}
);
width = 500;
}
);
note = underscore;
unicode = 005F;
},
{
glyphname = grave;
lastChange = "2017-11-01 11:12:25 +0000";
layers = (
{
layerId = "63834EBD-EB8E-4539-93C4-16AFAF002AC8";
paths = (
{
closed = 1;
nodes = (
"271 602 LINE",
"325 602 LINE",
"263 782 LINE",
"154 782 LINE"
);
}
);
width = 500;
}
);
note = grave;
unicode = 0060;
},
{
glyphname = a;
lastChange = "2017-11-01 11:12:25 +0000";
layers = (
{
layerId = "63834EBD-EB8E-4539-93C4-16AFAF002AC8";
paths = (
{
closed = 1;
nodes = (
"391 46 OFFCURVE",
"397 19 OFFCURVE",
"404 0 CURVE",
"495 0 LINE",
"478 51 OFFCURVE",
"469 100 OFFCURVE",
"469 147 CURVE SMOOTH",
"469 361 LINE SMOOTH",
"469 496 OFFCURVE",
"392 562 OFFCURVE",
"269 562 CURVE SMOOTH",
"208 562 OFFCURVE",
"145 546 OFFCURVE",
"80 513 CURVE",
"90 430 LINE",
"151 465 OFFCURVE",
"208 482 OFFCURVE",
"261 482 CURVE SMOOTH",
"345 482 OFFCURVE",
"386 444 OFFCURVE",
"386 356 CURVE SMOOTH",
"386 337 LINE",
"243 314 LINE SMOOTH",
"108 293 OFFCURVE",
"44 242 OFFCURVE",
"44 145 CURVE SMOOTH",
"44 49 OFFCURVE",
"109 -10 OFFCURVE",
"213 -10 CURVE SMOOTH",
"285 -10 OFFCURVE",
"343 21 OFFCURVE",
"386 83 CURVE"
);
},
{
closed = 1;
nodes = (
"386 140 OFFCURVE",
"333 64 OFFCURVE",
"232 64 CURVE SMOOTH",
"169 64 OFFCURVE",
"131 95 OFFCURVE",
"131 150 CURVE SMOOTH",
"131 205 OFFCURVE",
"171 233 OFFCURVE",
"254 246 CURVE SMOOTH",
"386 268 LINE",
"386 260 LINE SMOOTH"
);
}
);
width = 559;
}
);
note = a;
unicode = 0061;
},
{
glyphname = b;
lastChange = "2017-11-01 11:12:25 +0000";
layers = (
{
layerId = "63834EBD-EB8E-4539-93C4-16AFAF002AC8";
paths = (
{
closed = 1;
nodes = (
"88 0 LINE",
"172 0 LINE",
"172 87 LINE",
"213 22 OFFCURVE",
"273 -10 OFFCURVE",
"352 -10 CURVE SMOOTH",
"501 -10 OFFCURVE",
"593 108 OFFCURVE",
"593 277 CURVE SMOOTH",
"593 454 OFFCURVE",
"501 562 OFFCURVE",
"349 562 CURVE SMOOTH",
"276 562 OFFCURVE",
"209 528 OFFCURVE",
"172 467 CURVE",
"172 742 LINE",
"88 742 LINE"
);
},
{
closed = 1;
nodes = (
"170 410 OFFCURVE",
"234 486 OFFCURVE",
"339 486 CURVE SMOOTH",
"443 486 OFFCURVE",
"503 405 OFFCURVE",
"503 273 CURVE SMOOTH",
"503 142 OFFCURVE",
"437 66 OFFCURVE",
"336 66 CURVE SMOOTH",
"228 66 OFFCURVE",
"170 138 OFFCURVE",
"170 279 CURVE SMOOTH"
);
}
);
width = 649;
}
);
note = b;
unicode = 0062;
},
{
glyphname = c;
lastChange = "2017-11-01 11:12:25 +0000";
layers = (
{
layerId = "63834EBD-EB8E-4539-93C4-16AFAF002AC8";
paths = (
{
closed = 1;
nodes = (
"396 -10 OFFCURVE",
"447 -1 OFFCURVE",
"487 17 CURVE",
"477 96 LINE",
"432 76 OFFCURVE",
"385 66 OFFCURVE",
"338 66 CURVE SMOOTH",
"217 66 OFFCURVE",
"139 142 OFFCURVE",
"139 273 CURVE SMOOTH",
"139 414 OFFCURVE",
"209 486 OFFCURVE",
"336 486 CURVE SMOOTH",
"375 486 OFFCURVE",
"420 476 OFFCURVE",
"470 457 CURVE",
"480 538 LINE",
"438 554 OFFCURVE",
"390 562 OFFCURVE",
"335 562 CURVE SMOOTH",
"166 562 OFFCURVE",
"50 450 OFFCURVE",
"50 275 CURVE SMOOTH",
"50 100 OFFCURVE",
"172 -10 OFFCURVE",
"333 -10 CURVE SMOOTH"
);
}
);
width = 507;
}
);
note = c;
unicode = 0063;
},
{
glyphname = d;
lastChange = "2017-11-01 11:12:25 +0000";
layers = (
{
layerId = "63834EBD-EB8E-4539-93C4-16AFAF002AC8";
paths = (
{
closed = 1;
nodes = (
"477 467 LINE",
"440 528 OFFCURVE",
"373 562 OFFCURVE",
"300 562 CURVE SMOOTH",
"148 562 OFFCURVE",
"56 454 OFFCURVE",
"56 277 CURVE SMOOTH",
"56 108 OFFCURVE",
"148 -10 OFFCURVE",
"297 -10 CURVE SMOOTH",
"376 -10 OFFCURVE",
"436 22 OFFCURVE",
"477 87 CURVE",
"478 79 OFFCURVE",
"480 65 OFFCURVE",
"481 46 CURVE SMOOTH",
"482 27 OFFCURVE",
"484 11 OFFCURVE",
"486 0 CURVE",
"577 0 LINE",
"566 52 OFFCURVE",
"561 101 OFFCURVE",
"561 147 CURVE SMOOTH",
"561 742 LINE",
"477 742 LINE"
);
},
{
closed = 1;
nodes = (
"479 138 OFFCURVE",
"421 66 OFFCURVE",
"313 66 CURVE SMOOTH",
"212 66 OFFCURVE",
"146 142 OFFCURVE",
"146 273 CURVE SMOOTH",
"146 405 OFFCURVE",
"206 486 OFFCURVE",
"310 486 CURVE SMOOTH",
"415 486 OFFCURVE",
"479 410 OFFCURVE",
"479 279 CURVE SMOOTH"
);
}
);
width = 649;
}
);
note = d;
unicode = 0064;
},
{
glyphname = e;
lastChange = "2017-11-01 11:12:25 +0000";
layers = (
{
layerId = "63834EBD-EB8E-4539-93C4-16AFAF002AC8";
paths = (
{
closed = 1;
nodes = (
"399 -10 OFFCURVE",
"456 0 OFFCURVE",
"505 20 CURVE",
"496 104 LINE",
"439 79 OFFCURVE",
"385 66 OFFCURVE",
"336 66 CURVE SMOOTH",
"221 66 OFFCURVE",
"141 144 OFFCURVE",
"141 271 CURVE",
"525 271 LINE",
"529 288 OFFCURVE",
"531 307 OFFCURVE",
"531 329 CURVE SMOOTH",
"531 426 OFFCURVE",
"498 493 OFFCURVE",
"431 532 CURVE SMOOTH",
"397 552 OFFCURVE",
"355 562 OFFCURVE",
"306 562 CURVE SMOOTH",
"167 562 OFFCURVE",
"53 450 OFFCURVE",
"53 277 CURVE SMOOTH",
"53 97 OFFCURVE",
"164 -10 OFFCURVE",
"336 -10 CURVE SMOOTH"
);
},
{
closed = 1;
nodes = (
"433 423 OFFCURVE",
"445 387 OFFCURVE",
"445 341 CURVE",
"146 341 LINE",
"157 425 OFFCURVE",
"223 486 OFFCURVE",
"307 486 CURVE SMOOTH",
"349 486 OFFCURVE",
"383 473 OFFCURVE",
"408 448 CURVE SMOOTH"
);
}
);
width = 579;
}
);
note = e;
unicode = 0065;
},
{
glyphname = f;
lastChange = "2017-11-01 11:12:25 +0000";
layers = (
{
layerId = "63834EBD-EB8E-4539-93C4-16AFAF002AC8";
paths = (
{
closed = 1;
nodes = (
"15 482 LINE",
"124 482 LINE",
"124 0 LINE",
"207 0 LINE",
"207 482 LINE",
"377 482 LINE",
"387 552 LINE",
"207 552 LINE",
"207 580 LINE SMOOTH",
"207 651 OFFCURVE",
"240 686 OFFCURVE",
"305 686 CURVE SMOOTH",
"336 686 OFFCURVE",
"363 681 OFFCURVE",
"386 672 CURVE",
"391 751 LINE",
"363 758 OFFCURVE",
"334 762 OFFCURVE",
"303 762 CURVE SMOOTH",
"191 762 OFFCURVE",
"124 693 OFFCURVE",
"124 580 CURVE SMOOTH",
"124 552 LINE",
"15 552 LINE"
);
}
);
width = 391;
}
);
note = f;
unicode = 0066;
},
{
glyphname = g;
lastChange = "2017-11-01 11:12:25 +0000";
layers = (
{
layerId = "63834EBD-EB8E-4539-93C4-16AFAF002AC8";
paths = (
{
closed = 1;
nodes = (
"543 22 OFFCURVE",
"489 79 OFFCURVE",
"397 79 CURVE SMOOTH",
"376 79 OFFCURVE",
"344 77 OFFCURVE",
"299 74 CURVE SMOOTH",
"254 71 OFFCURVE",
"221 69 OFFCURVE",
"201 69 CURVE SMOOTH",
"168 69 OFFCURVE",
"146 90 OFFCURVE",
"146 119 CURVE SMOOTH",
"146 145 OFFCURVE",
"161 168 OFFCURVE",
"191 189 CURVE",
"222 173 OFFCURVE",
"258 165 OFFCURVE",
"298 165 CURVE SMOOTH",
"414 165 OFFCURVE",
"503 245 OFFCURVE",
"503 353 CURVE SMOOTH",
"503 416 OFFCURVE",
"483 461 OFFCURVE",
"444 490 CURVE",
"578 482 LINE",
"588 552 LINE",
"469 552 LINE SMOOTH",
"444 552 OFFCURVE",
"414 554 OFFCURVE",
"381 557 CURVE SMOOTH",
"347 560 OFFCURVE",
"320 562 OFFCURVE",
"299 562 CURVE SMOOTH",
"171 562 OFFCURVE",
"86 482 OFFCURVE",
"86 362 CURVE SMOOTH",
"86 307 OFFCURVE",
"105 261 OFFCURVE",
"143 224 CURVE",
"96 195 OFFCURVE",
"73 157 OFFCURVE",
"73 112 CURVE SMOOTH",
"73 67 OFFCURVE",
"92 33 OFFCURVE",
"130 10 CURVE",
"88 -15 OFFCURVE",
"67 -50 OFFCURVE",
"67 -97 CURVE SMOOTH",
"67 -178 OFFCURVE",
"143 -240 OFFCURVE",
"282 -240 CURVE SMOOTH",
"443 -240 OFFCURVE",
"543 -158 OFFCURVE",
"543 -55 CURVE SMOOTH"
);
},
{
closed = 1;
nodes = (
"171 440 OFFCURVE",
"221 487 OFFCURVE",
"297 487 CURVE SMOOTH",
"366 487 OFFCURVE",
"418 436 OFFCURVE",
"418 364 CURVE SMOOTH",
"418 292 OFFCURVE",
"369 243 OFFCURVE",
"296 243 CURVE SMOOTH",
"225 243 OFFCURVE",
"171 291 OFFCURVE",
"171 363 CURVE SMOOTH"
);
},
{
closed = 1;
nodes = (
"222 -10 OFFCURVE",
"254 -8 OFFCURVE",
"298 -5 CURVE SMOOTH",
"342 -2 OFFCURVE",
"374 0 OFFCURVE",
"393 0 CURVE SMOOTH",
"440 0 OFFCURVE",
"463 -21 OFFCURVE",
"463 -63 CURVE SMOOTH",
"463 -124 OFFCURVE",
"404 -168 OFFCURVE",
"296 -168 CURVE SMOOTH",
"196 -168 OFFCURVE",
"147 -129 OFFCURVE",
"147 -77 CURVE SMOOTH",
"147 -46 OFFCURVE",
"158 -24 OFFCURVE",
"181 -9 CURVE",
"186 -10 OFFCURVE",
"193 -10 OFFCURVE",
"203 -10 CURVE SMOOTH"
);
}
);
width = 600;
}
);
note = g;
unicode = 0067;
},
{
glyphname = h;
lastChange = "2017-11-01 11:12:25 +0000";
layers = (
{
layerId = "63834EBD-EB8E-4539-93C4-16AFAF002AC8";
paths = (
{
closed = 1;
nodes = (
"549 438 OFFCURVE",
"519 505 OFFCURVE",
"459 539 CURVE SMOOTH",
"432 554 OFFCURVE",
"396 562 OFFCURVE",
"351 562 CURVE SMOOTH",
"271 562 OFFCURVE",
"211 530 OFFCURVE",
"172 465 CURVE",
"172 741 LINE",
"88 741 LINE",
"88 0 LINE",
"172 0 LINE",
"172 248 LINE SMOOTH",
"172 392 OFFCURVE",
"211 486 OFFCURVE",
"339 486 CURVE SMOOTH",
"426 486 OFFCURVE",
"466 438 OFFCURVE",
"466 331 CURVE SMOOTH",
"466 0 LINE",
"549 0 LINE",
"549 337 LINE SMOOTH"
);
}
);
width = 632;
}
);
note = h;
unicode = 0068;
},
{
glyphname = i;
lastChange = "2017-11-01 11:12:25 +0000";
layers = (
{
layerId = "63834EBD-EB8E-4539-93C4-16AFAF002AC8";
paths = (
{
closed = 1;
nodes = (
"88 552 LINE",
"88 0 LINE",
"170 0 LINE",
"170 552 LINE"
);
},
{
closed = 1;
nodes = (
"79 659 OFFCURVE",
"102 640 OFFCURVE",
"130 640 CURVE SMOOTH",
"158 640 OFFCURVE",
"179 659 OFFCURVE",
"179 691 CURVE SMOOTH",
"179 724 OFFCURVE",
"159 742 OFFCURVE",
"130 742 CURVE SMOOTH",
"101 742 OFFCURVE",
"79 724 OFFCURVE",
"79 691 CURVE SMOOTH"
);
}
);
width = 258;
}
);
note = i;
unicode = 0069;
},
{
glyphname = j;
lastChange = "2017-11-01 11:12:25 +0000";
layers = (
{
layerId = "63834EBD-EB8E-4539-93C4-16AFAF002AC8";
paths = (
{
closed = 1;
nodes = (
"100 -119 OFFCURVE",
"77 -145 OFFCURVE",
"30 -145 CURVE SMOOTH",
"14 -145 OFFCURVE",
"-5 -143 OFFCURVE",
"-26 -138 CURVE",
"-26 -211 LINE",
"-7 -218 OFFCURVE",
"12 -221 OFFCURVE",
"33 -221 CURVE SMOOTH",
"129 -221 OFFCURVE",
"182 -169 OFFCURVE",
"182 -69 CURVE SMOOTH",
"182 552 LINE",
"100 552 LINE",
"100 -67 LINE SMOOTH"
);
},
{
closed = 1;
nodes = (
"91 659 OFFCURVE",
"114 640 OFFCURVE",
"142 640 CURVE SMOOTH",
"170 640 OFFCURVE",
"191 659 OFFCURVE",
"191 691 CURVE SMOOTH",
"191 724 OFFCURVE",
"171 742 OFFCURVE",
"142 742 CURVE SMOOTH",
"113 742 OFFCURVE",
"91 724 OFFCURVE",
"91 691 CURVE SMOOTH"
);
}
);
width = 265;
}
);
note = j;
unicode = 006A;
},
{
glyphname = k;
lastChange = "2017-11-01 11:12:25 +0000";
layers = (
{
layerId = "63834EBD-EB8E-4539-93C4-16AFAF002AC8";
paths = (
{
closed = 1;
nodes = (
"295 316 LINE",
"534 552 LINE",
"429 552 LINE",
"193 315 LINE",
"451 0 LINE",
"557 0 LINE"
);
},
{
closed = 1;
nodes = (
"88 0 LINE",
"170 0 LINE",
"170 741 LINE",
"88 741 LINE"
);
}
);
width = 557;
}
);
note = k;
unicode = 006B;
},
{
glyphname = l;
lastChange = "2017-11-01 11:12:25 +0000";
layers = (
{
layerId = "63834EBD-EB8E-4539-93C4-16AFAF002AC8";
paths = (
{
closed = 1;
nodes = (
"88 742 LINE",
"88 0 LINE",
"170 0 LINE",
"170 742 LINE"
);
}
);
width = 258;
}
);
note = l;
unicode = 006C;
},
{
glyphname = m;
lastChange = "2017-11-01 11:12:25 +0000";
layers = (
{
layerId = "63834EBD-EB8E-4539-93C4-16AFAF002AC8";
paths = (
{
closed = 1;
nodes = (
"489 406 OFFCURVE",
"526 486 OFFCURVE",
"622 486 CURVE SMOOTH",
"691 486 OFFCURVE",
"723 447 OFFCURVE",
"723 362 CURVE SMOOTH",
"723 0 LINE",
"806 0 LINE",
"806 370 LINE SMOOTH",
"806 519 OFFCURVE",
"729 562 OFFCURVE",
"640 562 CURVE SMOOTH",
"567 562 OFFCURVE",
"506 524 OFFCURVE",
"474 464 CURVE",
"446 533 OFFCURVE",
"398 562 OFFCURVE",
"323 562 CURVE SMOOTH",
"260 562 OFFCURVE",
"210 534 OFFCURVE",
"171 478 CURVE",
"171 552 LINE",
"88 552 LINE",
"88 0 LINE",
"172 0 LINE",
"172 289 LINE SMOOTH",
"172 406 OFFCURVE",
"209 486 OFFCURVE",
"305 486 CURVE SMOOTH",
"374 486 OFFCURVE",
"406 447 OFFCURVE",
"406 362 CURVE SMOOTH",
"406 0 LINE",
"489 0 LINE",
"489 289 LINE SMOOTH"
);
}
);
width = 889;
}
);
note = m;
unicode = 006D;
},
{
glyphname = n;
lastChange = "2017-11-01 11:12:25 +0000";
layers = (
{
layerId = "63834EBD-EB8E-4539-93C4-16AFAF002AC8";
paths = (
{
closed = 1;
nodes = (
"549 436 OFFCURVE",
"519 503 OFFCURVE",
"460 537 CURVE SMOOTH",
"432 554 OFFCURVE",
"396 562 OFFCURVE",
"351 562 CURVE SMOOTH",
"270 562 OFFCURVE",
"210 530 OFFCURVE",
"171 465 CURVE",
"171 552 LINE",
"88 552 LINE",
"88 0 LINE",
"172 0 LINE",
"172 248 LINE SMOOTH",
"172 392 OFFCURVE",
"211 486 OFFCURVE",
"339 486 CURVE SMOOTH",
"426 486 OFFCURVE",
"466 438 OFFCURVE",
"466 331 CURVE SMOOTH",
"466 0 LINE",
"549 0 LINE",
"549 337 LINE SMOOTH"
);
}
);
width = 632;
}
);
note = n;
unicode = 006E;
},
{
glyphname = o;
lastChange = "2017-11-01 11:12:25 +0000";
layers = (
{
layerId = "63834EBD-EB8E-4539-93C4-16AFAF002AC8";
paths = (
{
closed = 1;
nodes = (
"145 415 OFFCURVE",
"199 486 OFFCURVE",
"307 486 CURVE SMOOTH",
"412 486 OFFCURVE",
"478 410 OFFCURVE",
"478 279 CURVE SMOOTH",
"478 147 OFFCURVE",
"418 66 OFFCURVE",
"314 66 CURVE SMOOTH",
"209 66 OFFCURVE",
"145 142 OFFCURVE",
"145 273 CURVE SMOOTH"
);
},
{
closed = 1;
nodes = (
"566 443 OFFCURVE",
"468 562 OFFCURVE",
"312 562 CURVE SMOOTH",
"155 562 OFFCURVE",
"56 452 OFFCURVE",
"56 276 CURVE SMOOTH",
"56 101 OFFCURVE",
"165 -10 OFFCURVE",
"309 -10 CURVE SMOOTH",
"468 -10 OFFCURVE",
"566 101 OFFCURVE",
"566 276 CURVE SMOOTH"
);
}
);
width = 622;
}
);
note = o;
unicode = 006F;
},
{
glyphname = p;
lastChange = "2017-11-01 11:12:25 +0000";
layers = (
{
layerId = "63834EBD-EB8E-4539-93C4-16AFAF002AC8";
paths = (
{
closed = 1;
nodes = (
"209 24 OFFCURVE",
"276 -10 OFFCURVE",
"349 -10 CURVE SMOOTH",
"501 -10 OFFCURVE",
"593 98 OFFCURVE",
"593 275 CURVE SMOOTH",
"593 444 OFFCURVE",
"501 562 OFFCURVE",
"352 562 CURVE SMOOTH",
"273 562 OFFCURVE",
"213 530 OFFCURVE",
"172 465 CURVE",
"172 552 LINE",
"88 552 LINE",
"88 -220 LINE",
"172 -220 LINE",
"172 85 LINE"
);
},
{
closed = 1;
nodes = (
"170 414 OFFCURVE",
"228 486 OFFCURVE",
"336 486 CURVE SMOOTH",
"437 486 OFFCURVE",
"503 410 OFFCURVE",
"503 279 CURVE SMOOTH",
"503 147 OFFCURVE",
"443 66 OFFCURVE",
"339 66 CURVE SMOOTH",
"234 66 OFFCURVE",
"170 142 OFFCURVE",
"170 273 CURVE SMOOTH"
);
}
);
width = 649;
}
);
note = p;
unicode = 0070;
},
{
glyphname = q;
lastChange = "2017-11-01 11:12:25 +0000";
layers = (
{
layerId = "63834EBD-EB8E-4539-93C4-16AFAF002AC8";
paths = (
{
closed = 1;
nodes = (
"561 552 LINE",
"477 552 LINE",
"477 465 LINE",
"436 530 OFFCURVE",
"376 562 OFFCURVE",
"297 562 CURVE SMOOTH",
"148 562 OFFCURVE",
"56 444 OFFCURVE",
"56 275 CURVE SMOOTH",
"56 98 OFFCURVE",
"148 -10 OFFCURVE",
"300 -10 CURVE SMOOTH",
"373 -10 OFFCURVE",
"440 24 OFFCURVE",
"477 85 CURVE",
"477 -220 LINE",
"561 -220 LINE"
);
},
{
closed = 1;
nodes = (
"479 142 OFFCURVE",
"415 66 OFFCURVE",
"310 66 CURVE SMOOTH",
"206 66 OFFCURVE",
"146 147 OFFCURVE",
"146 279 CURVE SMOOTH",
"146 410 OFFCURVE",
"212 486 OFFCURVE",
"313 486 CURVE SMOOTH",
"421 486 OFFCURVE",
"479 414 OFFCURVE",
"479 273 CURVE SMOOTH"
);
}
);
width = 651;
}
);
note = q;
unicode = 0071;
},
{
glyphname = r;
lastChange = "2017-11-01 11:12:25 +0000";
layers = (
{
layerId = "63834EBD-EB8E-4539-93C4-16AFAF002AC8";
paths = (
{
closed = 1;
nodes = (
"406 559 OFFCURVE",
"381 562 OFFCURVE",
"356 562 CURVE SMOOTH",
"275 562 OFFCURVE",
"213 525 OFFCURVE",
"171 452 CURVE",
"171 552 LINE",
"88 552 LINE",
"88 0 LINE",
"172 0 LINE",
"172 238 LINE SMOOTH",
"172 371 OFFCURVE",
"202 479 OFFCURVE",
"351 479 CURVE SMOOTH",
"376 479 OFFCURVE",
"400 474 OFFCURVE",
"425 464 CURVE",
"433 554 LINE"
);
}
);
width = 453;
}
);
note = r;
unicode = 0072;
},
{
glyphname = s;
lastChange = "2017-11-01 11:12:25 +0000";
layers = (
{
layerId = "63834EBD-EB8E-4539-93C4-16AFAF002AC8";
paths = (
{
closed = 1;
nodes = (
"446 213 OFFCURVE",
"416 262 OFFCURVE",
"329 297 CURVE SMOOTH",
"201 349 LINE SMOOTH",
"152 369 OFFCURVE",
"137 389 OFFCURVE",
"137 420 CURVE SMOOTH",
"137 464 OFFCURVE",
"175 486 OFFCURVE",
"252 486 CURVE SMOOTH",
"301 486 OFFCURVE",
"352 470 OFFCURVE",
"406 437 CURVE",
"416 525 LINE",
"373 550 OFFCURVE",
"318 562 OFFCURVE",
"251 562 CURVE SMOOTH",
"132 562 OFFCURVE",
"53 506 OFFCURVE",
"53 417 CURVE SMOOTH",
"53 349 OFFCURVE",
"91 300 OFFCURVE",
"166 270 CURVE SMOOTH",
"295 218 LINE SMOOTH",
"347 197 OFFCURVE",
"361 175 OFFCURVE",
"361 142 CURVE SMOOTH",
"361 91 OFFCURVE",
"324 66 OFFCURVE",
"249 66 CURVE SMOOTH",
"178 66 OFFCURVE",
"137 85 OFFCURVE",
"66 126 CURVE",
"55 36 LINE",
"110 5 OFFCURVE",
"175 -10 OFFCURVE",
"251 -10 CURVE SMOOTH",
"375 -10 OFFCURVE",
"446 45 OFFCURVE",
"446 142 CURVE SMOOTH"
);
}
);
width = 494;
}
);
note = s;
unicode = 0073;
},
{
glyphname = t;
lastChange = "2017-11-01 11:12:25 +0000";
layers = (
{
layerId = "63834EBD-EB8E-4539-93C4-16AFAF002AC8";
paths = (
{
closed = 1;
nodes = (
"391 552 LINE",
"192 552 LINE",
"192 689 LINE",
"109 661 LINE",
"109 552 LINE",
"0 552 LINE",
"0 482 LINE",
"109 482 LINE",
"109 166 LINE SMOOTH",
"109 50 OFFCURVE",
"173 -10 OFFCURVE",
"294 -10 CURVE SMOOTH",
"333 -10 OFFCURVE",
"368 -5 OFFCURVE",
"397 4 CURVE",
"393 85 LINE",
"355 72 OFFCURVE",
"323 66 OFFCURVE",
"296 66 CURVE SMOOTH",
"227 66 OFFCURVE",
"192 104 OFFCURVE",
"192 179 CURVE SMOOTH",
"192 482 LINE",
"381 482 LINE"
);
}
);
width = 421;
}
);
note = t;
unicode = 0074;
},
{
glyphname = u;
lastChange = "2017-11-01 11:12:25 +0000";
layers = (
{
layerId = "63834EBD-EB8E-4539-93C4-16AFAF002AC8";
paths = (
{
closed = 1;
nodes = (
"83 62 OFFCURVE",
"160 -10 OFFCURVE",
"285 -10 CURVE SMOOTH",
"360 -10 OFFCURVE",
"417 22 OFFCURVE",
"457 87 CURVE",
"457 0 LINE",
"540 0 LINE",
"540 552 LINE",
"456 552 LINE",
"456 304 LINE SMOOTH",
"456 157 OFFCURVE",
"414 66 OFFCURVE",
"298 66 CURVE SMOOTH",
"209 66 OFFCURVE",
"166 114 OFFCURVE",
"166 221 CURVE SMOOTH",
"166 552 LINE",
"83 552 LINE",
"83 215 LINE SMOOTH"
);
}
);
width = 628;
}
);
note = u;
unicode = 0075;
},
{
glyphname = v;
lastChange = "2017-11-01 11:12:25 +0000";
layers = (
{
layerId = "63834EBD-EB8E-4539-93C4-16AFAF002AC8";
paths = (
{
closed = 1;
nodes = (
"432 552 LINE",
"334 292 LINE",
"266 109 LINE",
"198 292 LINE",
"100 552 LINE",
"6 552 LINE",
"225 0 LINE",
"303 0 LINE",
"522 552 LINE"
);
}
);
width = 528;
}
);
note = v;
unicode = 0076;
},
{
glyphname = w;
lastChange = "2017-11-01 11:12:25 +0000";
layers = (
{
layerId = "63834EBD-EB8E-4539-93C4-16AFAF002AC8";
paths = (
{
closed = 1;
nodes = (
"687 552 LINE",
"591 292 LINE",
"525 109 LINE",
"438 334 LINE",
"524 552 LINE",
"443 552 LINE",
"394 418 LINE",
"344 552 LINE",
"261 552 LINE",
"346 342 LINE",
"329 292 LINE",
"262 109 LINE",
"196 292 LINE",
"100 552 LINE",
"6 552 LINE",
"221 0 LINE",
"299 0 LINE",
"389 244 LINE",
"487 0 LINE",
"562 0 LINE",
"777 552 LINE"
);
}
);
width = 783;
}
);
note = w;
unicode = 0077;
},
{
glyphname = x;
lastChange = "2017-11-01 11:12:25 +0000";
layers = (
{
layerId = "63834EBD-EB8E-4539-93C4-16AFAF002AC8";
paths = (
{
closed = 1;
nodes = (
"269 224 LINE",
"421 0 LINE",
"527 0 LINE",
"325 280 LINE",
"516 552 LINE",
"421 552 LINE",
"278 338 LINE",
"134 552 LINE",
"30 552 LINE",
"221 283 LINE",
"18 0 LINE",
"118 0 LINE"
);
}
);
width = 545;
}
);
note = x;
unicode = 0078;
},
{
glyphname = y;
lastChange = "2017-11-01 11:12:25 +0000";
layers = (
{
layerId = "63834EBD-EB8E-4539-93C4-16AFAF002AC8";
paths = (
{
closed = 1;
nodes = (
"447 552 LINE",
"272 114 LINE",
"204 291 LINE",
"98 552 LINE",
"6 552 LINE",
"232 25 LINE",
"123 -220 LINE",
"215 -220 LINE",
"537 552 LINE"
);
}
);
width = 543;
}
);
note = y;
unicode = 0079;
},
{
glyphname = z;
lastChange = "2017-11-01 11:12:25 +0000";
layers = (
{
layerId = "63834EBD-EB8E-4539-93C4-16AFAF002AC8";
paths = (
{
closed = 1;
nodes = (
"462 482 LINE",
"462 552 LINE",
"58 552 LINE",
"58 482 LINE",
"360 482 LINE",
"39 62 LINE",
"39 0 LINE",
"469 0 LINE",
"469 70 LINE",
"145 70 LINE"
);
}
);
width = 502;
}
);
note = z;
unicode = 007A;
},
{
glyphname = braceleft;
lastChange = "2017-11-01 11:12:25 +0000";
layers = (
{
layerId = "63834EBD-EB8E-4539-93C4-16AFAF002AC8";
paths = (
{
closed = 1;
nodes = (
"80 237 OFFCURVE",
"112 210 OFFCURVE",
"112 147 CURVE SMOOTH",
"112 -44 LINE SMOOTH",
"112 -145 OFFCURVE",
"174 -200 OFFCURVE",
"275 -200 CURVE SMOOTH",
"286 -200 LINE",
"286 -132 LINE",
"276 -132 LINE SMOOTH",
"212 -132 OFFCURVE",
"180 -100 OFFCURVE",
"180 -35 CURVE SMOOTH",
"180 159 LINE SMOOTH",
"180 220 OFFCURVE",
"150 258 OFFCURVE",
"90 271 CURVE",
"150 284 OFFCURVE",
"180 322 OFFCURVE",
"180 383 CURVE SMOOTH",
"180 577 LINE SMOOTH",
"180 642 OFFCURVE",
"212 674 OFFCURVE",
"276 674 CURVE SMOOTH",
"286 674 LINE",
"286 742 LINE",
"275 742 LINE SMOOTH",
"174 742 OFFCURVE",
"112 687 OFFCURVE",
"112 586 CURVE SMOOTH",
"112 395 LINE SMOOTH",
"112 332 OFFCURVE",
"80 305 OFFCURVE",
"7 304 CURVE",
"7 238 LINE"
);
}
);
width = 296;
}
);
note = braceleft;
unicode = 007B;
},
{
glyphname = bar;
lastChange = "2017-11-01 11:12:25 +0000";
layers = (
{
layerId = "63834EBD-EB8E-4539-93C4-16AFAF002AC8";
paths = (
{
closed = 1;
nodes = (
"88 742 LINE",
"88 -200 LINE",
"156 -200 LINE",
"156 742 LINE"
);
}
);
width = 244;
}
);
note = bar;
unicode = 007C;
},
{
glyphname = braceright;
lastChange = "2017-11-01 11:12:25 +0000";
layers = (
{
layerId = "63834EBD-EB8E-4539-93C4-16AFAF002AC8";
paths = (
{
closed = 1;
nodes = (
"216 305 OFFCURVE",
"184 332 OFFCURVE",
"184 395 CURVE SMOOTH",
"184 586 LINE SMOOTH",
"184 687 OFFCURVE",
"122 742 OFFCURVE",
"21 742 CURVE SMOOTH",
"10 742 LINE",
"10 674 LINE",
"20 674 LINE SMOOTH",
"84 674 OFFCURVE",
"116 642 OFFCURVE",
"116 577 CURVE SMOOTH",
"116 383 LINE SMOOTH",
"116 322 OFFCURVE",
"146 284 OFFCURVE",
"206 271 CURVE",
"146 258 OFFCURVE",
"116 220 OFFCURVE",
"116 159 CURVE SMOOTH",
"116 -35 LINE SMOOTH",
"116 -100 OFFCURVE",
"84 -132 OFFCURVE",
"20 -132 CURVE SMOOTH",
"10 -132 LINE",
"10 -200 LINE",
"21 -200 LINE SMOOTH",
"122 -200 OFFCURVE",
"184 -145 OFFCURVE",
"184 -44 CURVE SMOOTH",
"184 147 LINE SMOOTH",
"184 210 OFFCURVE",
"216 237 OFFCURVE",
"289 238 CURVE",
"289 304 LINE"
);
}
);
width = 296;
}
);
note = braceright;
unicode = 007D;
},
{
glyphname = asciitilde;
lastChange = "2017-11-01 11:12:25 +0000";
layers = (
{
layerId = "63834EBD-EB8E-4539-93C4-16AFAF002AC8";
paths = (
{
closed = 1;
nodes = (
"123 420 OFFCURVE",
"85 408 OFFCURVE",
"51 383 CURVE",
"51 303 LINE",
"85 336 OFFCURVE",
"123 353 OFFCURVE",
"166 353 CURVE SMOOTH",
"193 353 OFFCURVE",
"228 344 OFFCURVE",
"269 326 CURVE SMOOTH",
"319 305 OFFCURVE",
"364 294 OFFCURVE",
"405 294 CURVE SMOOTH",
"448 294 OFFCURVE",
"486 306 OFFCURVE",
"520 331 CURVE",
"520 411 LINE",
"486 378 OFFCURVE",
"448 361 OFFCURVE",
"405 361 CURVE SMOOTH",
"379 361 OFFCURVE",
"345 370 OFFCURVE",
"302 388 CURVE SMOOTH",
"249 409 OFFCURVE",
"204 420 OFFCURVE",
"166 420 CURVE SMOOTH"
);
}
);
width = 572;
}
);
note = asciitilde;
unicode = 007E;
},
{
glyphname = exclamdown;
lastChange = "2017-11-01 11:12:25 +0000";
layers = (
{
layerId = "63834EBD-EB8E-4539-93C4-16AFAF002AC8";
paths = (
{
closed = 1;
nodes = (
"75 0 LINE",
"176 0 LINE",
"151 517 LINE",
"100 517 LINE"
);
},
{
closed = 1;
nodes = (
"67 629 OFFCURVE",
"94 606 OFFCURVE",
"126 606 CURVE SMOOTH",
"157 606 OFFCURVE",
"183 629 OFFCURVE",
"183 665 CURVE SMOOTH",
"183 700 OFFCURVE",
"157 724 OFFCURVE",
"126 724 CURVE SMOOTH",
"94 724 OFFCURVE",
"67 700 OFFCURVE",
"67 665 CURVE SMOOTH"
);
}
);
width = 250;
}
);
note = exclamdown;
unicode = 00A1;
},
{
glyphname = cent;
lastChange = "2017-11-01 11:12:25 +0000";
layers = (
{
layerId = "63834EBD-EB8E-4539-93C4-16AFAF002AC8";
paths = (
{
closed = 1;
nodes = (
"413 -7 OFFCURVE",
"453 2 OFFCURVE",
"487 17 CURVE",
"477 96 LINE",
"437 79 OFFCURVE",
"400 69 OFFCURVE",
"366 67 CURVE",
"366 484 LINE",
"397 481 OFFCURVE",
"431 472 OFFCURVE",
"470 457 CURVE",
"480 538 LINE",
"444 551 OFFCURVE",
"406 559 OFFCURVE",
"366 561 CURVE",
"366 742 LINE",
"298 742 LINE",
"298 560 LINE",
"149 545 OFFCURVE",
"50 436 OFFCURVE",
"50 275 CURVE SMOOTH",
"50 114 OFFCURVE",
"154 7 OFFCURVE",
"298 -8 CURVE",
"298 -200 LINE",
"366 -200 LINE",
"366 -9 LINE"
);
},
{
closed = 1;
nodes = (
"139 400 OFFCURVE",
"192 470 OFFCURVE",
"298 483 CURVE",
"298 69 LINE",
"199 84 OFFCURVE",
"139 158 OFFCURVE",
"139 273 CURVE SMOOTH"
);
}
);
width = 507;
}
);
note = cent;
unicode = 00A2;
},
{
glyphname = sterling;
lastChange = "2017-11-01 11:12:25 +0000";
layers = (
{
layerId = "63834EBD-EB8E-4539-93C4-16AFAF002AC8";
paths = (
{
closed = 1;
nodes = (
"125 144 OFFCURVE",
"98 95 OFFCURVE",
"45 69 CURVE",
"45 0 LINE",
"479 0 LINE",
"479 74 LINE",
"128 74 LINE",
"180 101 OFFCURVE",
"208 142 OFFCURVE",
"208 229 CURVE SMOOTH",
"208 331 LINE",
"407 331 LINE",
"417 399 LINE",
"208 399 LINE",
"208 479 LINE SMOOTH",
"208 580 OFFCURVE",
"271 648 OFFCURVE",
"363 648 CURVE SMOOTH",
"400 648 OFFCURVE",
"435 641 OFFCURVE",
"470 628 CURVE",
"478 707 LINE",
"444 718 OFFCURVE",
"408 724 OFFCURVE",
"371 724 CURVE SMOOTH",
"223 724 OFFCURVE",
"125 627 OFFCURVE",
"125 474 CURVE SMOOTH",
"125 399 LINE",
"46 399 LINE",
"46 331 LINE",
"125 331 LINE",
"125 217 LINE SMOOTH"
);
}
);
width = 524;
}
);
note = sterling;
unicode = 00A3;
},
{
glyphname = yen;
lastChange = "2017-11-01 11:12:25 +0000";
layers = (
{
layerId = "63834EBD-EB8E-4539-93C4-16AFAF002AC8";
paths = (
{
closed = 1;
nodes = (
"250 203 LINE",
"50 203 LINE",
"50 135 LINE",
"250 135 LINE",
"250 0 LINE",
"334 0 LINE",
"334 135 LINE",
"534 135 LINE",
"534 203 LINE",
"334 203 LINE",
"334 296 LINE",
"534 296 LINE",
"534 364 LINE",
"367 364 LINE",
"572 714 LINE",
"482 714 LINE",
"292 389 LINE",
"103 714 LINE",
"12 714 LINE",
"214 364 LINE",
"50 364 LINE",
"50 296 LINE",
"250 296 LINE"
);
}
);
width = 584;
}
);
note = yen;
unicode = 00A5;
},
{
glyphname = brokenbar;
lastChange = "2017-11-01 11:12:25 +0000";
layers = (
{
layerId = "63834EBD-EB8E-4539-93C4-16AFAF002AC8";
paths = (
{
closed = 1;
nodes = (
"88 162 LINE",
"88 -200 LINE",
"156 -200 LINE",
"156 162 LINE"
);
},
{
closed = 1;
nodes = (
"88 742 LINE",
"88 380 LINE",
"156 380 LINE",
"156 742 LINE"
);
}
);
width = 244;
}
);
note = brokenbar;
unicode = 00A6;
},
{
glyphname = section;
lastChange = "2017-11-01 11:12:25 +0000";
layers = (
{
layerId = "63834EBD-EB8E-4539-93C4-16AFAF002AC8";
paths = (
{
closed = 1;
nodes = (
"64 203 OFFCURVE",
"104 147 OFFCURVE",
"185 106 CURVE SMOOTH",
"289 53 LINE SMOOTH",
"340 27 OFFCURVE",
"366 -4 OFFCURVE",
"366 -39 CURVE SMOOTH",
"366 -90 OFFCURVE",
"325 -125 OFFCURVE",
"249 -125 CURVE SMOOTH",
"177 -125 OFFCURVE",
"133 -107 OFFCURVE",
"65 -67 CURVE",
"53 -154 LINE",
"110 -185 OFFCURVE",
"176 -201 OFFCURVE",
"251 -201 CURVE SMOOTH",
"378 -201 OFFCURVE",
"451 -138 OFFCURVE",
"451 -39 CURVE SMOOTH",
"451 22 OFFCURVE",
"421 71 OFFCURVE",
"360 109 CURVE",
"424 144 OFFCURVE",
"456 193 OFFCURVE",
"456 254 CURVE SMOOTH",
"456 329 OFFCURVE",
"425 384 OFFCURVE",
"334 428 CURVE SMOOTH",
"225 482 LINE SMOOTH",
"178 506 OFFCURVE",
"154 535 OFFCURVE",
"154 569 CURVE SMOOTH",
"154 613 OFFCURVE",
"192 648 OFFCURVE",
"265 648 CURVE SMOOTH",
"314 648 OFFCURVE",
"365 632 OFFCURVE",
"419 599 CURVE",
"431 682 LINE",
"382 710 OFFCURVE",
"326 724 OFFCURVE",
"264 724 CURVE SMOOTH",
"148 724 OFFCURVE",
"70 658 OFFCURVE",
"70 562 CURVE SMOOTH",
"70 505 OFFCURVE",
"98 459 OFFCURVE",
"153 424 CURVE",
"94 387 OFFCURVE",
"64 337 OFFCURVE",
"64 274 CURVE SMOOTH"
);
},
{
closed = 1;
nodes = (
"146 332 OFFCURVE",
"170 368 OFFCURVE",
"217 391 CURVE",
"303 349 LINE SMOOTH",
"350 326 OFFCURVE",
"373 294 OFFCURVE",
"373 254 CURVE SMOOTH",
"373 209 OFFCURVE",
"342 167 OFFCURVE",
"297 143 CURVE",
"219 184 LINE SMOOTH",
"170 210 OFFCURVE",
"146 244 OFFCURVE",
"146 285 CURVE SMOOTH"
);
}
);
width = 516;
}
);
note = section;
unicode = 00A7;
},
{
glyphname = dieresis;
lastChange = "2017-11-01 11:12:25 +0000";
layers = (
{
layerId = "63834EBD-EB8E-4539-93C4-16AFAF002AC8";
paths = (
{
closed = 1;
nodes = (
"131 645 OFFCURVE",
"143 640 OFFCURVE",
"157 640 CURVE SMOOTH",
"184 640 OFFCURVE",
"205 659 OFFCURVE",
"205 691 CURVE SMOOTH",
"205 723 OFFCURVE",
"184 742 OFFCURVE",
"157 742 CURVE SMOOTH",
"129 742 OFFCURVE",
"106 723 OFFCURVE",
"106 691 CURVE SMOOTH",
"106 675 OFFCURVE",
"111 663 OFFCURVE",
"121 654 CURVE SMOOTH"
);
},
{
closed = 1;
nodes = (
"320 645 OFFCURVE",
"332 640 OFFCURVE",
"346 640 CURVE SMOOTH",
"373 640 OFFCURVE",
"394 659 OFFCURVE",
"394 691 CURVE SMOOTH",
"394 723 OFFCURVE",
"373 742 OFFCURVE",
"346 742 CURVE SMOOTH",
"318 742 OFFCURVE",
"295 723 OFFCURVE",
"295 691 CURVE SMOOTH",
"295 675 OFFCURVE",
"300 663 OFFCURVE",
"310 654 CURVE SMOOTH"
);
}
);
width = 500;
}
);
note = dieresis;
unicode = 00A8;
},
{
glyphname = copyright;
lastChange = "2017-11-01 11:12:25 +0000";
layers = (
{
layerId = "63834EBD-EB8E-4539-93C4-16AFAF002AC8";
paths = (
{
closed = 1;
nodes = (
"469 143 OFFCURVE",
"508 152 OFFCURVE",
"543 169 CURVE",
"538 240 LINE",
"499 219 OFFCURVE",
"462 209 OFFCURVE",
"429 209 CURVE SMOOTH",
"352 209 OFFCURVE",
"287 264 OFFCURVE",
"287 355 CURVE SMOOTH",
"287 452 OFFCURVE",
"347 505 OFFCURVE",
"428 505 CURVE SMOOTH",
"461 505 OFFCURVE",
"496 496 OFFCURVE",
"533 477 CURVE",
"539 548 LINE",
"505 563 OFFCURVE",
"468 571 OFFCURVE",
"427 571 CURVE SMOOTH",
"304 571 OFFCURVE",
"215 487 OFFCURVE",
"215 356 CURVE SMOOTH",
"215 227 OFFCURVE",
"310 143 OFFCURVE",
"426 143 CURVE SMOOTH"
);
},
{
closed = 1;
nodes = (
"49 149 OFFCURVE",
"199 -10 OFFCURVE",
"416 -10 CURVE SMOOTH",
"628 -10 OFFCURVE",
"783 145 OFFCURVE",
"783 357 CURVE SMOOTH",
"783 565 OFFCURVE",
"631 724 OFFCURVE",
"416 724 CURVE SMOOTH",
"208 724 OFFCURVE",
"49 572 OFFCURVE",
"49 357 CURVE SMOOTH"
);
},
{
closed = 1;
nodes = (
"119 530 OFFCURVE",
"247 654 OFFCURVE",
"416 654 CURVE SMOOTH",
"589 654 OFFCURVE",
"713 525 OFFCURVE",
"713 357 CURVE SMOOTH",
"713 185 OFFCURVE",
"588 60 OFFCURVE",
"416 60 CURVE SMOOTH",
"240 60 OFFCURVE",
"119 189 OFFCURVE",
"119 357 CURVE SMOOTH"
);
}
);
width = 832;
}
);
note = copyright;
unicode = 00A9;
},
{
glyphname = ordfeminine;
lastChange = "2017-11-01 11:12:25 +0000";
layers = (
{
layerId = "63834EBD-EB8E-4539-93C4-16AFAF002AC8";
paths = (
{
closed = 1;
nodes = (
"309 330 OFFCURVE",
"303 363 OFFCURVE",
"303 392 CURVE SMOOTH",
"303 521 LINE SMOOTH",
"303 609 OFFCURVE",
"253 651 OFFCURVE",
"173 651 CURVE SMOOTH",
"130 651 OFFCURVE",
"88 640 OFFCURVE",
"49 618 CURVE",
"57 549 LINE",
"96 572 OFFCURVE",
"133 583 OFFCURVE",
"169 583 CURVE SMOOTH",
"212 583 OFFCURVE",
"234 561 OFFCURVE",
"234 518 CURVE SMOOTH",
"234 508 LINE",
"156 498 LINE SMOOTH",
"69 486 OFFCURVE",
"29 456 OFFCURVE",
"29 391 CURVE SMOOTH",
"29 328 OFFCURVE",
"72 288 OFFCURVE",
"140 288 CURVE SMOOTH",
"181 288 OFFCURVE",
"214 307 OFFCURVE",
"239 345 CURVE",
"244 320 OFFCURVE",
"248 303 OFFCURVE",
"251 294 CURVE",
"322 294 LINE"
);
},
{
closed = 1;
nodes = (
"121 347 OFFCURVE",
"101 363 OFFCURVE",
"101 391 CURVE SMOOTH",
"101 421 OFFCURVE",
"123 440 OFFCURVE",
"166 447 CURVE SMOOTH",
"234 458 LINE",
"234 439 LINE SMOOTH",
"234 384 OFFCURVE",
"203 347 OFFCURVE",
"152 347 CURVE SMOOTH"
);
}
);
width = 359;
}
);
note = ordfeminine;
unicode = 00AA;
},
{
glyphname = guillemotleft;
lastChange = "2017-11-01 11:12:25 +0000";
layers = (
{
layerId = "63834EBD-EB8E-4539-93C4-16AFAF002AC8";
paths = (
{
closed = 1;
nodes = (
"302 50 LINE",
"117 268 LINE",
"302 486 LINE",
"213 486 LINE",
"30 268 LINE",
"213 50 LINE"
);
},
{
closed = 1;
nodes = (
"496 50 LINE",
"311 268 LINE",
"496 486 LINE",
"407 486 LINE",
"224 268 LINE",
"407 50 LINE"
);
}
);
width = 516;
}
);
note = guillemotleft;
unicode = 00AB;
},
{
glyphname = logicalnot;
lastChange = "2017-11-01 11:12:25 +0000";
layers = (
{
layerId = "63834EBD-EB8E-4539-93C4-16AFAF002AC8";
paths = (
{
closed = 1;
nodes = (
"453 424 LINE",
"453 224 LINE",
"520 224 LINE",
"520 491 LINE",
"51 491 LINE",
"51 424 LINE"
);
}
);
width = 572;
}
);
note = logicalnot;
unicode = 00AC;
},
{
glyphname = uni00AD;
lastChange = "2017-11-01 11:12:25 +0000";
layers = (
{
layerId = "63834EBD-EB8E-4539-93C4-16AFAF002AC8";
paths = (
{
closed = 1;
nodes = (
"40 305 LINE",
"40 231 LINE",
"300 231 LINE",
"300 305 LINE"
);
}
);
width = 340;
}
);
note = uni00AD;
unicode = 00AD;
},
{
glyphname = registered;
lastChange = "2017-11-01 11:12:25 +0000";
layers = (
{
layerId = "63834EBD-EB8E-4539-93C4-16AFAF002AC8";
paths = (
{
closed = 1;
nodes = (
"512 149 LINE",
"593 149 LINE",
"480 322 LINE",
"531 343 OFFCURVE",
"556 381 OFFCURVE",
"556 435 CURVE SMOOTH",
"556 515 OFFCURVE",
"501 565 OFFCURVE",
"400 565 CURVE SMOOTH",
"283 565 LINE",
"283 149 LINE",
"353 149 LINE",
"353 304 LINE",
"413 304 LINE"
);
},
{
closed = 1;
nodes = (
"455 501 OFFCURVE",
"485 479 OFFCURVE",
"485 436 CURVE SMOOTH",
"485 391 OFFCURVE",
"453 369 OFFCURVE",
"388 369 CURVE SMOOTH",
"353 369 LINE",
"353 501 LINE",
"394 501 LINE SMOOTH"
);
},
{
closed = 1;
nodes = (
"49 149 OFFCURVE",
"199 -10 OFFCURVE",
"416 -10 CURVE SMOOTH",
"628 -10 OFFCURVE",
"783 145 OFFCURVE",
"783 357 CURVE SMOOTH",
"783 565 OFFCURVE",
"631 724 OFFCURVE",
"416 724 CURVE SMOOTH",
"208 724 OFFCURVE",
"49 572 OFFCURVE",
"49 357 CURVE SMOOTH"
);
},
{
closed = 1;
nodes = (
"119 530 OFFCURVE",
"247 654 OFFCURVE",
"416 654 CURVE SMOOTH",
"589 654 OFFCURVE",
"713 525 OFFCURVE",
"713 357 CURVE SMOOTH",
"713 185 OFFCURVE",
"588 60 OFFCURVE",
"416 60 CURVE SMOOTH",
"240 60 OFFCURVE",
"119 189 OFFCURVE",
"119 357 CURVE SMOOTH"
);
}
);
width = 832;
}
);
note = registered;
unicode = 00AE;
},
{
glyphname = macron;
lastChange = "2017-11-01 11:12:25 +0000";
layers = (
{
layerId = "63834EBD-EB8E-4539-93C4-16AFAF002AC8";
paths = (
{
closed = 1;
nodes = (
"394 742 LINE",
"106 742 LINE",
"106 675 LINE",
"394 675 LINE"
);
}
);
width = 500;
}
);
note = macron;
unicode = 00AF;
},
{
glyphname = degree;
lastChange = "2017-11-01 11:12:25 +0000";
layers = (
{
layerId = "63834EBD-EB8E-4539-93C4-16AFAF002AC8";
paths = (
{
closed = 1;
nodes = (
"62 483 OFFCURVE",
"127 420 OFFCURVE",
"214 420 CURVE SMOOTH",
"298 420 OFFCURVE",
"366 483 OFFCURVE",
"366 572 CURVE SMOOTH",
"366 659 OFFCURVE",
"301 724 OFFCURVE",
"214 724 CURVE SMOOTH",
"127 724 OFFCURVE",
"62 659 OFFCURVE",
"62 572 CURVE SMOOTH"
);
},
{
closed = 1;
nodes = (
"125 627 OFFCURVE",
"162 664 OFFCURVE",
"215 664 CURVE SMOOTH",
"267 664 OFFCURVE",
"303 625 OFFCURVE",
"303 572 CURVE SMOOTH",
"303 519 OFFCURVE",
"267 480 OFFCURVE",
"215 480 CURVE SMOOTH",
"163 480 OFFCURVE",
"125 516 OFFCURVE",
"125 572 CURVE SMOOTH"
);
}
);
width = 428;
}
);
note = degree;
unicode = 00B0;
},
{
glyphname = plusminus;
lastChange = "2017-11-01 11:12:25 +0000";
layers = (
{
layerId = "63834EBD-EB8E-4539-93C4-16AFAF002AC8";
paths = (
{
closed = 1;
nodes = (
"251 453 LINE",
"51 453 LINE",
"51 386 LINE",
"251 386 LINE",
"251 208 LINE",
"319 208 LINE",
"319 386 LINE",
"520 386 LINE",
"520 453 LINE",
"319 453 LINE",
"319 632 LINE",
"251 632 LINE"
);
},
{
closed = 1;
nodes = (
"520 70 LINE",
"520 137 LINE",
"51 137 LINE",
"51 70 LINE"
);
}
);
width = 572;
}
);
note = plusminus;
unicode = 00B1;
},
{
glyphname = twosuperior;
lastChange = "2017-11-01 11:12:25 +0000";
layers = (
{
layerId = "63834EBD-EB8E-4539-93C4-16AFAF002AC8";
paths = (
{
closed = 1;
nodes = (
"95 668 OFFCURVE",
"133 682 OFFCURVE",
"170 682 CURVE SMOOTH",
"215 682 OFFCURVE",
"246 656 OFFCURVE",
"246 615 CURVE SMOOTH",
"246 595 OFFCURVE",
"240 575 OFFCURVE",
"227 556 CURVE SMOOTH",
"214 536 OFFCURVE",
"188 506 OFFCURVE",
"148 466 CURVE SMOOTH",
"33 350 LINE",
"33 294 LINE",
"334 294 LINE",
"334 358 LINE",
"127 358 LINE",
"203 431 LINE SMOOTH",
"294 518 OFFCURVE",
"318 555 OFFCURVE",
"318 614 CURVE SMOOTH",
"318 695 OFFCURVE",
"259 748 OFFCURVE",
"171 748 CURVE SMOOTH",
"125 748 OFFCURVE",
"83 736 OFFCURVE",
"45 711 CURVE",
"55 641 LINE"
);
}
);
width = 367;
}
);
note = twosuperior;
unicode = 00B2;
},
{
glyphname = threesuperior;
lastChange = "2017-11-01 11:12:25 +0000";
layers = (
{
layerId = "63834EBD-EB8E-4539-93C4-16AFAF002AC8";
paths = (
{
closed = 1;
nodes = (
"75 303 OFFCURVE",
"122 288 OFFCURVE",
"173 288 CURVE SMOOTH",
"269 288 OFFCURVE",
"331 341 OFFCURVE",
"331 422 CURVE SMOOTH",
"331 477 OFFCURVE",
"293 522 OFFCURVE",
"236 531 CURVE",
"291 550 OFFCURVE",
"318 582 OFFCURVE",
"318 625 CURVE SMOOTH",
"318 696 OFFCURVE",
"256 748 OFFCURVE",
"175 748 CURVE SMOOTH",
"130 748 OFFCURVE",
"88 735 OFFCURVE",
"47 709 CURVE",
"58 639 LINE",
"99 668 OFFCURVE",
"138 682 OFFCURVE",
"175 682 CURVE SMOOTH",
"219 682 OFFCURVE",
"246 656 OFFCURVE",
"246 623 CURVE SMOOTH",
"246 584 OFFCURVE",
"214 557 OFFCURVE",
"149 557 CURVE SMOOTH",
"95 557 LINE",
"95 500 LINE",
"152 500 LINE SMOOTH",
"224 500 OFFCURVE",
"259 468 OFFCURVE",
"259 424 CURVE SMOOTH",
"259 383 OFFCURVE",
"228 354 OFFCURVE",
"173 354 CURVE SMOOTH",
"132 354 OFFCURVE",
"91 371 OFFCURVE",
"52 404 CURVE",
"32 333 LINE"
);
}
);
width = 367;
}
);
note = threesuperior;
unicode = 00B3;
},
{
glyphname = acute;
lastChange = "2017-11-01 11:12:25 +0000";
layers = (
{
layerId = "63834EBD-EB8E-4539-93C4-16AFAF002AC8";
paths = (
{
closed = 1;
nodes = (
"345 782 LINE",
"236 782 LINE",
"174 602 LINE",
"228 602 LINE"
);
}
);
width = 500;
}
);
note = acute;
unicode = 00B4;
},
{
glyphname = mu;
lastChange = "2017-11-01 11:12:25 +0000";
layers = (
{
layerId = "63834EBD-EB8E-4539-93C4-16AFAF002AC8";
paths = (
{
closed = 1;
nodes = (
"171 -220 LINE",
"171 -134 LINE",
"162 37 LINE",
"193 6 OFFCURVE",
"235 -10 OFFCURVE",
"290 -10 CURVE SMOOTH",
"361 -10 OFFCURVE",
"425 26 OFFCURVE",
"462 87 CURVE",
"462 0 LINE",
"545 0 LINE",
"545 552 LINE",
"461 552 LINE",
"461 304 LINE SMOOTH",
"461 160 OFFCURVE",
"419 66 OFFCURVE",
"303 66 CURVE SMOOTH",
"215 66 OFFCURVE",
"171 118 OFFCURVE",
"171 221 CURVE SMOOTH",
"171 552 LINE",
"88 552 LINE",
"88 -220 LINE"
);
}
);
width = 633;
}
);
note = mu;
unicode = 00B5;
},
{
glyphname = paragraph;
lastChange = "2017-11-01 11:12:25 +0000";
layers = (
{
layerId = "63834EBD-EB8E-4539-93C4-16AFAF002AC8";
paths = (
{
closed = 1;
nodes = (
"45 362 OFFCURVE",
"142 272 OFFCURVE",
"277 272 CURVE SMOOTH",
"311 272 LINE",
"311 -220 LINE",
"379 -220 LINE",
"379 646 LINE",
"451 646 LINE",
"451 -220 LINE",
"519 -220 LINE",
"519 714 LINE",
"288 714 LINE SMOOTH",
"137 714 OFFCURVE",
"45 625 OFFCURVE",
"45 493 CURVE SMOOTH"
);
}
);
width = 617;
}
);
note = paragraph;
unicode = 00B6;
},
{
glyphname = periodcentered;
lastChange = "2017-11-01 11:12:25 +0000";
layers = (
{
layerId = "63834EBD-EB8E-4539-93C4-16AFAF002AC8";
paths = (
{
closed = 1;
nodes = (
"67 323 OFFCURVE",
"94 299 OFFCURVE",
"126 299 CURVE SMOOTH",
"157 299 OFFCURVE",
"183 323 OFFCURVE",
"183 358 CURVE SMOOTH",
"183 394 OFFCURVE",
"157 417 OFFCURVE",
"126 417 CURVE SMOOTH",
"94 417 OFFCURVE",
"67 394 OFFCURVE",
"67 358 CURVE SMOOTH"
);
}
);
width = 250;
}
);
note = periodcentered;
unicode = 00B7;
},
{
glyphname = cedilla;
lastChange = "2017-11-01 11:12:25 +0000";
layers = (
{
layerId = "63834EBD-EB8E-4539-93C4-16AFAF002AC8";
paths = (
{
closed = 1;
nodes = (
"154 -230 LINE",
"263 -230 LINE",
"325 -50 LINE",
"271 -50 LINE"
);
}
);
width = 500;
}
);
note = cedilla;
unicode = 00B8;
},
{
glyphname = onesuperior;
lastChange = "2017-11-01 11:12:25 +0000";
layers = (
{
layerId = "63834EBD-EB8E-4539-93C4-16AFAF002AC8";
paths = (
{
closed = 1;
nodes = (
"36 632 LINE",
"75 579 LINE",
"110 605 LINE",
"168 657 LINE",
"168 294 LINE",
"237 294 LINE",
"237 742 LINE",
"179 742 LINE"
);
}
);
width = 317;
}
);
note = onesuperior;
unicode = 00B9;
},
{
glyphname = ordmasculine;
lastChange = "2017-11-01 11:12:25 +0000";
layers = (
{
layerId = "63834EBD-EB8E-4539-93C4-16AFAF002AC8";
paths = (
{
closed = 1;
nodes = (
"109 547 OFFCURVE",
"138 586 OFFCURVE",
"196 586 CURVE SMOOTH",
"253 586 OFFCURVE",
"289 544 OFFCURVE",
"289 471 CURVE SMOOTH",
"289 398 OFFCURVE",
"256 354 OFFCURVE",
"200 354 CURVE SMOOTH",
"144 354 OFFCURVE",
"109 396 OFFCURVE",
"109 468 CURVE SMOOTH"
);
},
{
closed = 1;
nodes = (
"362 575 OFFCURVE",
"299 651 OFFCURVE",
"199 651 CURVE SMOOTH",
"98 651 OFFCURVE",
"36 581 OFFCURVE",
"36 470 CURVE SMOOTH",
"36 359 OFFCURVE",
"106 288 OFFCURVE",
"197 288 CURVE SMOOTH",
"298 288 OFFCURVE",
"362 358 OFFCURVE",
"362 470 CURVE SMOOTH"
);
}
);
width = 397;
}
);
note = ordmasculine;
unicode = 00BA;
},
{
glyphname = guillemotright;
lastChange = "2017-11-01 11:12:25 +0000";
layers = (
{
layerId = "63834EBD-EB8E-4539-93C4-16AFAF002AC8";
paths = (
{
closed = 1;
nodes = (
"205 268 LINE",
"20 50 LINE",
"109 50 LINE",
"292 268 LINE",
"109 486 LINE",
"20 486 LINE"
);
},
{
closed = 1;
nodes = (
"399 268 LINE",
"214 50 LINE",
"303 50 LINE",
"486 268 LINE",
"303 486 LINE",
"214 486 LINE"
);
}
);
width = 516;
}
);
note = guillemotright;
unicode = 00BB;
},
{
glyphname = onequarter;
lastChange = "2017-11-01 11:12:25 +0000";
layers = (
{
layerId = "63834EBD-EB8E-4539-93C4-16AFAF002AC8";
paths = (
{
closed = 1;
nodes = (
"36 632 LINE",
"75 579 LINE",
"110 605 LINE",
"168 657 LINE",
"168 294 LINE",
"237 294 LINE",
"237 742 LINE",
"179 742 LINE"
);
},
{
closed = 1;
nodes = (
"242 0 LINE",
"700 742 LINE",
"624 742 LINE",
"166 0 LINE"
);
},
{
closed = 1;
nodes = (
"781 448 LINE",
"710 448 LINE",
"504 154 LINE",
"504 96 LINE",
"712 96 LINE",
"712 0 LINE",
"781 0 LINE",
"781 96 LINE",
"842 96 LINE",
"842 163 LINE",
"781 163 LINE"
);
},
{
closed = 1;
nodes = (
"712 357 LINE",
"712 163 LINE",
"583 163 LINE",
"648 257 LINE"
);
}
);
width = 856;
}
);
note = onequarter;
unicode = 00BC;
},
{
glyphname = onehalf;
lastChange = "2017-11-01 11:12:25 +0000";
layers = (
{
layerId = "63834EBD-EB8E-4539-93C4-16AFAF002AC8";
paths = (
{
closed = 1;
nodes = (
"36 632 LINE",
"75 579 LINE",
"110 605 LINE",
"168 657 LINE",
"168 294 LINE",
"237 294 LINE",
"237 742 LINE",
"179 742 LINE"
);
},
{
closed = 1;
nodes = (
"242 0 LINE",
"700 742 LINE",
"624 742 LINE",
"166 0 LINE"
);
},
{
closed = 1;
nodes = (
"644 374 OFFCURVE",
"682 388 OFFCURVE",
"719 388 CURVE SMOOTH",
"764 388 OFFCURVE",
"795 362 OFFCURVE",
"795 321 CURVE SMOOTH",
"795 301 OFFCURVE",
"789 281 OFFCURVE",
"776 262 CURVE SMOOTH",
"763 242 OFFCURVE",
"737 212 OFFCURVE",
"697 172 CURVE SMOOTH",
"582 56 LINE",
"582 0 LINE",
"883 0 LINE",
"883 64 LINE",
"676 64 LINE",
"752 137 LINE SMOOTH",
"843 224 OFFCURVE",
"867 261 OFFCURVE",
"867 320 CURVE SMOOTH",
"867 401 OFFCURVE",
"808 454 OFFCURVE",
"720 454 CURVE SMOOTH",
"674 454 OFFCURVE",
"632 442 OFFCURVE",
"594 417 CURVE",
"604 347 LINE"
);
}
);
width = 916;
}
);
note = onehalf;
unicode = 00BD;
},
{
glyphname = threequarters;
lastChange = "2017-11-01 11:12:25 +0000";
layers = (
{
layerId = "63834EBD-EB8E-4539-93C4-16AFAF002AC8";
paths = (
{
closed = 1;
nodes = (
"75 303 OFFCURVE",
"122 288 OFFCURVE",
"173 288 CURVE SMOOTH",
"269 288 OFFCURVE",
"331 341 OFFCURVE",
"331 422 CURVE SMOOTH",
"331 477 OFFCURVE",
"293 522 OFFCURVE",
"236 531 CURVE",
"291 550 OFFCURVE",
"318 582 OFFCURVE",
"318 625 CURVE SMOOTH",
"318 696 OFFCURVE",
"256 748 OFFCURVE",
"175 748 CURVE SMOOTH",
"130 748 OFFCURVE",
"88 735 OFFCURVE",
"47 709 CURVE",
"58 639 LINE",
"99 668 OFFCURVE",
"138 682 OFFCURVE",
"175 682 CURVE SMOOTH",
"219 682 OFFCURVE",
"246 656 OFFCURVE",
"246 623 CURVE SMOOTH",
"246 584 OFFCURVE",
"214 557 OFFCURVE",
"149 557 CURVE SMOOTH",
"95 557 LINE",
"95 500 LINE",
"152 500 LINE SMOOTH",
"224 500 OFFCURVE",
"259 468 OFFCURVE",
"259 424 CURVE SMOOTH",
"259 383 OFFCURVE",
"228 354 OFFCURVE",
"173 354 CURVE SMOOTH",
"132 354 OFFCURVE",
"91 371 OFFCURVE",
"52 404 CURVE",
"32 333 LINE"
);
},
{
closed = 1;
nodes = (
"292 0 LINE",
"750 742 LINE",
"674 742 LINE",
"216 0 LINE"
);
},
{
closed = 1;
nodes = (
"831 448 LINE",
"760 448 LINE",
"554 154 LINE",
"554 96 LINE",
"762 96 LINE",
"762 0 LINE",
"831 0 LINE",
"831 96 LINE",
"892 96 LINE",
"892 163 LINE",
"831 163 LINE"
);
},
{
closed = 1;
nodes = (
"762 357 LINE",
"762 163 LINE",
"633 163 LINE",
"698 257 LINE"
);
}
);
width = 906;
}
);
note = threequarters;
unicode = 00BE;
},
{
glyphname = questiondown;
lastChange = "2017-11-01 11:12:25 +0000";
layers = (
{
layerId = "63834EBD-EB8E-4539-93C4-16AFAF002AC8";
paths = (
{
closed = 1;
nodes = (
"306 700 OFFCURVE",
"279 724 OFFCURVE",
"247 724 CURVE SMOOTH",
"216 724 OFFCURVE",
"190 700 OFFCURVE",
"190 665 CURVE SMOOTH",
"190 629 OFFCURVE",
"216 606 OFFCURVE",
"247 606 CURVE SMOOTH",
"279 606 OFFCURVE",
"306 629 OFFCURVE",
"306 665 CURVE SMOOTH"
);
},
{
closed = 1;
nodes = (
"21 71 OFFCURVE",
"103 -10 OFFCURVE",
"236 -10 CURVE SMOOTH",
"299 -10 OFFCURVE",
"359 7 OFFCURVE",
"416 42 CURVE",
"400 120 LINE",
"348 83 OFFCURVE",
"294 65 OFFCURVE",
"237 65 CURVE SMOOTH",
"146 65 OFFCURVE",
"102 110 OFFCURVE",
"102 177 CURVE SMOOTH",
"102 212 OFFCURVE",
"126 253 OFFCURVE",
"173 298 CURVE SMOOTH",
"228 351 LINE SMOOTH",
"262 383 OFFCURVE",
"279 421 OFFCURVE",
"279 464 CURVE SMOOTH",
"279 483 OFFCURVE",
"276 501 OFFCURVE",
"269 517 CURVE",
"216 517 LINE",
"219 496 OFFCURVE",
"220 484 OFFCURVE",
"220 482 CURVE SMOOTH",
"220 453 OFFCURVE",
"206 425 OFFCURVE",
"179 400 CURVE SMOOTH",
"88 315 LINE SMOOTH",
"43 273 OFFCURVE",
"21 227 OFFCURVE",
"21 176 CURVE SMOOTH"
);
}
);
width = 429;
}
);
note = questiondown;
unicode = 00BF;
},
{
glyphname = Agrave;
lastChange = "2017-11-01 11:12:25 +0000";
layers = (
{
layerId = "63834EBD-EB8E-4539-93C4-16AFAF002AC8";
paths = (
{
closed = 1;
nodes = (
"282 714 LINE",
"5 0 LINE",
"89 0 LINE",
"162 187 LINE",
"479 187 LINE",
"552 0 LINE",
"639 0 LINE",
"363 714 LINE"
);
},
{
closed = 1;
nodes = (
"321 626 LINE",
"392 422 LINE",
"453 261 LINE",
"190 261 LINE",
"257 437 LINE"
);
},
{
closed = 1;
nodes = (
"297 754 LINE",
"351 754 LINE",
"289 934 LINE",
"180 934 LINE"
);
}
);
width = 644;
}
);
note = Agrave;
unicode = 00C0;
},
{
glyphname = Aacute;
lastChange = "2017-11-01 11:12:25 +0000";
layers = (
{
layerId = "63834EBD-EB8E-4539-93C4-16AFAF002AC8";
paths = (
{
closed = 1;
nodes = (
"282 714 LINE",
"5 0 LINE",
"89 0 LINE",
"162 187 LINE",
"479 187 LINE",
"552 0 LINE",
"639 0 LINE",
"363 714 LINE"
);
},
{
closed = 1;
nodes = (
"321 626 LINE",
"392 422 LINE",
"453 261 LINE",
"190 261 LINE",
"257 437 LINE"
);
},
{
closed = 1;
nodes = (
"467 934 LINE",
"358 934 LINE",
"296 754 LINE",
"350 754 LINE"
);
}
);
width = 644;
}
);
note = Aacute;
unicode = 00C1;
},
{
glyphname = Acircumflex;
lastChange = "2017-11-01 11:12:25 +0000";
layers = (
{
layerId = "63834EBD-EB8E-4539-93C4-16AFAF002AC8";
paths = (
{
closed = 1;
nodes = (
"282 714 LINE",
"5 0 LINE",
"89 0 LINE",
"162 187 LINE",
"479 187 LINE",
"552 0 LINE",
"639 0 LINE",
"363 714 LINE"
);
},
{
closed = 1;
nodes = (
"321 626 LINE",
"392 422 LINE",
"453 261 LINE",
"190 261 LINE",
"257 437 LINE"
);
},
{
closed = 1;
nodes = (
"320 855 LINE",
"428 754 LINE",
"486 754 LINE",
"361 934 LINE",
"280 934 LINE",
"157 754 LINE",
"213 754 LINE"
);
}
);
width = 644;
}
);
note = Acircumflex;
unicode = 00C2;
},
{
glyphname = Atilde;
lastChange = "2017-11-01 11:12:25 +0000";
layers = (
{
layerId = "63834EBD-EB8E-4539-93C4-16AFAF002AC8";
paths = (
{
closed = 1;
nodes = (
"282 714 LINE",
"5 0 LINE",
"89 0 LINE",
"162 187 LINE",
"479 187 LINE",
"552 0 LINE",
"639 0 LINE",
"363 714 LINE"
);
},
{
closed = 1;
nodes = (
"321 626 LINE",
"392 422 LINE",
"453 261 LINE",
"190 261 LINE",
"257 437 LINE"
);
},
{
closed = 1;
nodes = (
"446 788 OFFCURVE",
"479 827 OFFCURVE",
"486 891 CURVE",
"435 909 LINE",
"428 874 OFFCURVE",
"414 857 OFFCURVE",
"393 857 CURVE SMOOTH",
"383 857 OFFCURVE",
"362 865 OFFCURVE",
"331 880 CURVE SMOOTH",
"299 895 OFFCURVE",
"274 903 OFFCURVE",
"257 903 CURVE SMOOTH",
"204 903 OFFCURVE",
"164 863 OFFCURVE",
"157 798 CURVE",
"208 782 LINE",
"215 818 OFFCURVE",
"228 834 OFFCURVE",
"255 834 CURVE SMOOTH",
"266 834 OFFCURVE",
"288 826 OFFCURVE",
"321 811 CURVE SMOOTH",
"353 796 OFFCURVE",
"377 788 OFFCURVE",
"394 788 CURVE SMOOTH"
);
}
);
width = 644;
}
);
note = Atilde;
unicode = 00C3;
},
{
glyphname = Adieresis;
lastChange = "2017-11-01 11:12:25 +0000";
layers = (
{
layerId = "63834EBD-EB8E-4539-93C4-16AFAF002AC8";
paths = (
{
closed = 1;
nodes = (
"282 714 LINE",
"5 0 LINE",
"89 0 LINE",
"162 187 LINE",
"479 187 LINE",
"552 0 LINE",
"639 0 LINE",
"363 714 LINE"
);
},
{
closed = 1;
nodes = (
"321 626 LINE",
"392 422 LINE",
"453 261 LINE",
"190 261 LINE",
"257 437 LINE"
);
},
{
closed = 1;
nodes = (
"203 787 OFFCURVE",
"215 782 OFFCURVE",
"229 782 CURVE SMOOTH",
"256 782 OFFCURVE",
"277 801 OFFCURVE",
"277 833 CURVE SMOOTH",
"277 865 OFFCURVE",
"256 884 OFFCURVE",
"229 884 CURVE SMOOTH",
"201 884 OFFCURVE",
"178 865 OFFCURVE",
"178 833 CURVE SMOOTH",
"178 817 OFFCURVE",
"183 805 OFFCURVE",
"193 796 CURVE SMOOTH"
);
},
{
closed = 1;
nodes = (
"392 787 OFFCURVE",
"404 782 OFFCURVE",
"418 782 CURVE SMOOTH",
"445 782 OFFCURVE",
"466 801 OFFCURVE",
"466 833 CURVE SMOOTH",
"466 865 OFFCURVE",
"445 884 OFFCURVE",
"418 884 CURVE SMOOTH",
"390 884 OFFCURVE",
"367 865 OFFCURVE",
"367 833 CURVE SMOOTH",
"367 817 OFFCURVE",
"372 805 OFFCURVE",
"382 796 CURVE SMOOTH"
);
}
);
width = 644;
}
);
note = Adieresis;
unicode = 00C4;
},
{
glyphname = Aring;
lastChange = "2017-11-01 11:12:25 +0000";
layers = (
{
layerId = "63834EBD-EB8E-4539-93C4-16AFAF002AC8";
paths = (
{
closed = 1;
nodes = (
"431 845 OFFCURVE",
"385 891 OFFCURVE",
"321 891 CURVE SMOOTH",
"257 891 OFFCURVE",
"213 847 OFFCURVE",
"213 787 CURVE SMOOTH",
"213 738 OFFCURVE",
"233 706 OFFCURVE",
"273 691 CURVE",
"5 0 LINE",
"89 0 LINE",
"162 187 LINE",
"479 187 LINE",
"552 0 LINE",
"639 0 LINE",
"371 692 LINE",
"411 709 OFFCURVE",
"431 741 OFFCURVE",
"431 788 CURVE SMOOTH"
);
},
{
closed = 1;
nodes = (
"321 626 LINE",
"392 422 LINE",
"453 261 LINE",
"190 261 LINE",
"257 437 LINE"
);
},
{
closed = 1;
nodes = (
"352 735 OFFCURVE",
"338 730 OFFCURVE",
"321 730 CURVE SMOOTH",
"285 730 OFFCURVE",
"264 751 OFFCURVE",
"264 787 CURVE SMOOTH",
"264 820 OFFCURVE",
"288 844 OFFCURVE",
"321 844 CURVE SMOOTH",
"354 844 OFFCURVE",
"378 822 OFFCURVE",
"378 787 CURVE SMOOTH",
"378 770 OFFCURVE",
"373 756 OFFCURVE",
"363 746 CURVE SMOOTH"
);
}
);
width = 644;
}
);
note = Aring;
unicode = 00C5;
},
{
glyphname = AE;
lastChange = "2017-11-01 11:12:25 +0000";
layers = (
{
layerId = "63834EBD-EB8E-4539-93C4-16AFAF002AC8";
paths = (
{
closed = 1;
nodes = (
"610 74 LINE",
"508 337 LINE",
"747 337 LINE",
"747 411 LINE",
"480 411 LINE",
"391 640 LINE",
"766 640 LINE",
"766 714 LINE",
"282 714 LINE",
"5 0 LINE",
"89 0 LINE",
"162 187 LINE",
"479 187 LINE",
"552 0 LINE",
"776 0 LINE",
"776 74 LINE"
);
},
{
closed = 1;
nodes = (
"321 626 LINE",
"392 422 LINE",
"453 261 LINE",
"190 261 LINE",
"257 437 LINE"
);
}
);
width = 836;
}
);
note = AE;
unicode = 00C6;
},
{
glyphname = Ccedilla;
lastChange = "2017-11-01 11:12:25 +0000";
layers = (
{
layerId = "63834EBD-EB8E-4539-93C4-16AFAF002AC8";
paths = (
{
closed = 1;
nodes = (
"484 -10 OFFCURVE",
"548 2 OFFCURVE",
"600 25 CURVE",
"590 109 LINE",
"535 80 OFFCURVE",
"475 66 OFFCURVE",
"412 66 CURVE SMOOTH",
"261 66 OFFCURVE",
"147 174 OFFCURVE",
"147 354 CURVE SMOOTH",
"147 547 OFFCURVE",
"251 648 OFFCURVE",
"410 648 CURVE SMOOTH",
"470 648 OFFCURVE",
"527 634 OFFCURVE",
"581 607 CURVE",
"591 694 LINE",
"540 714 OFFCURVE",
"479 724 OFFCURVE",
"409 724 CURVE SMOOTH",
"201 724 OFFCURVE",
"59 581 OFFCURVE",
"59 356 CURVE SMOOTH",
"59 132 OFFCURVE",
"211 -10 OFFCURVE",
"407 -10 CURVE SMOOTH"
);
},
{
closed = 1;
nodes = (
"280 -230 LINE",
"389 -230 LINE",
"451 -50 LINE",
"397 -50 LINE"
);
}
);
width = 631;
}
);
note = Ccedilla;
unicode = 00C7;
},
{
glyphname = Egrave;
lastChange = "2017-11-01 11:12:25 +0000";
layers = (
{
layerId = "63834EBD-EB8E-4539-93C4-16AFAF002AC8";
paths = (
{
closed = 1;
nodes = (
"181 337 LINE",
"467 337 LINE",
"467 411 LINE",
"181 411 LINE",
"181 640 LINE",
"486 640 LINE",
"486 714 LINE",
"98 714 LINE",
"98 0 LINE",
"496 0 LINE",
"496 74 LINE",
"181 74 LINE"
);
},
{
closed = 1;
nodes = (
"289 754 LINE",
"343 754 LINE",
"281 934 LINE",
"172 934 LINE"
);
}
);
width = 556;
}
);
note = Egrave;
unicode = 00C8;
},
{
glyphname = Eacute;
lastChange = "2017-11-01 11:12:25 +0000";
layers = (
{
layerId = "63834EBD-EB8E-4539-93C4-16AFAF002AC8";
paths = (
{
closed = 1;
nodes = (
"181 337 LINE",
"467 337 LINE",
"467 411 LINE",
"181 411 LINE",
"181 640 LINE",
"486 640 LINE",
"486 714 LINE",
"98 714 LINE",
"98 0 LINE",
"496 0 LINE",
"496 74 LINE",
"181 74 LINE"
);
},
{
closed = 1;
nodes = (
"423 934 LINE",
"314 934 LINE",
"252 754 LINE",
"306 754 LINE"
);
}
);
width = 556;
}
);
note = Eacute;
unicode = 00C9;
},
{
glyphname = Ecircumflex;
lastChange = "2017-11-01 11:12:25 +0000";
layers = (
{
layerId = "63834EBD-EB8E-4539-93C4-16AFAF002AC8";
paths = (
{
closed = 1;
nodes = (
"181 337 LINE",
"467 337 LINE",
"467 411 LINE",
"181 411 LINE",
"181 640 LINE",
"486 640 LINE",
"486 714 LINE",
"98 714 LINE",
"98 0 LINE",
"496 0 LINE",
"496 74 LINE",
"181 74 LINE"
);
},
{
closed = 1;
nodes = (
"296 855 LINE",
"404 754 LINE",
"462 754 LINE",
"337 934 LINE",
"256 934 LINE",
"133 754 LINE",
"189 754 LINE"
);
}
);
width = 556;
}
);
note = Ecircumflex;
unicode = 00CA;
},
{
glyphname = Edieresis;
lastChange = "2017-11-01 11:12:25 +0000";
layers = (
{
layerId = "63834EBD-EB8E-4539-93C4-16AFAF002AC8";
paths = (
{
closed = 1;
nodes = (
"181 337 LINE",
"467 337 LINE",
"467 411 LINE",
"181 411 LINE",
"181 640 LINE",
"486 640 LINE",
"486 714 LINE",
"98 714 LINE",
"98 0 LINE",
"496 0 LINE",
"496 74 LINE",
"181 74 LINE"
);
},
{
closed = 1;
nodes = (
"179 787 OFFCURVE",
"191 782 OFFCURVE",
"205 782 CURVE SMOOTH",
"232 782 OFFCURVE",
"253 801 OFFCURVE",
"253 833 CURVE SMOOTH",
"253 865 OFFCURVE",
"232 884 OFFCURVE",
"205 884 CURVE SMOOTH",
"177 884 OFFCURVE",
"154 865 OFFCURVE",
"154 833 CURVE SMOOTH",
"154 817 OFFCURVE",
"159 805 OFFCURVE",
"169 796 CURVE SMOOTH"
);
},
{
closed = 1;
nodes = (
"368 787 OFFCURVE",
"380 782 OFFCURVE",
"394 782 CURVE SMOOTH",
"421 782 OFFCURVE",
"442 801 OFFCURVE",
"442 833 CURVE SMOOTH",
"442 865 OFFCURVE",
"421 884 OFFCURVE",
"394 884 CURVE SMOOTH",
"366 884 OFFCURVE",
"343 865 OFFCURVE",
"343 833 CURVE SMOOTH",
"343 817 OFFCURVE",
"348 805 OFFCURVE",
"358 796 CURVE SMOOTH"
);
}
);
width = 556;
}
);
note = Edieresis;
unicode = 00CB;
},
{
glyphname = Igrave;
lastChange = "2017-11-01 11:12:25 +0000";
layers = (
{
layerId = "63834EBD-EB8E-4539-93C4-16AFAF002AC8";
paths = (
{
closed = 1;
nodes = (
"98 714 LINE",
"98 0 LINE",
"181 0 LINE",
"181 714 LINE"
);
},
{
closed = 1;
nodes = (
"121 754 LINE",
"175 754 LINE",
"113 934 LINE",
"4 934 LINE"
);
}
);
width = 279;
}
);
note = Igrave;
unicode = 00CC;
},
{
glyphname = Iacute;
lastChange = "2017-11-01 11:12:25 +0000";
layers = (
{
layerId = "63834EBD-EB8E-4539-93C4-16AFAF002AC8";
paths = (
{
closed = 1;
nodes = (
"98 714 LINE",
"98 0 LINE",
"181 0 LINE",
"181 714 LINE"
);
},
{
closed = 1;
nodes = (
"275 934 LINE",
"166 934 LINE",
"104 754 LINE",
"158 754 LINE"
);
}
);
width = 279;
}
);
note = Iacute;
unicode = 00CD;
},
{
glyphname = Icircumflex;
lastChange = "2017-11-01 11:12:25 +0000";
layers = (
{
layerId = "63834EBD-EB8E-4539-93C4-16AFAF002AC8";
paths = (
{
closed = 1;
nodes = (
"98 714 LINE",
"98 0 LINE",
"181 0 LINE",
"181 714 LINE"
);
},
{
closed = 1;
nodes = (
"138 855 LINE",
"246 754 LINE",
"304 754 LINE",
"179 934 LINE",
"98 934 LINE",
"-25 754 LINE",
"31 754 LINE"
);
}
);
width = 279;
}
);
note = Icircumflex;
unicode = 00CE;
},
{
glyphname = Idieresis;
lastChange = "2017-11-01 11:12:25 +0000";
layers = (
{
layerId = "63834EBD-EB8E-4539-93C4-16AFAF002AC8";
paths = (
{
closed = 1;
nodes = (
"98 714 LINE",
"98 0 LINE",
"181 0 LINE",
"181 714 LINE"
);
},
{
closed = 1;
nodes = (
"21 787 OFFCURVE",
"33 782 OFFCURVE",
"47 782 CURVE SMOOTH",
"74 782 OFFCURVE",
"95 801 OFFCURVE",
"95 833 CURVE SMOOTH",
"95 865 OFFCURVE",
"74 884 OFFCURVE",
"47 884 CURVE SMOOTH",
"19 884 OFFCURVE",
"-4 865 OFFCURVE",
"-4 833 CURVE SMOOTH",
"-4 817 OFFCURVE",
"1 805 OFFCURVE",
"11 796 CURVE SMOOTH"
);
},
{
closed = 1;
nodes = (
"210 787 OFFCURVE",
"222 782 OFFCURVE",
"236 782 CURVE SMOOTH",
"263 782 OFFCURVE",
"284 801 OFFCURVE",
"284 833 CURVE SMOOTH",
"284 865 OFFCURVE",
"263 884 OFFCURVE",
"236 884 CURVE SMOOTH",
"208 884 OFFCURVE",
"185 865 OFFCURVE",
"185 833 CURVE SMOOTH",
"185 817 OFFCURVE",
"190 805 OFFCURVE",
"200 796 CURVE SMOOTH"
);
}
);
width = 279;
}
);
note = Idieresis;
unicode = 00CF;
},
{
glyphname = Eth;
lastChange = "2017-11-01 11:12:25 +0000";
layers = (
{
layerId = "63834EBD-EB8E-4539-93C4-16AFAF002AC8";
paths = (
{
closed = 1;
nodes = (
"106 0 LINE",
"290 0 LINE SMOOTH",
"502 0 OFFCURVE",
"646 135 OFFCURVE",
"646 356 CURVE SMOOTH",
"646 577 OFFCURVE",
"511 714 OFFCURVE",
"295 714 CURVE SMOOTH",
"106 714 LINE",
"106 390 LINE",
"9 390 LINE",
"9 322 LINE",
"106 322 LINE"
);
},
{
closed = 1;
nodes = (
"462 642 OFFCURVE",
"558 545 OFFCURVE",
"558 354 CURVE SMOOTH",
"558 177 OFFCURVE",
"453 72 OFFCURVE",
"290 72 CURVE SMOOTH",
"189 72 LINE",
"189 322 LINE",
"401 322 LINE",
"401 390 LINE",
"189 390 LINE",
"189 642 LINE",
"305 642 LINE SMOOTH"
);
}
);
width = 708;
}
);
note = Eth;
unicode = 00D0;
},
{
glyphname = Ntilde;
lastChange = "2017-11-01 11:12:25 +0000";
layers = (
{
layerId = "63834EBD-EB8E-4539-93C4-16AFAF002AC8";
paths = (
{
closed = 1;
nodes = (
"576 714 LINE",
"576 406 LINE",
"580 172 LINE",
"183 714 LINE",
"98 714 LINE",
"98 0 LINE",
"177 0 LINE",
"177 367 LINE",
"173 597 LINE",
"595 0 LINE",
"656 0 LINE",
"656 714 LINE"
);
},
{
closed = 1;
nodes = (
"501 788 OFFCURVE",
"534 827 OFFCURVE",
"541 891 CURVE",
"490 909 LINE",
"483 874 OFFCURVE",
"469 857 OFFCURVE",
"448 857 CURVE SMOOTH",
"438 857 OFFCURVE",
"417 865 OFFCURVE",
"386 880 CURVE SMOOTH",
"354 895 OFFCURVE",
"329 903 OFFCURVE",
"312 903 CURVE SMOOTH",
"259 903 OFFCURVE",
"219 863 OFFCURVE",
"212 798 CURVE",
"263 782 LINE",
"270 818 OFFCURVE",
"283 834 OFFCURVE",
"310 834 CURVE SMOOTH",
"321 834 OFFCURVE",
"343 826 OFFCURVE",
"376 811 CURVE SMOOTH",
"408 796 OFFCURVE",
"432 788 OFFCURVE",
"449 788 CURVE SMOOTH"
);
}
);
width = 754;
}
);
note = Ntilde;
unicode = 00D1;
},
{
glyphname = Ograve;
lastChange = "2017-11-01 11:12:25 +0000";
layers = (
{
layerId = "63834EBD-EB8E-4539-93C4-16AFAF002AC8";
paths = (
{
closed = 1;
nodes = (
"150 545 OFFCURVE",
"237 648 OFFCURVE",
"384 648 CURVE SMOOTH",
"527 648 OFFCURVE",
"630 538 OFFCURVE",
"630 361 CURVE SMOOTH",
"630 184 OFFCURVE",
"535 66 OFFCURVE",
"394 66 CURVE SMOOTH",
"249 66 OFFCURVE",
"150 175 OFFCURVE",
"150 354 CURVE SMOOTH"
);
},
{
closed = 1;
nodes = (
"717 568 OFFCURVE",
"591 724 OFFCURVE",
"391 724 CURVE SMOOTH",
"190 724 OFFCURVE",
"62 578 OFFCURVE",
"62 357 CURVE SMOOTH",
"62 136 OFFCURVE",
"204 -10 OFFCURVE",
"387 -10 CURVE SMOOTH",
"590 -10 OFFCURVE",
"717 138 OFFCURVE",
"717 357 CURVE SMOOTH"
);
},
{
closed = 1;
nodes = (
"371 754 LINE",
"425 754 LINE",
"363 934 LINE",
"254 934 LINE"
);
}
);
width = 779;
}
);
note = Ograve;
unicode = 00D2;
},
{
glyphname = Oacute;
lastChange = "2017-11-01 11:12:25 +0000";
layers = (
{
layerId = "63834EBD-EB8E-4539-93C4-16AFAF002AC8";
paths = (
{
closed = 1;
nodes = (
"150 545 OFFCURVE",
"237 648 OFFCURVE",
"384 648 CURVE SMOOTH",
"527 648 OFFCURVE",
"630 538 OFFCURVE",
"630 361 CURVE SMOOTH",
"630 184 OFFCURVE",
"535 66 OFFCURVE",
"394 66 CURVE SMOOTH",
"249 66 OFFCURVE",
"150 175 OFFCURVE",
"150 354 CURVE SMOOTH"
);
},
{
closed = 1;
nodes = (
"717 568 OFFCURVE",
"591 724 OFFCURVE",
"391 724 CURVE SMOOTH",
"190 724 OFFCURVE",
"62 578 OFFCURVE",
"62 357 CURVE SMOOTH",
"62 136 OFFCURVE",
"204 -10 OFFCURVE",
"387 -10 CURVE SMOOTH",
"590 -10 OFFCURVE",
"717 138 OFFCURVE",
"717 357 CURVE SMOOTH"
);
},
{
closed = 1;
nodes = (
"525 934 LINE",
"416 934 LINE",
"354 754 LINE",
"408 754 LINE"
);
}
);
width = 779;
}
);
note = Oacute;
unicode = 00D3;
},
{
glyphname = Ocircumflex;
lastChange = "2017-11-01 11:12:25 +0000";
layers = (
{
layerId = "63834EBD-EB8E-4539-93C4-16AFAF002AC8";
paths = (
{
closed = 1;
nodes = (
"150 545 OFFCURVE",
"237 648 OFFCURVE",
"384 648 CURVE SMOOTH",
"527 648 OFFCURVE",
"630 538 OFFCURVE",
"630 361 CURVE SMOOTH",
"630 184 OFFCURVE",
"535 66 OFFCURVE",
"394 66 CURVE SMOOTH",
"249 66 OFFCURVE",
"150 175 OFFCURVE",
"150 354 CURVE SMOOTH"
);
},
{
closed = 1;
nodes = (
"717 568 OFFCURVE",
"591 724 OFFCURVE",
"391 724 CURVE SMOOTH",
"190 724 OFFCURVE",
"62 578 OFFCURVE",
"62 357 CURVE SMOOTH",
"62 136 OFFCURVE",
"204 -10 OFFCURVE",
"387 -10 CURVE SMOOTH",
"590 -10 OFFCURVE",
"717 138 OFFCURVE",
"717 357 CURVE SMOOTH"
);
},
{
closed = 1;
nodes = (
"388 855 LINE",
"496 754 LINE",
"554 754 LINE",
"429 934 LINE",
"348 934 LINE",
"225 754 LINE",
"281 754 LINE"
);
}
);
width = 779;
}
);
note = Ocircumflex;
unicode = 00D4;
},
{
glyphname = Otilde;
lastChange = "2017-11-01 11:12:25 +0000";
layers = (
{
layerId = "63834EBD-EB8E-4539-93C4-16AFAF002AC8";
paths = (
{
closed = 1;
nodes = (
"150 545 OFFCURVE",
"237 648 OFFCURVE",
"384 648 CURVE SMOOTH",
"527 648 OFFCURVE",
"630 538 OFFCURVE",
"630 361 CURVE SMOOTH",
"630 184 OFFCURVE",
"535 66 OFFCURVE",
"394 66 CURVE SMOOTH",
"249 66 OFFCURVE",
"150 175 OFFCURVE",
"150 354 CURVE SMOOTH"
);
},
{
closed = 1;
nodes = (
"717 568 OFFCURVE",
"591 724 OFFCURVE",
"391 724 CURVE SMOOTH",
"190 724 OFFCURVE",
"62 578 OFFCURVE",
"62 357 CURVE SMOOTH",
"62 136 OFFCURVE",
"204 -10 OFFCURVE",
"387 -10 CURVE SMOOTH",
"590 -10 OFFCURVE",
"717 138 OFFCURVE",
"717 357 CURVE SMOOTH"
);
},
{
closed = 1;
nodes = (
"514 788 OFFCURVE",
"547 827 OFFCURVE",
"554 891 CURVE",
"503 909 LINE",
"496 874 OFFCURVE",
"482 857 OFFCURVE",
"461 857 CURVE SMOOTH",
"451 857 OFFCURVE",
"430 865 OFFCURVE",
"399 880 CURVE SMOOTH",
"367 895 OFFCURVE",
"342 903 OFFCURVE",
"325 903 CURVE SMOOTH",
"272 903 OFFCURVE",
"232 863 OFFCURVE",
"225 798 CURVE",
"276 782 LINE",
"283 818 OFFCURVE",
"296 834 OFFCURVE",
"323 834 CURVE SMOOTH",
"334 834 OFFCURVE",
"356 826 OFFCURVE",
"389 811 CURVE SMOOTH",
"421 796 OFFCURVE",
"445 788 OFFCURVE",
"462 788 CURVE SMOOTH"
);
}
);
width = 779;
}
);
note = Otilde;
unicode = 00D5;
},
{
glyphname = Odieresis;
lastChange = "2017-11-01 11:12:25 +0000";
layers = (
{
layerId = "63834EBD-EB8E-4539-93C4-16AFAF002AC8";
paths = (
{
closed = 1;
nodes = (
"150 545 OFFCURVE",
"237 648 OFFCURVE",
"384 648 CURVE SMOOTH",
"527 648 OFFCURVE",
"630 538 OFFCURVE",
"630 361 CURVE SMOOTH",
"630 184 OFFCURVE",
"535 66 OFFCURVE",
"394 66 CURVE SMOOTH",
"249 66 OFFCURVE",
"150 175 OFFCURVE",
"150 354 CURVE SMOOTH"
);
},
{
closed = 1;
nodes = (
"717 568 OFFCURVE",
"591 724 OFFCURVE",
"391 724 CURVE SMOOTH",
"190 724 OFFCURVE",
"62 578 OFFCURVE",
"62 357 CURVE SMOOTH",
"62 136 OFFCURVE",
"204 -10 OFFCURVE",
"387 -10 CURVE SMOOTH",
"590 -10 OFFCURVE",
"717 138 OFFCURVE",
"717 357 CURVE SMOOTH"
);
},
{
closed = 1;
nodes = (
"270 787 OFFCURVE",
"282 782 OFFCURVE",
"296 782 CURVE SMOOTH",
"323 782 OFFCURVE",
"344 801 OFFCURVE",
"344 833 CURVE SMOOTH",
"344 865 OFFCURVE",
"323 884 OFFCURVE",
"296 884 CURVE SMOOTH",
"268 884 OFFCURVE",
"245 865 OFFCURVE",
"245 833 CURVE SMOOTH",
"245 817 OFFCURVE",
"250 805 OFFCURVE",
"260 796 CURVE SMOOTH"
);
},
{
closed = 1;
nodes = (
"459 787 OFFCURVE",
"471 782 OFFCURVE",
"485 782 CURVE SMOOTH",
"512 782 OFFCURVE",
"533 801 OFFCURVE",
"533 833 CURVE SMOOTH",
"533 865 OFFCURVE",
"512 884 OFFCURVE",
"485 884 CURVE SMOOTH",
"457 884 OFFCURVE",
"434 865 OFFCURVE",
"434 833 CURVE SMOOTH",
"434 817 OFFCURVE",
"439 805 OFFCURVE",
"449 796 CURVE SMOOTH"
);
}
);
width = 779;
}
);
note = Odieresis;
unicode = 00D6;
},
{
glyphname = multiply;
lastChange = "2017-11-01 11:12:25 +0000";
layers = (
{
layerId = "63834EBD-EB8E-4539-93C4-16AFAF002AC8";
paths = (
{
closed = 1;
nodes = (
"238 357 LINE",
"96 216 LINE",
"144 168 LINE",
"285 310 LINE",
"432 163 LINE",
"480 211 LINE",
"333 358 LINE",
"475 500 LINE",
"428 548 LINE",
"286 405 LINE",
"138 553 LINE",
"90 505 LINE"
);
}
);
width = 572;
}
);
note = multiply;
unicode = 00D7;
},
{
glyphname = Oslash;
lastChange = "2017-11-01 11:12:25 +0000";
layers = (
{
layerId = "63834EBD-EB8E-4539-93C4-16AFAF002AC8";
paths = (
{
closed = 1;
nodes = (
"284 2 OFFCURVE",
"334 -10 OFFCURVE",
"387 -10 CURVE SMOOTH",
"590 -10 OFFCURVE",
"717 138 OFFCURVE",
"717 357 CURVE SMOOTH",
"717 482 OFFCURVE",
"678 580 OFFCURVE",
"599 649 CURVE",
"667 768 LINE",
"608 802 LINE",
"542 688 LINE",
"497 712 OFFCURVE",
"447 724 OFFCURVE",
"391 724 CURVE SMOOTH",
"190 724 OFFCURVE",
"62 578 OFFCURVE",
"62 357 CURVE SMOOTH",
"62 230 OFFCURVE",
"102 133 OFFCURVE",
"183 64 CURVE",
"115 -54 LINE",
"174 -88 LINE",
"239 25 LINE"
);
},
{
closed = 1;
nodes = (
"150 545 OFFCURVE",
"237 648 OFFCURVE",
"384 648 CURVE SMOOTH",
"426 648 OFFCURVE",
"465 638 OFFCURVE",
"502 618 CURVE",
"224 135 LINE",
"175 188 OFFCURVE",
"150 261 OFFCURVE",
"150 354 CURVE SMOOTH"
);
},
{
closed = 1;
nodes = (
"630 184 OFFCURVE",
"535 66 OFFCURVE",
"394 66 CURVE SMOOTH",
"351 66 OFFCURVE",
"312 75 OFFCURVE",
"278 93 CURVE",
"556 575 LINE",
"605 522 OFFCURVE",
"630 451 OFFCURVE",
"630 361 CURVE SMOOTH"
);
}
);
width = 779;
}
);
note = Oslash;
unicode = 00D8;
},
{
glyphname = Ugrave;
lastChange = "2017-11-01 11:12:25 +0000";
layers = (
{
layerId = "63834EBD-EB8E-4539-93C4-16AFAF002AC8";
paths = (
{
closed = 1;
nodes = (
"525 134 OFFCURVE",
"454 68 OFFCURVE",
"345 68 CURVE SMOOTH",
"237 68 OFFCURVE",
"167 133 OFFCURVE",
"167 248 CURVE SMOOTH",
"167 714 LINE",
"84 714 LINE",
"84 255 LINE SMOOTH",
"84 87 OFFCURVE",
"186 -10 OFFCURVE",
"345 -10 CURVE SMOOTH",
"504 -10 OFFCURVE",
"606 87 OFFCURVE",
"606 255 CURVE SMOOTH",
"606 714 LINE",
"525 714 LINE",
"525 249 LINE SMOOTH"
);
},
{
closed = 1;
nodes = (
"326 754 LINE",
"380 754 LINE",
"318 934 LINE",
"209 934 LINE"
);
}
);
width = 690;
}
);
note = Ugrave;
unicode = 00D9;
},
{
glyphname = Uacute;
lastChange = "2017-11-01 11:12:25 +0000";
layers = (
{
layerId = "63834EBD-EB8E-4539-93C4-16AFAF002AC8";
paths = (
{
closed = 1;
nodes = (
"525 134 OFFCURVE",
"454 68 OFFCURVE",
"345 68 CURVE SMOOTH",
"237 68 OFFCURVE",
"167 133 OFFCURVE",
"167 248 CURVE SMOOTH",
"167 714 LINE",
"84 714 LINE",
"84 255 LINE SMOOTH",
"84 87 OFFCURVE",
"186 -10 OFFCURVE",
"345 -10 CURVE SMOOTH",
"504 -10 OFFCURVE",
"606 87 OFFCURVE",
"606 255 CURVE SMOOTH",
"606 714 LINE",
"525 714 LINE",
"525 249 LINE SMOOTH"
);
},
{
closed = 1;
nodes = (
"480 934 LINE",
"371 934 LINE",
"309 754 LINE",
"363 754 LINE"
);
}
);
width = 690;
}
);
note = Uacute;
unicode = 00DA;
},
{
glyphname = Ucircumflex;
lastChange = "2017-11-01 11:12:25 +0000";
layers = (
{
layerId = "63834EBD-EB8E-4539-93C4-16AFAF002AC8";
paths = (
{
closed = 1;
nodes = (
"525 134 OFFCURVE",
"454 68 OFFCURVE",
"345 68 CURVE SMOOTH",
"237 68 OFFCURVE",
"167 133 OFFCURVE",
"167 248 CURVE SMOOTH",
"167 714 LINE",
"84 714 LINE",
"84 255 LINE SMOOTH",
"84 87 OFFCURVE",
"186 -10 OFFCURVE",
"345 -10 CURVE SMOOTH",
"504 -10 OFFCURVE",
"606 87 OFFCURVE",
"606 255 CURVE SMOOTH",
"606 714 LINE",
"525 714 LINE",
"525 249 LINE SMOOTH"
);
},
{
closed = 1;
nodes = (
"343 855 LINE",
"451 754 LINE",
"509 754 LINE",
"384 934 LINE",
"303 934 LINE",
"180 754 LINE",
"236 754 LINE"
);
}
);
width = 690;
}
);
note = Ucircumflex;
unicode = 00DB;
},
{
glyphname = Udieresis;
lastChange = "2017-11-01 11:12:25 +0000";
layers = (
{
layerId = "63834EBD-EB8E-4539-93C4-16AFAF002AC8";
paths = (
{
closed = 1;
nodes = (
"525 134 OFFCURVE",
"454 68 OFFCURVE",
"345 68 CURVE SMOOTH",
"237 68 OFFCURVE",
"167 133 OFFCURVE",
"167 248 CURVE SMOOTH",
"167 714 LINE",
"84 714 LINE",
"84 255 LINE SMOOTH",
"84 87 OFFCURVE",
"186 -10 OFFCURVE",
"345 -10 CURVE SMOOTH",
"504 -10 OFFCURVE",
"606 87 OFFCURVE",
"606 255 CURVE SMOOTH",
"606 714 LINE",
"525 714 LINE",
"525 249 LINE SMOOTH"
);
},
{
closed = 1;
nodes = (
"226 787 OFFCURVE",
"238 782 OFFCURVE",
"252 782 CURVE SMOOTH",
"279 782 OFFCURVE",
"300 801 OFFCURVE",
"300 833 CURVE SMOOTH",
"300 865 OFFCURVE",
"279 884 OFFCURVE",
"252 884 CURVE SMOOTH",
"224 884 OFFCURVE",
"201 865 OFFCURVE",
"201 833 CURVE SMOOTH",
"201 817 OFFCURVE",
"206 805 OFFCURVE",
"216 796 CURVE SMOOTH"
);
},
{
closed = 1;
nodes = (
"415 787 OFFCURVE",
"427 782 OFFCURVE",
"441 782 CURVE SMOOTH",
"468 782 OFFCURVE",
"489 801 OFFCURVE",
"489 833 CURVE SMOOTH",
"489 865 OFFCURVE",
"468 884 OFFCURVE",
"441 884 CURVE SMOOTH",
"413 884 OFFCURVE",
"390 865 OFFCURVE",
"390 833 CURVE SMOOTH",
"390 817 OFFCURVE",
"395 805 OFFCURVE",
"405 796 CURVE SMOOTH"
);
}
);
width = 690;
}
);
note = Udieresis;
unicode = 00DC;
},
{
glyphname = Yacute;
lastChange = "2017-11-01 11:12:25 +0000";
layers = (
{
layerId = "63834EBD-EB8E-4539-93C4-16AFAF002AC8";
paths = (
{
closed = 1;
nodes = (
"250 303 LINE",
"250 0 LINE",
"334 0 LINE",
"334 307 LINE",
"572 714 LINE",
"482 714 LINE",
"292 389 LINE",
"103 714 LINE",
"12 714 LINE"
);
},
{
closed = 1;
nodes = (
"427 934 LINE",
"318 934 LINE",
"256 754 LINE",
"310 754 LINE"
);
}
);
width = 584;
}
);
note = Yacute;
unicode = 00DD;
},
{
glyphname = Thorn;
lastChange = "2017-11-01 11:12:25 +0000";
layers = (
{
layerId = "63834EBD-EB8E-4539-93C4-16AFAF002AC8";
paths = (
{
closed = 1;
nodes = (
"456 141 OFFCURVE",
"551 213 OFFCURVE",
"551 357 CURVE SMOOTH",
"551 489 OFFCURVE",
"458 572 OFFCURVE",
"289 572 CURVE SMOOTH",
"181 572 LINE",
"181 714 LINE",
"98 714 LINE",
"98 0 LINE",
"181 0 LINE",
"181 141 LINE",
"267 141 LINE SMOOTH"
);
},
{
closed = 1;
nodes = (
"401 498 OFFCURVE",
"465 446 OFFCURVE",
"465 358 CURVE SMOOTH",
"465 263 OFFCURVE",
"399 215 OFFCURVE",
"267 215 CURVE SMOOTH",
"181 215 LINE",
"181 498 LINE",
"278 498 LINE SMOOTH"
);
}
);
width = 596;
}
);
note = Thorn;
unicode = 00DE;
},
{
glyphname = germandbls;
lastChange = "2017-11-01 11:12:25 +0000";
layers = (
{
layerId = "63834EBD-EB8E-4539-93C4-16AFAF002AC8";
paths = (
{
closed = 1;
nodes = (
"584 200 OFFCURVE",
"555 250 OFFCURVE",
"497 289 CURVE SMOOTH",
"427 338 LINE SMOOTH",
"387 366 OFFCURVE",
"372 381 OFFCURVE",
"372 406 CURVE SMOOTH",
"372 425 OFFCURVE",
"383 444 OFFCURVE",
"406 465 CURVE SMOOTH",
"438 495 LINE SMOOTH",
"470 525 OFFCURVE",
"486 561 OFFCURVE",
"486 604 CURVE SMOOTH",
"486 695 OFFCURVE",
"418 762 OFFCURVE",
"299 762 CURVE SMOOTH",
"162 762 OFFCURVE",
"88 671 OFFCURVE",
"88 550 CURVE SMOOTH",
"88 0 LINE",
"171 0 LINE",
"171 550 LINE SMOOTH",
"171 627 OFFCURVE",
"211 686 OFFCURVE",
"299 686 CURVE SMOOTH",
"366 686 OFFCURVE",
"402 648 OFFCURVE",
"402 603 CURVE SMOOTH",
"402 576 OFFCURVE",
"392 553 OFFCURVE",
"371 532 CURVE SMOOTH",
"337 498 LINE SMOOTH",
"307 468 OFFCURVE",
"292 434 OFFCURVE",
"292 397 CURVE SMOOTH",
"292 352 OFFCURVE",
"317 312 OFFCURVE",
"368 277 CURVE SMOOTH",
"446 223 LINE SMOOTH",
"481 199 OFFCURVE",
"499 172 OFFCURVE",
"499 141 CURVE SMOOTH",
"499 97 OFFCURVE",
"466 66 OFFCURVE",
"407 66 CURVE SMOOTH",
"352 66 OFFCURVE",
"302 82 OFFCURVE",
"257 113 CURVE",
"246 25 LINE",
"289 2 OFFCURVE",
"343 -10 OFFCURVE",
"406 -10 CURVE SMOOTH",
"513 -10 OFFCURVE",
"584 49 OFFCURVE",
"584 141 CURVE SMOOTH"
);
}
);
width = 632;
}
);
note = germandbls;
unicode = 00DF;
},
{
glyphname = agrave;
lastChange = "2017-11-01 11:12:25 +0000";
layers = (
{
layerId = "63834EBD-EB8E-4539-93C4-16AFAF002AC8";
paths = (
{
closed = 1;
nodes = (
"391 46 OFFCURVE",
"397 19 OFFCURVE",
"404 0 CURVE",
"495 0 LINE",
"478 51 OFFCURVE",
"469 100 OFFCURVE",
"469 147 CURVE SMOOTH",
"469 361 LINE SMOOTH",
"469 496 OFFCURVE",
"392 562 OFFCURVE",
"269 562 CURVE SMOOTH",
"208 562 OFFCURVE",
"145 546 OFFCURVE",
"80 513 CURVE",
"90 430 LINE",
"151 465 OFFCURVE",
"208 482 OFFCURVE",
"261 482 CURVE SMOOTH",
"345 482 OFFCURVE",
"386 444 OFFCURVE",
"386 356 CURVE SMOOTH",
"386 337 LINE",
"243 314 LINE SMOOTH",
"108 293 OFFCURVE",
"44 242 OFFCURVE",
"44 145 CURVE SMOOTH",
"44 49 OFFCURVE",
"109 -10 OFFCURVE",
"213 -10 CURVE SMOOTH",
"285 -10 OFFCURVE",
"343 21 OFFCURVE",
"386 83 CURVE"
);
},
{
closed = 1;
nodes = (
"386 140 OFFCURVE",
"333 64 OFFCURVE",
"232 64 CURVE SMOOTH",
"169 64 OFFCURVE",
"131 95 OFFCURVE",
"131 150 CURVE SMOOTH",
"131 205 OFFCURVE",
"171 233 OFFCURVE",
"254 246 CURVE SMOOTH",
"386 268 LINE",
"386 260 LINE SMOOTH"
);
},
{
closed = 1;
nodes = (
"251 602 LINE",
"305 602 LINE",
"243 782 LINE",
"134 782 LINE"
);
}
);
width = 559;
}
);
note = agrave;
unicode = 00E0;
},
{
glyphname = aacute;
lastChange = "2017-11-01 11:12:25 +0000";
layers = (
{
layerId = "63834EBD-EB8E-4539-93C4-16AFAF002AC8";
paths = (
{
closed = 1;
nodes = (
"391 46 OFFCURVE",
"397 19 OFFCURVE",
"404 0 CURVE",
"495 0 LINE",
"478 51 OFFCURVE",
"469 100 OFFCURVE",
"469 147 CURVE SMOOTH",
"469 361 LINE SMOOTH",
"469 496 OFFCURVE",
"392 562 OFFCURVE",
"269 562 CURVE SMOOTH",
"208 562 OFFCURVE",
"145 546 OFFCURVE",
"80 513 CURVE",
"90 430 LINE",
"151 465 OFFCURVE",
"208 482 OFFCURVE",
"261 482 CURVE SMOOTH",
"345 482 OFFCURVE",
"386 444 OFFCURVE",
"386 356 CURVE SMOOTH",
"386 337 LINE",
"243 314 LINE SMOOTH",
"108 293 OFFCURVE",
"44 242 OFFCURVE",
"44 145 CURVE SMOOTH",
"44 49 OFFCURVE",
"109 -10 OFFCURVE",
"213 -10 CURVE SMOOTH",
"285 -10 OFFCURVE",
"343 21 OFFCURVE",
"386 83 CURVE"
);
},
{
closed = 1;
nodes = (
"386 140 OFFCURVE",
"333 64 OFFCURVE",
"232 64 CURVE SMOOTH",
"169 64 OFFCURVE",
"131 95 OFFCURVE",
"131 150 CURVE SMOOTH",
"131 205 OFFCURVE",
"171 233 OFFCURVE",
"254 246 CURVE SMOOTH",
"386 268 LINE",
"386 260 LINE SMOOTH"
);
},
{
closed = 1;
nodes = (
"415 782 LINE",
"306 782 LINE",
"244 602 LINE",
"298 602 LINE"
);
}
);
width = 559;
}
);
note = aacute;
unicode = 00E1;
},
{
glyphname = acircumflex;
lastChange = "2017-11-01 11:12:25 +0000";
layers = (
{
layerId = "63834EBD-EB8E-4539-93C4-16AFAF002AC8";
paths = (
{
closed = 1;
nodes = (
"391 46 OFFCURVE",
"397 19 OFFCURVE",
"404 0 CURVE",
"495 0 LINE",
"478 51 OFFCURVE",
"469 100 OFFCURVE",
"469 147 CURVE SMOOTH",
"469 361 LINE SMOOTH",
"469 496 OFFCURVE",
"392 562 OFFCURVE",
"269 562 CURVE SMOOTH",
"208 562 OFFCURVE",
"145 546 OFFCURVE",
"80 513 CURVE",
"90 430 LINE",
"151 465 OFFCURVE",
"208 482 OFFCURVE",
"261 482 CURVE SMOOTH",
"345 482 OFFCURVE",
"386 444 OFFCURVE",
"386 356 CURVE SMOOTH",
"386 337 LINE",
"243 314 LINE SMOOTH",
"108 293 OFFCURVE",
"44 242 OFFCURVE",
"44 145 CURVE SMOOTH",
"44 49 OFFCURVE",
"109 -10 OFFCURVE",
"213 -10 CURVE SMOOTH",
"285 -10 OFFCURVE",
"343 21 OFFCURVE",
"386 83 CURVE"
);
},
{
closed = 1;
nodes = (
"386 140 OFFCURVE",
"333 64 OFFCURVE",
"232 64 CURVE SMOOTH",
"169 64 OFFCURVE",
"131 95 OFFCURVE",
"131 150 CURVE SMOOTH",
"131 205 OFFCURVE",
"171 233 OFFCURVE",
"254 246 CURVE SMOOTH",
"386 268 LINE",
"386 260 LINE SMOOTH"
);
},
{
closed = 1;
nodes = (
"268 703 LINE",
"376 602 LINE",
"434 602 LINE",
"309 782 LINE",
"228 782 LINE",
"105 602 LINE",
"161 602 LINE"
);
}
);
width = 559;
}
);
note = acircumflex;
unicode = 00E2;
},
{
glyphname = atilde;
lastChange = "2017-11-01 11:12:25 +0000";
layers = (
{
layerId = "63834EBD-EB8E-4539-93C4-16AFAF002AC8";
paths = (
{
closed = 1;
nodes = (
"391 46 OFFCURVE",
"397 19 OFFCURVE",
"404 0 CURVE",
"495 0 LINE",
"478 51 OFFCURVE",
"469 100 OFFCURVE",
"469 147 CURVE SMOOTH",
"469 361 LINE SMOOTH",
"469 496 OFFCURVE",
"392 562 OFFCURVE",
"269 562 CURVE SMOOTH",
"208 562 OFFCURVE",
"145 546 OFFCURVE",
"80 513 CURVE",
"90 430 LINE",
"151 465 OFFCURVE",
"208 482 OFFCURVE",
"261 482 CURVE SMOOTH",
"345 482 OFFCURVE",
"386 444 OFFCURVE",
"386 356 CURVE SMOOTH",
"386 337 LINE",
"243 314 LINE SMOOTH",
"108 293 OFFCURVE",
"44 242 OFFCURVE",
"44 145 CURVE SMOOTH",
"44 49 OFFCURVE",
"109 -10 OFFCURVE",
"213 -10 CURVE SMOOTH",
"285 -10 OFFCURVE",
"343 21 OFFCURVE",
"386 83 CURVE"
);
},
{
closed = 1;
nodes = (
"386 140 OFFCURVE",
"333 64 OFFCURVE",
"232 64 CURVE SMOOTH",
"169 64 OFFCURVE",
"131 95 OFFCURVE",
"131 150 CURVE SMOOTH",
"131 205 OFFCURVE",
"171 233 OFFCURVE",
"254 246 CURVE SMOOTH",
"386 268 LINE",
"386 260 LINE SMOOTH"
);
},
{
closed = 1;
nodes = (
"394 636 OFFCURVE",
"427 675 OFFCURVE",
"434 739 CURVE",
"383 757 LINE",
"376 722 OFFCURVE",
"362 705 OFFCURVE",
"341 705 CURVE SMOOTH",
"331 705 OFFCURVE",
"310 713 OFFCURVE",
"279 728 CURVE SMOOTH",
"247 743 OFFCURVE",
"222 751 OFFCURVE",
"205 751 CURVE SMOOTH",
"152 751 OFFCURVE",
"112 711 OFFCURVE",
"105 646 CURVE",
"156 630 LINE",
"163 666 OFFCURVE",
"176 682 OFFCURVE",
"203 682 CURVE SMOOTH",
"214 682 OFFCURVE",
"236 674 OFFCURVE",
"269 659 CURVE SMOOTH",
"301 644 OFFCURVE",
"325 636 OFFCURVE",
"342 636 CURVE SMOOTH"
);
}
);
width = 559;
}
);
note = atilde;
unicode = 00E3;
},
{
glyphname = adieresis;
lastChange = "2017-11-01 11:12:25 +0000";
layers = (
{
layerId = "63834EBD-EB8E-4539-93C4-16AFAF002AC8";
paths = (
{
closed = 1;
nodes = (
"391 46 OFFCURVE",
"397 19 OFFCURVE",
"404 0 CURVE",
"495 0 LINE",
"478 51 OFFCURVE",
"469 100 OFFCURVE",
"469 147 CURVE SMOOTH",
"469 361 LINE SMOOTH",
"469 496 OFFCURVE",
"392 562 OFFCURVE",
"269 562 CURVE SMOOTH",
"208 562 OFFCURVE",
"145 546 OFFCURVE",
"80 513 CURVE",
"90 430 LINE",
"151 465 OFFCURVE",
"208 482 OFFCURVE",
"261 482 CURVE SMOOTH",
"345 482 OFFCURVE",
"386 444 OFFCURVE",
"386 356 CURVE SMOOTH",
"386 337 LINE",
"243 314 LINE SMOOTH",
"108 293 OFFCURVE",
"44 242 OFFCURVE",
"44 145 CURVE SMOOTH",
"44 49 OFFCURVE",
"109 -10 OFFCURVE",
"213 -10 CURVE SMOOTH",
"285 -10 OFFCURVE",
"343 21 OFFCURVE",
"386 83 CURVE"
);
},
{
closed = 1;
nodes = (
"386 140 OFFCURVE",
"333 64 OFFCURVE",
"232 64 CURVE SMOOTH",
"169 64 OFFCURVE",
"131 95 OFFCURVE",
"131 150 CURVE SMOOTH",
"131 205 OFFCURVE",
"171 233 OFFCURVE",
"254 246 CURVE SMOOTH",
"386 268 LINE",
"386 260 LINE SMOOTH"
);
},
{
closed = 1;
nodes = (
"150 645 OFFCURVE",
"162 640 OFFCURVE",
"176 640 CURVE SMOOTH",
"203 640 OFFCURVE",
"224 659 OFFCURVE",
"224 691 CURVE SMOOTH",
"224 723 OFFCURVE",
"203 742 OFFCURVE",
"176 742 CURVE SMOOTH",
"148 742 OFFCURVE",
"125 723 OFFCURVE",
"125 691 CURVE SMOOTH",
"125 675 OFFCURVE",
"130 663 OFFCURVE",
"140 654 CURVE SMOOTH"
);
},
{
closed = 1;
nodes = (
"339 645 OFFCURVE",
"351 640 OFFCURVE",
"365 640 CURVE SMOOTH",
"392 640 OFFCURVE",
"413 659 OFFCURVE",
"413 691 CURVE SMOOTH",
"413 723 OFFCURVE",
"392 742 OFFCURVE",
"365 742 CURVE SMOOTH",
"337 742 OFFCURVE",
"314 723 OFFCURVE",
"314 691 CURVE SMOOTH",
"314 675 OFFCURVE",
"319 663 OFFCURVE",
"329 654 CURVE SMOOTH"
);
}
);
width = 559;
}
);
note = adieresis;
unicode = 00E4;
},
{
glyphname = aring;
lastChange = "2017-11-01 11:12:25 +0000";
layers = (
{
layerId = "63834EBD-EB8E-4539-93C4-16AFAF002AC8";
paths = (
{
closed = 1;
nodes = (
"391 46 OFFCURVE",
"397 19 OFFCURVE",
"404 0 CURVE",
"495 0 LINE",
"478 51 OFFCURVE",
"469 100 OFFCURVE",
"469 147 CURVE SMOOTH",
"469 361 LINE SMOOTH",
"469 496 OFFCURVE",
"392 562 OFFCURVE",
"269 562 CURVE SMOOTH",
"208 562 OFFCURVE",
"145 546 OFFCURVE",
"80 513 CURVE",
"90 430 LINE",
"151 465 OFFCURVE",
"208 482 OFFCURVE",
"261 482 CURVE SMOOTH",
"345 482 OFFCURVE",
"386 444 OFFCURVE",
"386 356 CURVE SMOOTH",
"386 337 LINE",
"243 314 LINE SMOOTH",
"108 293 OFFCURVE",
"44 242 OFFCURVE",
"44 145 CURVE SMOOTH",
"44 49 OFFCURVE",
"109 -10 OFFCURVE",
"213 -10 CURVE SMOOTH",
"285 -10 OFFCURVE",
"343 21 OFFCURVE",
"386 83 CURVE"
);
},
{
closed = 1;
nodes = (
"386 140 OFFCURVE",
"333 64 OFFCURVE",
"232 64 CURVE SMOOTH",
"169 64 OFFCURVE",
"131 95 OFFCURVE",
"131 150 CURVE SMOOTH",
"131 205 OFFCURVE",
"171 233 OFFCURVE",
"254 246 CURVE SMOOTH",
"386 268 LINE",
"386 260 LINE SMOOTH"
);
},
{
closed = 1;
nodes = (
"378 763 OFFCURVE",
"332 809 OFFCURVE",
"268 809 CURVE SMOOTH",
"204 809 OFFCURVE",
"160 765 OFFCURVE",
"160 705 CURVE SMOOTH",
"160 641 OFFCURVE",
"203 600 OFFCURVE",
"268 600 CURVE SMOOTH",
"333 600 OFFCURVE",
"378 643 OFFCURVE",
"378 706 CURVE SMOOTH"
);
},
{
closed = 1;
nodes = (
"299 653 OFFCURVE",
"285 648 OFFCURVE",
"268 648 CURVE SMOOTH",
"232 648 OFFCURVE",
"211 670 OFFCURVE",
"211 705 CURVE SMOOTH",
"211 738 OFFCURVE",
"235 762 OFFCURVE",
"268 762 CURVE SMOOTH",
"301 762 OFFCURVE",
"325 738 OFFCURVE",
"325 705 CURVE SMOOTH",
"325 688 OFFCURVE",
"320 675 OFFCURVE",
"310 664 CURVE"
);
}
);
width = 559;
}
);
note = aring;
unicode = 00E5;
},
{
glyphname = ae;
lastChange = "2017-11-01 11:12:25 +0000";
layers = (
{
layerId = "63834EBD-EB8E-4539-93C4-16AFAF002AC8";
paths = (
{
closed = 1;
nodes = (
"207 562 OFFCURVE",
"144 546 OFFCURVE",
"80 513 CURVE",
"90 430 LINE",
"150 465 OFFCURVE",
"207 482 OFFCURVE",
"261 482 CURVE SMOOTH",
"345 482 OFFCURVE",
"386 444 OFFCURVE",
"386 356 CURVE SMOOTH",
"386 337 LINE",
"243 314 LINE SMOOTH",
"108 293 OFFCURVE",
"44 242 OFFCURVE",
"44 145 CURVE SMOOTH",
"44 49 OFFCURVE",
"111 -10 OFFCURVE",
"223 -10 CURVE SMOOTH",
"316 -10 OFFCURVE",
"389 39 OFFCURVE",
"425 111 CURVE",
"474 30 OFFCURVE",
"554 -10 OFFCURVE",
"666 -10 CURVE SMOOTH",
"729 -10 OFFCURVE",
"786 0 OFFCURVE",
"835 20 CURVE",
"826 104 LINE",
"769 79 OFFCURVE",
"715 66 OFFCURVE",
"666 66 CURVE SMOOTH",
"551 66 OFFCURVE",
"471 144 OFFCURVE",
"471 271 CURVE",
"855 271 LINE",
"859 288 OFFCURVE",
"861 307 OFFCURVE",
"861 329 CURVE SMOOTH",
"861 426 OFFCURVE",
"828 493 OFFCURVE",
"761 532 CURVE SMOOTH",
"727 552 OFFCURVE",
"685 562 OFFCURVE",
"636 562 CURVE SMOOTH",
"559 562 OFFCURVE",
"496 531 OFFCURVE",
"446 470 CURVE",
"414 531 OFFCURVE",
"355 562 OFFCURVE",
"269 562 CURVE SMOOTH"
);
},
{
closed = 1;
nodes = (
"386 139 OFFCURVE",
"336 64 OFFCURVE",
"232 64 CURVE SMOOTH",
"169 64 OFFCURVE",
"131 95 OFFCURVE",
"131 150 CURVE SMOOTH",
"131 205 OFFCURVE",
"171 233 OFFCURVE",
"254 246 CURVE SMOOTH",
"386 268 LINE",
"386 260 LINE SMOOTH"
);
},
{
closed = 1;
nodes = (
"763 423 OFFCURVE",
"775 387 OFFCURVE",
"775 341 CURVE",
"476 341 LINE",
"487 425 OFFCURVE",
"553 486 OFFCURVE",
"637 486 CURVE SMOOTH",
"679 486 OFFCURVE",
"713 473 OFFCURVE",
"738 448 CURVE SMOOTH"
);
}
);
width = 909;
}
);
note = ae;
unicode = 00E6;
},
{
glyphname = ccedilla;
lastChange = "2017-11-01 11:12:25 +0000";
layers = (
{
layerId = "63834EBD-EB8E-4539-93C4-16AFAF002AC8";
paths = (
{
closed = 1;
nodes = (
"396 -10 OFFCURVE",
"447 -1 OFFCURVE",
"487 17 CURVE",
"477 96 LINE",
"432 76 OFFCURVE",
"385 66 OFFCURVE",
"338 66 CURVE SMOOTH",
"217 66 OFFCURVE",
"139 142 OFFCURVE",
"139 273 CURVE SMOOTH",
"139 414 OFFCURVE",
"209 486 OFFCURVE",
"336 486 CURVE SMOOTH",
"375 486 OFFCURVE",
"420 476 OFFCURVE",
"470 457 CURVE",
"480 538 LINE",
"438 554 OFFCURVE",
"390 562 OFFCURVE",
"335 562 CURVE SMOOTH",
"166 562 OFFCURVE",
"50 450 OFFCURVE",
"50 275 CURVE SMOOTH",
"50 100 OFFCURVE",
"172 -10 OFFCURVE",
"333 -10 CURVE SMOOTH"
);
},
{
closed = 1;
nodes = (
"208 -230 LINE",
"317 -230 LINE",
"379 -50 LINE",
"325 -50 LINE"
);
}
);
width = 507;
}
);
note = ccedilla;
unicode = 00E7;
},
{
glyphname = egrave;
lastChange = "2017-11-01 11:12:25 +0000";
layers = (
{
layerId = "63834EBD-EB8E-4539-93C4-16AFAF002AC8";
paths = (
{
closed = 1;
nodes = (
"399 -10 OFFCURVE",
"456 0 OFFCURVE",
"505 20 CURVE",
"496 104 LINE",
"439 79 OFFCURVE",
"385 66 OFFCURVE",
"336 66 CURVE SMOOTH",
"221 66 OFFCURVE",
"141 144 OFFCURVE",
"141 271 CURVE",
"525 271 LINE",
"529 288 OFFCURVE",
"531 307 OFFCURVE",
"531 329 CURVE SMOOTH",
"531 426 OFFCURVE",
"498 493 OFFCURVE",
"431 532 CURVE SMOOTH",
"397 552 OFFCURVE",
"355 562 OFFCURVE",
"306 562 CURVE SMOOTH",
"167 562 OFFCURVE",
"53 450 OFFCURVE",
"53 277 CURVE SMOOTH",
"53 97 OFFCURVE",
"164 -10 OFFCURVE",
"336 -10 CURVE SMOOTH"
);
},
{
closed = 1;
nodes = (
"433 423 OFFCURVE",
"445 387 OFFCURVE",
"445 341 CURVE",
"146 341 LINE",
"157 425 OFFCURVE",
"223 486 OFFCURVE",
"307 486 CURVE SMOOTH",
"349 486 OFFCURVE",
"383 473 OFFCURVE",
"408 448 CURVE SMOOTH"
);
},
{
closed = 1;
nodes = (
"281 602 LINE",
"335 602 LINE",
"273 782 LINE",
"164 782 LINE"
);
}
);
width = 579;
}
);
note = egrave;
unicode = 00E8;
},
{
glyphname = eacute;
lastChange = "2017-11-01 11:12:25 +0000";
layers = (
{
layerId = "63834EBD-EB8E-4539-93C4-16AFAF002AC8";
paths = (
{
closed = 1;
nodes = (
"399 -10 OFFCURVE",
"456 0 OFFCURVE",
"505 20 CURVE",
"496 104 LINE",
"439 79 OFFCURVE",
"385 66 OFFCURVE",
"336 66 CURVE SMOOTH",
"221 66 OFFCURVE",
"141 144 OFFCURVE",
"141 271 CURVE",
"525 271 LINE",
"529 288 OFFCURVE",
"531 307 OFFCURVE",
"531 329 CURVE SMOOTH",
"531 426 OFFCURVE",
"498 493 OFFCURVE",
"431 532 CURVE SMOOTH",
"397 552 OFFCURVE",
"355 562 OFFCURVE",
"306 562 CURVE SMOOTH",
"167 562 OFFCURVE",
"53 450 OFFCURVE",
"53 277 CURVE SMOOTH",
"53 97 OFFCURVE",
"164 -10 OFFCURVE",
"336 -10 CURVE SMOOTH"
);
},
{
closed = 1;
nodes = (
"433 423 OFFCURVE",
"445 387 OFFCURVE",
"445 341 CURVE",
"146 341 LINE",
"157 425 OFFCURVE",
"223 486 OFFCURVE",
"307 486 CURVE SMOOTH",
"349 486 OFFCURVE",
"383 473 OFFCURVE",
"408 448 CURVE SMOOTH"
);
},
{
closed = 1;
nodes = (
"435 782 LINE",
"326 782 LINE",
"264 602 LINE",
"318 602 LINE"
);
}
);
width = 579;
}
);
note = eacute;
unicode = 00E9;
},
{
glyphname = ecircumflex;
lastChange = "2017-11-01 11:12:25 +0000";
layers = (
{
layerId = "63834EBD-EB8E-4539-93C4-16AFAF002AC8";
paths = (
{
closed = 1;
nodes = (
"399 -10 OFFCURVE",
"456 0 OFFCURVE",
"505 20 CURVE",
"496 104 LINE",
"439 79 OFFCURVE",
"385 66 OFFCURVE",
"336 66 CURVE SMOOTH",
"221 66 OFFCURVE",
"141 144 OFFCURVE",
"141 271 CURVE",
"525 271 LINE",
"529 288 OFFCURVE",
"531 307 OFFCURVE",
"531 329 CURVE SMOOTH",
"531 426 OFFCURVE",
"498 493 OFFCURVE",
"431 532 CURVE SMOOTH",
"397 552 OFFCURVE",
"355 562 OFFCURVE",
"306 562 CURVE SMOOTH",
"167 562 OFFCURVE",
"53 450 OFFCURVE",
"53 277 CURVE SMOOTH",
"53 97 OFFCURVE",
"164 -10 OFFCURVE",
"336 -10 CURVE SMOOTH"
);
},
{
closed = 1;
nodes = (
"433 423 OFFCURVE",
"445 387 OFFCURVE",
"445 341 CURVE",
"146 341 LINE",
"157 425 OFFCURVE",
"223 486 OFFCURVE",
"307 486 CURVE SMOOTH",
"349 486 OFFCURVE",
"383 473 OFFCURVE",
"408 448 CURVE SMOOTH"
);
},
{
closed = 1;
nodes = (
"298 703 LINE",
"406 602 LINE",
"464 602 LINE",
"339 782 LINE",
"258 782 LINE",
"135 602 LINE",
"191 602 LINE"
);
}
);
width = 579;
}
);
note = ecircumflex;
unicode = 00EA;
},
{
glyphname = edieresis;
lastChange = "2017-11-01 11:12:25 +0000";
layers = (
{
layerId = "63834EBD-EB8E-4539-93C4-16AFAF002AC8";
paths = (
{
closed = 1;
nodes = (
"399 -10 OFFCURVE",
"456 0 OFFCURVE",
"505 20 CURVE",
"496 104 LINE",
"439 79 OFFCURVE",
"385 66 OFFCURVE",
"336 66 CURVE SMOOTH",
"221 66 OFFCURVE",
"141 144 OFFCURVE",
"141 271 CURVE",
"525 271 LINE",
"529 288 OFFCURVE",
"531 307 OFFCURVE",
"531 329 CURVE SMOOTH",
"531 426 OFFCURVE",
"498 493 OFFCURVE",
"431 532 CURVE SMOOTH",
"397 552 OFFCURVE",
"355 562 OFFCURVE",
"306 562 CURVE SMOOTH",
"167 562 OFFCURVE",
"53 450 OFFCURVE",
"53 277 CURVE SMOOTH",
"53 97 OFFCURVE",
"164 -10 OFFCURVE",
"336 -10 CURVE SMOOTH"
);
},
{
closed = 1;
nodes = (
"433 423 OFFCURVE",
"445 387 OFFCURVE",
"445 341 CURVE",
"146 341 LINE",
"157 425 OFFCURVE",
"223 486 OFFCURVE",
"307 486 CURVE SMOOTH",
"349 486 OFFCURVE",
"383 473 OFFCURVE",
"408 448 CURVE SMOOTH"
);
},
{
closed = 1;
nodes = (
"180 645 OFFCURVE",
"192 640 OFFCURVE",
"206 640 CURVE SMOOTH",
"233 640 OFFCURVE",
"254 659 OFFCURVE",
"254 691 CURVE SMOOTH",
"254 723 OFFCURVE",
"233 742 OFFCURVE",
"206 742 CURVE SMOOTH",
"178 742 OFFCURVE",
"155 723 OFFCURVE",
"155 691 CURVE SMOOTH",
"155 675 OFFCURVE",
"160 663 OFFCURVE",
"170 654 CURVE SMOOTH"
);
},
{
closed = 1;
nodes = (
"369 645 OFFCURVE",
"381 640 OFFCURVE",
"395 640 CURVE SMOOTH",
"422 640 OFFCURVE",
"443 659 OFFCURVE",
"443 691 CURVE SMOOTH",
"443 723 OFFCURVE",
"422 742 OFFCURVE",
"395 742 CURVE SMOOTH",
"367 742 OFFCURVE",
"344 723 OFFCURVE",
"344 691 CURVE SMOOTH",
"344 675 OFFCURVE",
"349 663 OFFCURVE",
"359 654 CURVE SMOOTH"
);
}
);
width = 579;
}
);
note = edieresis;
unicode = 00EB;
},
{
glyphname = igrave;
lastChange = "2017-11-01 11:12:25 +0000";
layers = (
{
layerId = "63834EBD-EB8E-4539-93C4-16AFAF002AC8";
paths = (
{
closed = 1;
nodes = (
"88 552 LINE",
"88 0 LINE",
"170 0 LINE",
"170 552 LINE"
);
},
{
closed = 1;
nodes = (
"111 602 LINE",
"165 602 LINE",
"103 782 LINE",
"-6 782 LINE"
);
}
);
width = 258;
}
);
note = igrave;
unicode = 00EC;
},
{
glyphname = iacute;
lastChange = "2017-11-01 11:12:25 +0000";
layers = (
{
layerId = "63834EBD-EB8E-4539-93C4-16AFAF002AC8";
paths = (
{
closed = 1;
nodes = (
"88 552 LINE",
"88 0 LINE",
"170 0 LINE",
"170 552 LINE"
);
},
{
closed = 1;
nodes = (
"265 782 LINE",
"156 782 LINE",
"94 602 LINE",
"148 602 LINE"
);
}
);
width = 258;
}
);
note = iacute;
unicode = 00ED;
},
{
glyphname = icircumflex;
lastChange = "2017-11-01 11:12:25 +0000";
layers = (
{
layerId = "63834EBD-EB8E-4539-93C4-16AFAF002AC8";
paths = (
{
closed = 1;
nodes = (
"88 552 LINE",
"88 0 LINE",
"170 0 LINE",
"170 552 LINE"
);
},
{
closed = 1;
nodes = (
"128 703 LINE",
"236 602 LINE",
"294 602 LINE",
"169 782 LINE",
"88 782 LINE",
"-35 602 LINE",
"21 602 LINE"
);
}
);
width = 258;
}
);
note = icircumflex;
unicode = 00EE;
},
{
glyphname = idieresis;
lastChange = "2017-11-01 11:12:25 +0000";
layers = (
{
layerId = "63834EBD-EB8E-4539-93C4-16AFAF002AC8";
paths = (
{
closed = 1;
nodes = (
"88 552 LINE",
"88 0 LINE",
"170 0 LINE",
"170 552 LINE"
);
},
{
closed = 1;
nodes = (
"10 645 OFFCURVE",
"22 640 OFFCURVE",
"36 640 CURVE SMOOTH",
"63 640 OFFCURVE",
"84 659 OFFCURVE",
"84 691 CURVE SMOOTH",
"84 723 OFFCURVE",
"63 742 OFFCURVE",
"36 742 CURVE SMOOTH",
"8 742 OFFCURVE",
"-15 723 OFFCURVE",
"-15 691 CURVE SMOOTH",
"-15 675 OFFCURVE",
"-10 663 OFFCURVE",
"0 654 CURVE SMOOTH"
);
},
{
closed = 1;
nodes = (
"199 645 OFFCURVE",
"211 640 OFFCURVE",
"225 640 CURVE SMOOTH",
"252 640 OFFCURVE",
"273 659 OFFCURVE",
"273 691 CURVE SMOOTH",
"273 723 OFFCURVE",
"252 742 OFFCURVE",
"225 742 CURVE SMOOTH",
"197 742 OFFCURVE",
"174 723 OFFCURVE",
"174 691 CURVE SMOOTH",
"174 675 OFFCURVE",
"179 663 OFFCURVE",
"189 654 CURVE SMOOTH"
);
}
);
width = 258;
}
);
note = idieresis;
unicode = 00EF;
},
{
glyphname = eth;
lastChange = "2017-11-01 11:12:25 +0000";
layers = (
{
layerId = "63834EBD-EB8E-4539-93C4-16AFAF002AC8";
paths = (
{
closed = 1;
nodes = (
"318 713 OFFCURVE",
"284 733 OFFCURVE",
"239 756 CURVE",
"195 693 LINE",
"228 676 OFFCURVE",
"253 662 OFFCURVE",
"269 652 CURVE",
"160 590 LINE",
"196 537 LINE",
"323 610 LINE",
"390 551 OFFCURVE",
"433 485 OFFCURVE",
"452 411 CURVE",
"410 454 OFFCURVE",
"356 476 OFFCURVE",
"290 476 CURVE SMOOTH",
"149 476 OFFCURVE",
"52 371 OFFCURVE",
"52 232 CURVE SMOOTH",
"52 87 OFFCURVE",
"157 -10 OFFCURVE",
"302 -10 CURVE SMOOTH",
"470 -10 OFFCURVE",
"554 95 OFFCURVE",
"554 275 CURVE SMOOTH",
"554 430 OFFCURVE",
"501 555 OFFCURVE",
"395 651 CURVE",
"481 701 LINE",
"443 752 LINE",
"343 694 LINE"
);
},
{
closed = 1;
nodes = (
"139 335 OFFCURVE",
"202 399 OFFCURVE",
"299 399 CURVE SMOOTH",
"396 399 OFFCURVE",
"468 338 OFFCURVE",
"468 235 CURVE SMOOTH",
"468 135 OFFCURVE",
"402 66 OFFCURVE",
"306 66 CURVE SMOOTH",
"209 66 OFFCURVE",
"139 131 OFFCURVE",
"139 231 CURVE SMOOTH"
);
}
);
width = 606;
}
);
note = eth;
unicode = 00F0;
},
{
glyphname = ntilde;
lastChange = "2017-11-01 11:12:25 +0000";
layers = (
{
layerId = "63834EBD-EB8E-4539-93C4-16AFAF002AC8";
paths = (
{
closed = 1;
nodes = (
"549 436 OFFCURVE",
"519 503 OFFCURVE",
"460 537 CURVE SMOOTH",
"432 554 OFFCURVE",
"396 562 OFFCURVE",
"351 562 CURVE SMOOTH",
"270 562 OFFCURVE",
"210 530 OFFCURVE",
"171 465 CURVE",
"171 552 LINE",
"88 552 LINE",
"88 0 LINE",
"172 0 LINE",
"172 248 LINE SMOOTH",
"172 392 OFFCURVE",
"211 486 OFFCURVE",
"339 486 CURVE SMOOTH",
"426 486 OFFCURVE",
"466 438 OFFCURVE",
"466 331 CURVE SMOOTH",
"466 0 LINE",
"549 0 LINE",
"549 337 LINE SMOOTH"
);
},
{
closed = 1;
nodes = (
"460 636 OFFCURVE",
"493 675 OFFCURVE",
"500 739 CURVE",
"449 757 LINE",
"442 722 OFFCURVE",
"428 705 OFFCURVE",
"407 705 CURVE SMOOTH",
"397 705 OFFCURVE",
"376 713 OFFCURVE",
"345 728 CURVE SMOOTH",
"313 743 OFFCURVE",
"288 751 OFFCURVE",
"271 751 CURVE SMOOTH",
"218 751 OFFCURVE",
"178 711 OFFCURVE",
"171 646 CURVE",
"222 630 LINE",
"229 666 OFFCURVE",
"242 682 OFFCURVE",
"269 682 CURVE SMOOTH",
"280 682 OFFCURVE",
"302 674 OFFCURVE",
"335 659 CURVE SMOOTH",
"367 644 OFFCURVE",
"391 636 OFFCURVE",
"408 636 CURVE SMOOTH"
);
}
);
width = 632;
}
);
note = ntilde;
unicode = 00F1;
},
{
glyphname = ograve;
lastChange = "2017-11-01 11:12:25 +0000";
layers = (
{
layerId = "63834EBD-EB8E-4539-93C4-16AFAF002AC8";
paths = (
{
closed = 1;
nodes = (
"145 415 OFFCURVE",
"199 486 OFFCURVE",
"307 486 CURVE SMOOTH",
"412 486 OFFCURVE",
"478 410 OFFCURVE",
"478 279 CURVE SMOOTH",
"478 147 OFFCURVE",
"418 66 OFFCURVE",
"314 66 CURVE SMOOTH",
"209 66 OFFCURVE",
"145 142 OFFCURVE",
"145 273 CURVE SMOOTH"
);
},
{
closed = 1;
nodes = (
"566 443 OFFCURVE",
"468 562 OFFCURVE",
"312 562 CURVE SMOOTH",
"155 562 OFFCURVE",
"56 452 OFFCURVE",
"56 276 CURVE SMOOTH",
"56 101 OFFCURVE",
"165 -10 OFFCURVE",
"309 -10 CURVE SMOOTH",
"468 -10 OFFCURVE",
"566 101 OFFCURVE",
"566 276 CURVE SMOOTH"
);
},
{
closed = 1;
nodes = (
"292 602 LINE",
"346 602 LINE",
"284 782 LINE",
"175 782 LINE"
);
}
);
width = 622;
}
);
note = ograve;
unicode = 00F2;
},
{
glyphname = oacute;
lastChange = "2017-11-01 11:12:25 +0000";
layers = (
{
layerId = "63834EBD-EB8E-4539-93C4-16AFAF002AC8";
paths = (
{
closed = 1;
nodes = (
"145 415 OFFCURVE",
"199 486 OFFCURVE",
"307 486 CURVE SMOOTH",
"412 486 OFFCURVE",
"478 410 OFFCURVE",
"478 279 CURVE SMOOTH",
"478 147 OFFCURVE",
"418 66 OFFCURVE",
"314 66 CURVE SMOOTH",
"209 66 OFFCURVE",
"145 142 OFFCURVE",
"145 273 CURVE SMOOTH"
);
},
{
closed = 1;
nodes = (
"566 443 OFFCURVE",
"468 562 OFFCURVE",
"312 562 CURVE SMOOTH",
"155 562 OFFCURVE",
"56 452 OFFCURVE",
"56 276 CURVE SMOOTH",
"56 101 OFFCURVE",
"165 -10 OFFCURVE",
"309 -10 CURVE SMOOTH",
"468 -10 OFFCURVE",
"566 101 OFFCURVE",
"566 276 CURVE SMOOTH"
);
},
{
closed = 1;
nodes = (
"446 782 LINE",
"337 782 LINE",
"275 602 LINE",
"329 602 LINE"
);
}
);
width = 622;
}
);
note = oacute;
unicode = 00F3;
},
{
glyphname = ocircumflex;
lastChange = "2017-11-01 11:12:25 +0000";
layers = (
{
layerId = "63834EBD-EB8E-4539-93C4-16AFAF002AC8";
paths = (
{
closed = 1;
nodes = (
"145 415 OFFCURVE",
"199 486 OFFCURVE",
"307 486 CURVE SMOOTH",
"412 486 OFFCURVE",
"478 410 OFFCURVE",
"478 279 CURVE SMOOTH",
"478 147 OFFCURVE",
"418 66 OFFCURVE",
"314 66 CURVE SMOOTH",
"209 66 OFFCURVE",
"145 142 OFFCURVE",
"145 273 CURVE SMOOTH"
);
},
{
closed = 1;
nodes = (
"566 443 OFFCURVE",
"468 562 OFFCURVE",
"312 562 CURVE SMOOTH",
"155 562 OFFCURVE",
"56 452 OFFCURVE",
"56 276 CURVE SMOOTH",
"56 101 OFFCURVE",
"165 -10 OFFCURVE",
"309 -10 CURVE SMOOTH",
"468 -10 OFFCURVE",
"566 101 OFFCURVE",
"566 276 CURVE SMOOTH"
);
},
{
closed = 1;
nodes = (
"309 703 LINE",
"417 602 LINE",
"475 602 LINE",
"350 782 LINE",
"269 782 LINE",
"146 602 LINE",
"202 602 LINE"
);
}
);
width = 622;
}
);
note = ocircumflex;
unicode = 00F4;
},
{
glyphname = otilde;
lastChange = "2017-11-01 11:12:25 +0000";
layers = (
{
layerId = "63834EBD-EB8E-4539-93C4-16AFAF002AC8";
paths = (
{
closed = 1;
nodes = (
"145 415 OFFCURVE",
"199 486 OFFCURVE",
"307 486 CURVE SMOOTH",
"412 486 OFFCURVE",
"478 410 OFFCURVE",
"478 279 CURVE SMOOTH",
"478 147 OFFCURVE",
"418 66 OFFCURVE",
"314 66 CURVE SMOOTH",
"209 66 OFFCURVE",
"145 142 OFFCURVE",
"145 273 CURVE SMOOTH"
);
},
{
closed = 1;
nodes = (
"566 443 OFFCURVE",
"468 562 OFFCURVE",
"312 562 CURVE SMOOTH",
"155 562 OFFCURVE",
"56 452 OFFCURVE",
"56 276 CURVE SMOOTH",
"56 101 OFFCURVE",
"165 -10 OFFCURVE",
"309 -10 CURVE SMOOTH",
"468 -10 OFFCURVE",
"566 101 OFFCURVE",
"566 276 CURVE SMOOTH"
);
},
{
closed = 1;
nodes = (
"435 636 OFFCURVE",
"468 675 OFFCURVE",
"475 739 CURVE",
"424 757 LINE",
"417 722 OFFCURVE",
"403 705 OFFCURVE",
"382 705 CURVE SMOOTH",
"372 705 OFFCURVE",
"351 713 OFFCURVE",
"320 728 CURVE SMOOTH",
"288 743 OFFCURVE",
"263 751 OFFCURVE",
"246 751 CURVE SMOOTH",
"193 751 OFFCURVE",
"153 711 OFFCURVE",
"146 646 CURVE",
"197 630 LINE",
"204 666 OFFCURVE",
"217 682 OFFCURVE",
"244 682 CURVE SMOOTH",
"255 682 OFFCURVE",
"277 674 OFFCURVE",
"310 659 CURVE SMOOTH",
"342 644 OFFCURVE",
"366 636 OFFCURVE",
"383 636 CURVE SMOOTH"
);
}
);
width = 622;
}
);
note = otilde;
unicode = 00F5;
},
{
glyphname = odieresis;
lastChange = "2017-11-01 11:12:25 +0000";
layers = (
{
layerId = "63834EBD-EB8E-4539-93C4-16AFAF002AC8";
paths = (
{
closed = 1;
nodes = (
"145 415 OFFCURVE",
"199 486 OFFCURVE",
"307 486 CURVE SMOOTH",
"412 486 OFFCURVE",
"478 410 OFFCURVE",
"478 279 CURVE SMOOTH",
"478 147 OFFCURVE",
"418 66 OFFCURVE",
"314 66 CURVE SMOOTH",
"209 66 OFFCURVE",
"145 142 OFFCURVE",
"145 273 CURVE SMOOTH"
);
},
{
closed = 1;
nodes = (
"566 443 OFFCURVE",
"468 562 OFFCURVE",
"312 562 CURVE SMOOTH",
"155 562 OFFCURVE",
"56 452 OFFCURVE",
"56 276 CURVE SMOOTH",
"56 101 OFFCURVE",
"165 -10 OFFCURVE",
"309 -10 CURVE SMOOTH",
"468 -10 OFFCURVE",
"566 101 OFFCURVE",
"566 276 CURVE SMOOTH"
);
},
{
closed = 1;
nodes = (
"192 645 OFFCURVE",
"204 640 OFFCURVE",
"218 640 CURVE SMOOTH",
"245 640 OFFCURVE",
"266 659 OFFCURVE",
"266 691 CURVE SMOOTH",
"266 723 OFFCURVE",
"245 742 OFFCURVE",
"218 742 CURVE SMOOTH",
"190 742 OFFCURVE",
"167 723 OFFCURVE",
"167 691 CURVE SMOOTH",
"167 675 OFFCURVE",
"172 663 OFFCURVE",
"182 654 CURVE SMOOTH"
);
},
{
closed = 1;
nodes = (
"381 645 OFFCURVE",
"393 640 OFFCURVE",
"407 640 CURVE SMOOTH",
"434 640 OFFCURVE",
"455 659 OFFCURVE",
"455 691 CURVE SMOOTH",
"455 723 OFFCURVE",
"434 742 OFFCURVE",
"407 742 CURVE SMOOTH",
"379 742 OFFCURVE",
"356 723 OFFCURVE",
"356 691 CURVE SMOOTH",
"356 675 OFFCURVE",
"361 663 OFFCURVE",
"371 654 CURVE SMOOTH"
);
}
);
width = 622;
}
);
note = odieresis;
unicode = 00F6;
},
{
glyphname = divide;
lastChange = "2017-11-01 11:12:25 +0000";
layers = (
{
layerId = "63834EBD-EB8E-4539-93C4-16AFAF002AC8";
paths = (
{
closed = 1;
nodes = (
"260 503 OFFCURVE",
"272 498 OFFCURVE",
"286 498 CURVE SMOOTH",
"313 498 OFFCURVE",
"334 517 OFFCURVE",
"334 549 CURVE SMOOTH",
"334 581 OFFCURVE",
"313 600 OFFCURVE",
"286 600 CURVE SMOOTH",
"258 600 OFFCURVE",
"235 581 OFFCURVE",
"235 549 CURVE SMOOTH",
"235 533 OFFCURVE",
"240 521 OFFCURVE",
"250 512 CURVE SMOOTH"
);
},
{
closed = 1;
nodes = (
"260 121 OFFCURVE",
"272 116 OFFCURVE",
"286 116 CURVE SMOOTH",
"313 116 OFFCURVE",
"334 135 OFFCURVE",
"334 167 CURVE SMOOTH",
"334 199 OFFCURVE",
"313 218 OFFCURVE",
"286 218 CURVE SMOOTH",
"258 218 OFFCURVE",
"235 199 OFFCURVE",
"235 167 CURVE SMOOTH",
"235 151 OFFCURVE",
"240 139 OFFCURVE",
"250 130 CURVE SMOOTH"
);
},
{
closed = 1;
nodes = (
"520 324 LINE",
"520 391 LINE",
"51 391 LINE",
"51 324 LINE"
);
}
);
width = 572;
}
);
note = divide;
unicode = 00F7;
},
{
glyphname = oslash;
lastChange = "2017-11-01 11:12:25 +0000";
layers = (
{
layerId = "63834EBD-EB8E-4539-93C4-16AFAF002AC8";
paths = (
{
closed = 1;
nodes = (
"233 -2 OFFCURVE",
"269 -10 OFFCURVE",
"309 -10 CURVE SMOOTH",
"468 -10 OFFCURVE",
"566 101 OFFCURVE",
"566 276 CURVE SMOOTH",
"566 371 OFFCURVE",
"537 446 OFFCURVE",
"479 500 CURVE",
"542 608 LINE",
"483 642 LINE",
"423 538 LINE",
"389 554 OFFCURVE",
"352 562 OFFCURVE",
"312 562 CURVE SMOOTH",
"155 562 OFFCURVE",
"56 452 OFFCURVE",
"56 276 CURVE SMOOTH",
"56 180 OFFCURVE",
"85 105 OFFCURVE",
"143 52 CURVE",
"82 -54 LINE",
"141 -88 LINE",
"200 14 LINE"
);
},
{
closed = 1;
nodes = (
"145 415 OFFCURVE",
"199 486 OFFCURVE",
"307 486 CURVE SMOOTH",
"335 486 OFFCURVE",
"360 480 OFFCURVE",
"383 469 CURVE",
"185 126 LINE",
"158 162 OFFCURVE",
"145 211 OFFCURVE",
"145 273 CURVE SMOOTH"
);
},
{
closed = 1;
nodes = (
"478 147 OFFCURVE",
"418 66 OFFCURVE",
"314 66 CURVE SMOOTH",
"285 66 OFFCURVE",
"260 71 OFFCURVE",
"239 82 CURVE",
"436 425 LINE",
"464 389 OFFCURVE",
"478 340 OFFCURVE",
"478 279 CURVE SMOOTH"
);
}
);
width = 622;
}
);
note = oslash;
unicode = 00F8;
},
{
glyphname = ugrave;
lastChange = "2017-11-01 11:12:25 +0000";
layers = (
{
layerId = "63834EBD-EB8E-4539-93C4-16AFAF002AC8";
paths = (
{
closed = 1;
nodes = (
"83 62 OFFCURVE",
"160 -10 OFFCURVE",
"285 -10 CURVE SMOOTH",
"360 -10 OFFCURVE",
"417 22 OFFCURVE",
"457 87 CURVE",
"457 0 LINE",
"540 0 LINE",
"540 552 LINE",
"456 552 LINE",
"456 304 LINE SMOOTH",
"456 157 OFFCURVE",
"414 66 OFFCURVE",
"298 66 CURVE SMOOTH",
"209 66 OFFCURVE",
"166 114 OFFCURVE",
"166 221 CURVE SMOOTH",
"166 552 LINE",
"83 552 LINE",
"83 215 LINE SMOOTH"
);
},
{
closed = 1;
nodes = (
"295 602 LINE",
"349 602 LINE",
"287 782 LINE",
"178 782 LINE"
);
}
);
width = 628;
}
);
note = ugrave;
unicode = 00F9;
},
{
glyphname = uacute;
lastChange = "2017-11-01 11:12:25 +0000";
layers = (
{
layerId = "63834EBD-EB8E-4539-93C4-16AFAF002AC8";
paths = (
{
closed = 1;
nodes = (
"83 62 OFFCURVE",
"160 -10 OFFCURVE",
"285 -10 CURVE SMOOTH",
"360 -10 OFFCURVE",
"417 22 OFFCURVE",
"457 87 CURVE",
"457 0 LINE",
"540 0 LINE",
"540 552 LINE",
"456 552 LINE",
"456 304 LINE SMOOTH",
"456 157 OFFCURVE",
"414 66 OFFCURVE",
"298 66 CURVE SMOOTH",
"209 66 OFFCURVE",
"166 114 OFFCURVE",
"166 221 CURVE SMOOTH",
"166 552 LINE",
"83 552 LINE",
"83 215 LINE SMOOTH"
);
},
{
closed = 1;
nodes = (
"449 782 LINE",
"340 782 LINE",
"278 602 LINE",
"332 602 LINE"
);
}
);
width = 628;
}
);
note = uacute;
unicode = 00FA;
},
{
glyphname = ucircumflex;
lastChange = "2017-11-01 11:12:25 +0000";
layers = (
{
layerId = "63834EBD-EB8E-4539-93C4-16AFAF002AC8";
paths = (
{
closed = 1;
nodes = (
"83 62 OFFCURVE",
"160 -10 OFFCURVE",
"285 -10 CURVE SMOOTH",
"360 -10 OFFCURVE",
"417 22 OFFCURVE",
"457 87 CURVE",
"457 0 LINE",
"540 0 LINE",
"540 552 LINE",
"456 552 LINE",
"456 304 LINE SMOOTH",
"456 157 OFFCURVE",
"414 66 OFFCURVE",
"298 66 CURVE SMOOTH",
"209 66 OFFCURVE",
"166 114 OFFCURVE",
"166 221 CURVE SMOOTH",
"166 552 LINE",
"83 552 LINE",
"83 215 LINE SMOOTH"
);
},
{
closed = 1;
nodes = (
"312 703 LINE",
"420 602 LINE",
"478 602 LINE",
"353 782 LINE",
"272 782 LINE",
"149 602 LINE",
"205 602 LINE"
);
}
);
width = 628;
}
);
note = ucircumflex;
unicode = 00FB;
},
{
glyphname = udieresis;
lastChange = "2017-11-01 11:12:25 +0000";
layers = (
{
layerId = "63834EBD-EB8E-4539-93C4-16AFAF002AC8";
paths = (
{
closed = 1;
nodes = (
"83 62 OFFCURVE",
"160 -10 OFFCURVE",
"285 -10 CURVE SMOOTH",
"360 -10 OFFCURVE",
"417 22 OFFCURVE",
"457 87 CURVE",
"457 0 LINE",
"540 0 LINE",
"540 552 LINE",
"456 552 LINE",
"456 304 LINE SMOOTH",
"456 157 OFFCURVE",
"414 66 OFFCURVE",
"298 66 CURVE SMOOTH",
"209 66 OFFCURVE",
"166 114 OFFCURVE",
"166 221 CURVE SMOOTH",
"166 552 LINE",
"83 552 LINE",
"83 215 LINE SMOOTH"
);
},
{
closed = 1;
nodes = (
"195 645 OFFCURVE",
"207 640 OFFCURVE",
"221 640 CURVE SMOOTH",
"248 640 OFFCURVE",
"269 659 OFFCURVE",
"269 691 CURVE SMOOTH",
"269 723 OFFCURVE",
"248 742 OFFCURVE",
"221 742 CURVE SMOOTH",
"193 742 OFFCURVE",
"170 723 OFFCURVE",
"170 691 CURVE SMOOTH",
"170 675 OFFCURVE",
"175 663 OFFCURVE",
"185 654 CURVE SMOOTH"
);
},
{
closed = 1;
nodes = (
"384 645 OFFCURVE",
"396 640 OFFCURVE",
"410 640 CURVE SMOOTH",
"437 640 OFFCURVE",
"458 659 OFFCURVE",
"458 691 CURVE SMOOTH",
"458 723 OFFCURVE",
"437 742 OFFCURVE",
"410 742 CURVE SMOOTH",
"382 742 OFFCURVE",
"359 723 OFFCURVE",
"359 691 CURVE SMOOTH",
"359 675 OFFCURVE",
"364 663 OFFCURVE",
"374 654 CURVE SMOOTH"
);
}
);
width = 628;
}
);
note = udieresis;
unicode = 00FC;
},
{
glyphname = yacute;
lastChange = "2017-11-01 11:12:25 +0000";
layers = (
{
layerId = "63834EBD-EB8E-4539-93C4-16AFAF002AC8";
paths = (
{
closed = 1;
nodes = (
"447 552 LINE",
"272 114 LINE",
"204 291 LINE",
"98 552 LINE",
"6 552 LINE",
"232 25 LINE",
"123 -220 LINE",
"215 -220 LINE",
"537 552 LINE"
);
},
{
closed = 1;
nodes = (
"407 782 LINE",
"298 782 LINE",
"236 602 LINE",
"290 602 LINE"
);
}
);
width = 543;
}
);
note = yacute;
unicode = 00FD;
},
{
glyphname = thorn;
lastChange = "2017-11-01 11:12:25 +0000";
layers = (
{
layerId = "63834EBD-EB8E-4539-93C4-16AFAF002AC8";
paths = (
{
closed = 1;
nodes = (
"88 -220 LINE",
"172 -220 LINE",
"172 87 LINE",
"213 22 OFFCURVE",
"273 -10 OFFCURVE",
"352 -10 CURVE SMOOTH",
"501 -10 OFFCURVE",
"593 108 OFFCURVE",
"593 277 CURVE SMOOTH",
"593 454 OFFCURVE",
"501 562 OFFCURVE",
"349 562 CURVE SMOOTH",
"276 562 OFFCURVE",
"209 528 OFFCURVE",
"172 467 CURVE",
"172 742 LINE",
"88 742 LINE"
);
},
{
closed = 1;
nodes = (
"170 410 OFFCURVE",
"234 486 OFFCURVE",
"339 486 CURVE SMOOTH",
"443 486 OFFCURVE",
"503 405 OFFCURVE",
"503 273 CURVE SMOOTH",
"503 142 OFFCURVE",
"437 66 OFFCURVE",
"336 66 CURVE SMOOTH",
"228 66 OFFCURVE",
"170 138 OFFCURVE",
"170 279 CURVE SMOOTH"
);
}
);
width = 649;
}
);
note = thorn;
unicode = 00FE;
},
{
glyphname = ydieresis;
lastChange = "2017-11-01 11:12:25 +0000";
layers = (
{
layerId = "63834EBD-EB8E-4539-93C4-16AFAF002AC8";
paths = (
{
closed = 1;
nodes = (
"447 552 LINE",
"272 114 LINE",
"204 291 LINE",
"98 552 LINE",
"6 552 LINE",
"232 25 LINE",
"123 -220 LINE",
"215 -220 LINE",
"537 552 LINE"
);
},
{
closed = 1;
nodes = (
"152 645 OFFCURVE",
"164 640 OFFCURVE",
"178 640 CURVE SMOOTH",
"205 640 OFFCURVE",
"226 659 OFFCURVE",
"226 691 CURVE SMOOTH",
"226 723 OFFCURVE",
"205 742 OFFCURVE",
"178 742 CURVE SMOOTH",
"150 742 OFFCURVE",
"127 723 OFFCURVE",
"127 691 CURVE SMOOTH",
"127 675 OFFCURVE",
"132 663 OFFCURVE",
"142 654 CURVE SMOOTH"
);
},
{
closed = 1;
nodes = (
"341 645 OFFCURVE",
"353 640 OFFCURVE",
"367 640 CURVE SMOOTH",
"394 640 OFFCURVE",
"415 659 OFFCURVE",
"415 691 CURVE SMOOTH",
"415 723 OFFCURVE",
"394 742 OFFCURVE",
"367 742 CURVE SMOOTH",
"339 742 OFFCURVE",
"316 723 OFFCURVE",
"316 691 CURVE SMOOTH",
"316 675 OFFCURVE",
"321 663 OFFCURVE",
"331 654 CURVE SMOOTH"
);
}
);
width = 543;
}
);
note = ydieresis;
unicode = 00FF;
},
{
glyphname = Gbreve;
lastChange = "2017-11-01 11:12:25 +0000";
layers = (
{
layerId = "63834EBD-EB8E-4539-93C4-16AFAF002AC8";
paths = (
{
closed = 1;
nodes = (
"402 290 LINE",
"554 290 LINE",
"554 79 LINE",
"507 70 OFFCURVE",
"469 66 OFFCURVE",
"438 66 CURVE SMOOTH",
"265 66 OFFCURVE",
"149 171 OFFCURVE",
"149 354 CURVE SMOOTH",
"149 546 OFFCURVE",
"256 648 OFFCURVE",
"412 648 CURVE SMOOTH",
"467 648 OFFCURVE",
"524 635 OFFCURVE",
"583 608 CURVE",
"593 694 LINE",
"541 714 OFFCURVE",
"480 724 OFFCURVE",
"411 724 CURVE SMOOTH",
"207 724 OFFCURVE",
"61 580 OFFCURVE",
"61 356 CURVE SMOOTH",
"61 128 OFFCURVE",
"214 -10 OFFCURVE",
"439 -10 CURVE SMOOTH",
"502 -10 OFFCURVE",
"568 1 OFFCURVE",
"635 24 CURVE",
"635 364 LINE",
"402 364 LINE"
);
},
{
closed = 1;
nodes = (
"246 822 OFFCURVE",
"301 764 OFFCURVE",
"399 764 CURVE SMOOTH",
"497 764 OFFCURVE",
"552 822 OFFCURVE",
"564 938 CURVE",
"515 938 LINE",
"502 869 OFFCURVE",
"463 835 OFFCURVE",
"399 835 CURVE SMOOTH",
"335 835 OFFCURVE",
"296 869 OFFCURVE",
"283 938 CURVE",
"234 938 LINE"
);
}
);
width = 718;
}
);
note = Gbreve;
unicode = 011E;
},
{
glyphname = gbreve;
lastChange = "2017-11-01 11:12:25 +0000";
layers = (
{
layerId = "63834EBD-EB8E-4539-93C4-16AFAF002AC8";
paths = (
{
closed = 1;
nodes = (
"543 24 OFFCURVE",
"490 79 OFFCURVE",
"397 79 CURVE SMOOTH",
"376 79 OFFCURVE",
"344 77 OFFCURVE",
"299 74 CURVE SMOOTH",
"254 71 OFFCURVE",
"221 69 OFFCURVE",
"201 69 CURVE SMOOTH",
"166 69 OFFCURVE",
"146 90 OFFCURVE",
"146 119 CURVE SMOOTH",
"146 145 OFFCURVE",
"161 168 OFFCURVE",
"191 189 CURVE",
"222 173 OFFCURVE",
"258 165 OFFCURVE",
"298 165 CURVE SMOOTH",
"414 165 OFFCURVE",
"503 245 OFFCURVE",
"503 353 CURVE SMOOTH",
"503 414 OFFCURVE",
"483 460 OFFCURVE",
"444 490 CURVE",
"578 482 LINE",
"588 552 LINE",
"469 552 LINE SMOOTH",
"444 552 OFFCURVE",
"415 554 OFFCURVE",
"381 557 CURVE SMOOTH",
"347 560 OFFCURVE",
"320 562 OFFCURVE",
"299 562 CURVE SMOOTH",
"171 562 OFFCURVE",
"86 482 OFFCURVE",
"86 362 CURVE SMOOTH",
"86 308 OFFCURVE",
"105 262 OFFCURVE",
"143 224 CURVE",
"96 195 OFFCURVE",
"73 157 OFFCURVE",
"73 112 CURVE SMOOTH",
"73 67 OFFCURVE",
"92 33 OFFCURVE",
"130 10 CURVE",
"88 -16 OFFCURVE",
"67 -52 OFFCURVE",
"67 -97 CURVE SMOOTH",
"67 -178 OFFCURVE",
"142 -240 OFFCURVE",
"282 -240 CURVE SMOOTH",
"443 -240 OFFCURVE",
"543 -159 OFFCURVE",
"543 -55 CURVE SMOOTH"
);
},
{
closed = 1;
nodes = (
"171 442 OFFCURVE",
"220 487 OFFCURVE",
"297 487 CURVE SMOOTH",
"366 487 OFFCURVE",
"418 436 OFFCURVE",
"418 364 CURVE SMOOTH",
"418 291 OFFCURVE",
"371 243 OFFCURVE",
"296 243 CURVE SMOOTH",
"225 243 OFFCURVE",
"171 291 OFFCURVE",
"171 363 CURVE SMOOTH"
);
},
{
closed = 1;
nodes = (
"223 -10 OFFCURVE",
"255 -8 OFFCURVE",
"298 -5 CURVE SMOOTH",
"341 -2 OFFCURVE",
"373 0 OFFCURVE",
"393 0 CURVE SMOOTH",
"440 0 OFFCURVE",
"463 -21 OFFCURVE",
"463 -63 CURVE SMOOTH",
"463 -123 OFFCURVE",
"404 -168 OFFCURVE",
"296 -168 CURVE SMOOTH",
"195 -168 OFFCURVE",
"147 -130 OFFCURVE",
"147 -77 CURVE SMOOTH",
"147 -46 OFFCURVE",
"158 -23 OFFCURVE",
"181 -9 CURVE",
"186 -10 OFFCURVE",
"193 -10 OFFCURVE",
"203 -10 CURVE SMOOTH"
);
},
{
closed = 1;
nodes = (
"211 720 OFFCURVE",
"197 745 OFFCURVE",
"190 782 CURVE",
"141 782 LINE",
"153 666 OFFCURVE",
"205 617 OFFCURVE",
"306 617 CURVE SMOOTH",
"407 617 OFFCURVE",
"459 666 OFFCURVE",
"471 782 CURVE",
"422 782 LINE",
"407 709 OFFCURVE",
"370 685 OFFCURVE",
"306 685 CURVE SMOOTH",
"274 685 OFFCURVE",
"249 692 OFFCURVE",
"230 706 CURVE SMOOTH"
);
}
);
width = 600;
}
);
note = gbreve;
unicode = 011F;
},
{
glyphname = dotlessI;
lastChange = "2017-11-01 11:12:25 +0000";
layers = (
{
layerId = "63834EBD-EB8E-4539-93C4-16AFAF002AC8";
paths = (
{
closed = 1;
nodes = (
"98 695 LINE",
"98 0 LINE",
"181 0 LINE",
"181 695 LINE"
);
},
{
closed = 1;
nodes = (
"90 779 OFFCURVE",
"113 760 OFFCURVE",
"141 760 CURVE SMOOTH",
"169 760 OFFCURVE",
"190 779 OFFCURVE",
"190 811 CURVE SMOOTH",
"190 844 OFFCURVE",
"170 862 OFFCURVE",
"141 862 CURVE SMOOTH",
"112 862 OFFCURVE",
"90 844 OFFCURVE",
"90 811 CURVE SMOOTH"
);
}
);
width = 279;
}
);
note = dotlessI;
unicode = 0130;
},
{
glyphname = dotlessi;
lastChange = "2017-11-01 11:12:25 +0000";
layers = (
{
layerId = "63834EBD-EB8E-4539-93C4-16AFAF002AC8";
paths = (
{
closed = 1;
nodes = (
"88 552 LINE",
"88 0 LINE",
"170 0 LINE",
"170 552 LINE"
);
}
);
width = 258;
}
);
note = dotlessi;
unicode = 0131;
},
{
glyphname = Lslash;
lastChange = "2017-11-01 11:12:25 +0000";
layers = (
{
layerId = "63834EBD-EB8E-4539-93C4-16AFAF002AC8";
paths = (
{
closed = 1;
nodes = (
"121 0 LINE",
"519 0 LINE",
"519 75 LINE",
"204 75 LINE",
"204 294 LINE",
"414 418 LINE",
"381 474 LINE",
"204 370 LINE",
"204 714 LINE",
"121 714 LINE",
"121 325 LINE",
"0 254 LINE",
"33 198 LINE",
"121 249 LINE"
);
}
);
width = 542;
}
);
note = Lslash;
unicode = 0141;
},
{
glyphname = lslash;
lastChange = "2017-11-01 11:12:25 +0000";
layers = (
{
layerId = "63834EBD-EB8E-4539-93C4-16AFAF002AC8";
paths = (
{
closed = 1;
nodes = (
"343 376 LINE",
"310 432 LINE",
"203 370 LINE",
"203 742 LINE",
"121 742 LINE",
"121 325 LINE",
"0 254 LINE",
"33 198 LINE",
"121 249 LINE",
"121 0 LINE",
"203 0 LINE",
"203 294 LINE"
);
}
);
width = 343;
}
);
note = lslash;
unicode = 0142;
},
{
glyphname = OE;
lastChange = "2017-11-01 11:12:25 +0000";
layers = (
{
layerId = "63834EBD-EB8E-4539-93C4-16AFAF002AC8";
paths = (
{
closed = 1;
nodes = (
"575 337 LINE",
"861 337 LINE",
"861 411 LINE",
"575 411 LINE",
"575 640 LINE",
"880 640 LINE",
"880 714 LINE",
"492 714 LINE",
"455 721 OFFCURVE",
"424 724 OFFCURVE",
"398 724 CURVE SMOOTH",
"190 724 OFFCURVE",
"62 578 OFFCURVE",
"62 357 CURVE SMOOTH",
"62 134 OFFCURVE",
"204 -10 OFFCURVE",
"395 -10 CURVE SMOOTH",
"417 -10 OFFCURVE",
"449 -7 OFFCURVE",
"492 0 CURVE",
"890 0 LINE",
"890 74 LINE",
"575 74 LINE"
);
},
{
closed = 1;
nodes = (
"249 66 OFFCURVE",
"150 175 OFFCURVE",
"150 354 CURVE SMOOTH",
"150 546 OFFCURVE",
"239 648 OFFCURVE",
"392 648 CURVE SMOOTH",
"426 648 OFFCURVE",
"459 643 OFFCURVE",
"492 633 CURVE",
"492 84 LINE",
"463 72 OFFCURVE",
"431 66 OFFCURVE",
"398 66 CURVE SMOOTH"
);
}
);
width = 950;
}
);
note = OE;
unicode = 0152;
},
{
glyphname = oe;
lastChange = "2017-11-01 11:12:25 +0000";
layers = (
{
layerId = "63834EBD-EB8E-4539-93C4-16AFAF002AC8";
paths = (
{
closed = 1;
nodes = (
"155 562 OFFCURVE",
"56 452 OFFCURVE",
"56 276 CURVE SMOOTH",
"56 101 OFFCURVE",
"165 -10 OFFCURVE",
"309 -10 CURVE SMOOTH",
"407 -10 OFFCURVE",
"479 28 OFFCURVE",
"524 104 CURVE",
"574 28 OFFCURVE",
"653 -10 OFFCURVE",
"761 -10 CURVE SMOOTH",
"822 -10 OFFCURVE",
"879 0 OFFCURVE",
"930 21 CURVE",
"930 102 LINE",
"875 78 OFFCURVE",
"819 66 OFFCURVE",
"761 66 CURVE SMOOTH",
"646 66 OFFCURVE",
"566 144 OFFCURVE",
"566 271 CURVE",
"942 271 LINE",
"945 294 OFFCURVE",
"946 318 OFFCURVE",
"946 344 CURVE SMOOTH",
"946 383 OFFCURVE",
"937 420 OFFCURVE",
"920 453 CURVE SMOOTH",
"884 519 OFFCURVE",
"820 562 OFFCURVE",
"719 562 CURVE SMOOTH",
"639 562 OFFCURVE",
"566 521 OFFCURVE",
"522 448 CURVE",
"475 524 OFFCURVE",
"405 562 OFFCURVE",
"312 562 CURVE SMOOTH"
);
},
{
closed = 1;
nodes = (
"145 415 OFFCURVE",
"199 486 OFFCURVE",
"307 486 CURVE SMOOTH",
"412 486 OFFCURVE",
"478 410 OFFCURVE",
"478 279 CURVE SMOOTH",
"478 147 OFFCURVE",
"418 66 OFFCURVE",
"314 66 CURVE SMOOTH",
"209 66 OFFCURVE",
"145 142 OFFCURVE",
"145 273 CURVE SMOOTH"
);
},
{
closed = 1;
nodes = (
"807 486 OFFCURVE",
"860 434 OFFCURVE",
"860 341 CURVE",
"571 341 LINE",
"580 425 OFFCURVE",
"645 486 OFFCURVE",
"724 486 CURVE SMOOTH"
);
}
);
width = 1004;
}
);
note = oe;
unicode = 0153;
},
{
glyphname = Scedilla;
lastChange = "2017-11-01 11:12:25 +0000";
layers = (
{
layerId = "63834EBD-EB8E-4539-93C4-16AFAF002AC8";
paths = (
{
closed = 1;
nodes = (
"506 274 OFFCURVE",
"458 340 OFFCURVE",
"363 379 CURVE SMOOTH",
"239 430 LINE SMOOTH",
"176 455 OFFCURVE",
"145 482 OFFCURVE",
"145 537 CURVE SMOOTH",
"145 601 OFFCURVE",
"200 648 OFFCURVE",
"293 648 CURVE SMOOTH",
"351 648 OFFCURVE",
"409 630 OFFCURVE",
"466 594 CURVE",
"484 681 LINE",
"423 710 OFFCURVE",
"359 724 OFFCURVE",
"292 724 CURVE SMOOTH",
"156 724 OFFCURVE",
"61 645 OFFCURVE",
"61 537 CURVE SMOOTH",
"61 448 OFFCURVE",
"109 393 OFFCURVE",
"209 350 CURVE SMOOTH",
"331 299 LINE SMOOTH",
"390 274 OFFCURVE",
"420 234 OFFCURVE",
"420 181 CURVE SMOOTH",
"420 112 OFFCURVE",
"361 66 OFFCURVE",
"260 66 CURVE SMOOTH",
"199 66 OFFCURVE",
"133 87 OFFCURVE",
"62 129 CURVE",
"52 40 LINE",
"117 7 OFFCURVE",
"186 -10 OFFCURVE",
"257 -10 CURVE SMOOTH",
"413 -10 OFFCURVE",
"506 65 OFFCURVE",
"506 182 CURVE SMOOTH"
);
},
{
closed = 1;
nodes = (
"154 -230 LINE",
"263 -230 LINE",
"325 -50 LINE",
"271 -50 LINE"
);
}
);
width = 549;
}
);
note = Scedilla;
unicode = 015E;
},
{
glyphname = scedilla;
lastChange = "2017-11-01 11:12:25 +0000";
layers = (
{
layerId = "63834EBD-EB8E-4539-93C4-16AFAF002AC8";
paths = (
{
closed = 1;
nodes = (
"446 213 OFFCURVE",
"416 262 OFFCURVE",
"329 297 CURVE SMOOTH",
"201 349 LINE SMOOTH",
"152 369 OFFCURVE",
"137 389 OFFCURVE",
"137 420 CURVE SMOOTH",
"137 464 OFFCURVE",
"175 486 OFFCURVE",
"252 486 CURVE SMOOTH",
"301 486 OFFCURVE",
"352 470 OFFCURVE",
"406 437 CURVE",
"416 525 LINE",
"373 550 OFFCURVE",
"318 562 OFFCURVE",
"251 562 CURVE SMOOTH",
"132 562 OFFCURVE",
"53 506 OFFCURVE",
"53 417 CURVE SMOOTH",
"53 349 OFFCURVE",
"91 300 OFFCURVE",
"166 270 CURVE SMOOTH",
"295 218 LINE SMOOTH",
"347 197 OFFCURVE",
"361 175 OFFCURVE",
"361 142 CURVE SMOOTH",
"361 91 OFFCURVE",
"324 66 OFFCURVE",
"249 66 CURVE SMOOTH",
"178 66 OFFCURVE",
"137 85 OFFCURVE",
"66 126 CURVE",
"55 36 LINE",
"110 5 OFFCURVE",
"175 -10 OFFCURVE",
"251 -10 CURVE SMOOTH",
"375 -10 OFFCURVE",
"446 45 OFFCURVE",
"446 142 CURVE SMOOTH"
);
},
{
closed = 1;
nodes = (
"135 -230 LINE",
"244 -230 LINE",
"306 -50 LINE",
"252 -50 LINE"
);
}
);
width = 494;
}
);
note = scedilla;
unicode = 015F;
},
{
glyphname = Scaron;
lastChange = "2017-11-01 11:12:25 +0000";
layers = (
{
layerId = "63834EBD-EB8E-4539-93C4-16AFAF002AC8";
paths = (
{
closed = 1;
nodes = (
"506 274 OFFCURVE",
"458 340 OFFCURVE",
"363 379 CURVE SMOOTH",
"239 430 LINE SMOOTH",
"176 455 OFFCURVE",
"145 482 OFFCURVE",
"145 537 CURVE SMOOTH",
"145 601 OFFCURVE",
"200 648 OFFCURVE",
"293 648 CURVE SMOOTH",
"351 648 OFFCURVE",
"409 630 OFFCURVE",
"466 594 CURVE",
"484 681 LINE",
"423 710 OFFCURVE",
"359 724 OFFCURVE",
"292 724 CURVE SMOOTH",
"156 724 OFFCURVE",
"61 645 OFFCURVE",
"61 537 CURVE SMOOTH",
"61 448 OFFCURVE",
"109 393 OFFCURVE",
"209 350 CURVE SMOOTH",
"331 299 LINE SMOOTH",
"390 274 OFFCURVE",
"420 234 OFFCURVE",
"420 181 CURVE SMOOTH",
"420 112 OFFCURVE",
"361 66 OFFCURVE",
"260 66 CURVE SMOOTH",
"199 66 OFFCURVE",
"133 87 OFFCURVE",
"62 129 CURVE",
"52 40 LINE",
"117 7 OFFCURVE",
"186 -10 OFFCURVE",
"257 -10 CURVE SMOOTH",
"413 -10 OFFCURVE",
"506 65 OFFCURVE",
"506 182 CURVE SMOOTH"
);
},
{
closed = 1;
nodes = (
"449 934 LINE",
"391 934 LINE",
"283 833 LINE",
"176 934 LINE",
"120 934 LINE",
"243 754 LINE",
"324 754 LINE"
);
}
);
width = 549;
}
);
note = Scaron;
unicode = 0160;
},
{
glyphname = scaron;
lastChange = "2017-11-01 11:12:25 +0000";
layers = (
{
layerId = "63834EBD-EB8E-4539-93C4-16AFAF002AC8";
paths = (
{
closed = 1;
nodes = (
"446 213 OFFCURVE",
"416 262 OFFCURVE",
"329 297 CURVE SMOOTH",
"201 349 LINE SMOOTH",
"152 369 OFFCURVE",
"137 389 OFFCURVE",
"137 420 CURVE SMOOTH",
"137 464 OFFCURVE",
"175 486 OFFCURVE",
"252 486 CURVE SMOOTH",
"301 486 OFFCURVE",
"352 470 OFFCURVE",
"406 437 CURVE",
"416 525 LINE",
"373 550 OFFCURVE",
"318 562 OFFCURVE",
"251 562 CURVE SMOOTH",
"132 562 OFFCURVE",
"53 506 OFFCURVE",
"53 417 CURVE SMOOTH",
"53 349 OFFCURVE",
"91 300 OFFCURVE",
"166 270 CURVE SMOOTH",
"295 218 LINE SMOOTH",
"347 197 OFFCURVE",
"361 175 OFFCURVE",
"361 142 CURVE SMOOTH",
"361 91 OFFCURVE",
"324 66 OFFCURVE",
"249 66 CURVE SMOOTH",
"178 66 OFFCURVE",
"137 85 OFFCURVE",
"66 126 CURVE",
"55 36 LINE",
"110 5 OFFCURVE",
"175 -10 OFFCURVE",
"251 -10 CURVE SMOOTH",
"375 -10 OFFCURVE",
"446 45 OFFCURVE",
"446 142 CURVE SMOOTH"
);
},
{
closed = 1;
nodes = (
"412 782 LINE",
"354 782 LINE",
"246 681 LINE",
"139 782 LINE",
"83 782 LINE",
"206 602 LINE",
"287 602 LINE"
);
}
);
width = 494;
}
);
note = scaron;
unicode = 0161;
},
{
glyphname = Ydieresis;
lastChange = "2017-11-01 11:12:25 +0000";
layers = (
{
layerId = "63834EBD-EB8E-4539-93C4-16AFAF002AC8";
paths = (
{
closed = 1;
nodes = (
"250 303 LINE",
"250 0 LINE",
"334 0 LINE",
"334 307 LINE",
"572 714 LINE",
"482 714 LINE",
"292 389 LINE",
"103 714 LINE",
"12 714 LINE"
);
},
{
closed = 1;
nodes = (
"173 787 OFFCURVE",
"185 782 OFFCURVE",
"199 782 CURVE SMOOTH",
"226 782 OFFCURVE",
"247 801 OFFCURVE",
"247 833 CURVE SMOOTH",
"247 865 OFFCURVE",
"226 884 OFFCURVE",
"199 884 CURVE SMOOTH",
"171 884 OFFCURVE",
"148 865 OFFCURVE",
"148 833 CURVE SMOOTH",
"148 817 OFFCURVE",
"153 805 OFFCURVE",
"163 796 CURVE SMOOTH"
);
},
{
closed = 1;
nodes = (
"362 787 OFFCURVE",
"374 782 OFFCURVE",
"388 782 CURVE SMOOTH",
"415 782 OFFCURVE",
"436 801 OFFCURVE",
"436 833 CURVE SMOOTH",
"436 865 OFFCURVE",
"415 884 OFFCURVE",
"388 884 CURVE SMOOTH",
"360 884 OFFCURVE",
"337 865 OFFCURVE",
"337 833 CURVE SMOOTH",
"337 817 OFFCURVE",
"342 805 OFFCURVE",
"352 796 CURVE SMOOTH"
);
}
);
width = 584;
}
);
note = Ydieresis;
unicode = 0178;
},
{
glyphname = Zcaron;
lastChange = "2017-11-01 11:12:25 +0000";
layers = (
{
layerId = "63834EBD-EB8E-4539-93C4-16AFAF002AC8";
paths = (
{
closed = 1;
nodes = (
"520 649 LINE",
"520 714 LINE",
"52 714 LINE",
"52 640 LINE",
"419 640 LINE",
"40 65 LINE",
"40 0 LINE",
"531 0 LINE",
"531 74 LINE",
"141 74 LINE"
);
},
{
closed = 1;
nodes = (
"450 934 LINE",
"392 934 LINE",
"284 833 LINE",
"177 934 LINE",
"121 934 LINE",
"244 754 LINE",
"325 754 LINE"
);
}
);
width = 571;
}
);
note = Zcaron;
unicode = 017D;
},
{
glyphname = zcaron;
lastChange = "2017-11-01 11:12:25 +0000";
layers = (
{
layerId = "63834EBD-EB8E-4539-93C4-16AFAF002AC8";
paths = (
{
closed = 1;
nodes = (
"462 482 LINE",
"462 552 LINE",
"58 552 LINE",
"58 482 LINE",
"360 482 LINE",
"39 62 LINE",
"39 0 LINE",
"469 0 LINE",
"469 70 LINE",
"145 70 LINE"
);
},
{
closed = 1;
nodes = (
"415 782 LINE",
"357 782 LINE",
"249 681 LINE",
"142 782 LINE",
"86 782 LINE",
"209 602 LINE",
"290 602 LINE"
);
}
);
width = 502;
}
);
note = zcaron;
unicode = 017E;
},
{
glyphname = florin;
lastChange = "2017-11-01 11:12:25 +0000";
layers = (
{
layerId = "63834EBD-EB8E-4539-93C4-16AFAF002AC8";
paths = (
{
closed = 1;
nodes = (
"121 394 LINE",
"230 394 LINE",
"148 -67 LINE SMOOTH",
"139 -119 OFFCURVE",
"112 -145 OFFCURVE",
"66 -145 CURVE SMOOTH",
"49 -145 OFFCURVE",
"31 -142 OFFCURVE",
"10 -136 CURVE",
"3 -210 LINE",
"21 -217 OFFCURVE",
"41 -220 OFFCURVE",
"63 -220 CURVE SMOOTH",
"156 -220 OFFCURVE",
"211 -173 OFFCURVE",
"228 -79 CURVE SMOOTH",
"313 394 LINE",
"463 394 LINE",
"486 464 LINE",
"326 464 LINE",
"339 542 LINE SMOOTH",
"351 613 OFFCURVE",
"390 648 OFFCURVE",
"455 648 CURVE SMOOTH",
"483 648 OFFCURVE",
"510 643 OFFCURVE",
"536 634 CURVE",
"545 710 LINE",
"519 719 OFFCURVE",
"490 724 OFFCURVE",
"457 724 CURVE SMOOTH",
"346 724 OFFCURVE",
"276 659 OFFCURVE",
"259 558 CURVE SMOOTH",
"243 464 LINE",
"134 464 LINE"
);
}
);
width = 550;
}
);
note = florin;
unicode = 0192;
},
{
glyphname = dotlessj;
lastChange = "2017-11-01 11:12:25 +0000";
layers = (
{
layerId = "63834EBD-EB8E-4539-93C4-16AFAF002AC8";
paths = (
{
closed = 1;
nodes = (
"100 -119 OFFCURVE",
"77 -145 OFFCURVE",
"30 -145 CURVE SMOOTH",
"14 -145 OFFCURVE",
"-5 -143 OFFCURVE",
"-26 -138 CURVE",
"-26 -211 LINE",
"-7 -218 OFFCURVE",
"12 -221 OFFCURVE",
"33 -221 CURVE SMOOTH",
"129 -221 OFFCURVE",
"182 -169 OFFCURVE",
"182 -69 CURVE SMOOTH",
"182 552 LINE",
"100 552 LINE",
"100 -67 LINE SMOOTH"
);
}
);
width = 265;
}
);
note = dotlessj;
unicode = 0237;
},
{
glyphname = circumflex;
lastChange = "2017-11-01 11:12:25 +0000";
layers = (
{
layerId = "63834EBD-EB8E-4539-93C4-16AFAF002AC8";
paths = (
{
closed = 1;
nodes = (
"248 703 LINE",
"356 602 LINE",
"414 602 LINE",
"289 782 LINE",
"208 782 LINE",
"85 602 LINE",
"141 602 LINE"
);
}
);
width = 500;
}
);
note = circumflex;
unicode = 02C6;
},
{
glyphname = caron;
lastChange = "2017-11-01 11:12:25 +0000";
layers = (
{
layerId = "63834EBD-EB8E-4539-93C4-16AFAF002AC8";
paths = (
{
closed = 1;
nodes = (
"414 782 LINE",
"356 782 LINE",
"248 681 LINE",
"141 782 LINE",
"85 782 LINE",
"208 602 LINE",
"289 602 LINE"
);
}
);
width = 500;
}
);
note = caron;
unicode = 02C7;
},
{
glyphname = breve;
lastChange = "2017-11-01 11:12:25 +0000";
layers = (
{
layerId = "63834EBD-EB8E-4539-93C4-16AFAF002AC8";
paths = (
{
closed = 1;
nodes = (
"97 662 OFFCURVE",
"152 602 OFFCURVE",
"249 602 CURVE SMOOTH",
"346 602 OFFCURVE",
"401 662 OFFCURVE",
"414 782 CURVE",
"365 782 LINE",
"351 709 OFFCURVE",
"312 673 OFFCURVE",
"249 673 CURVE SMOOTH",
"186 673 OFFCURVE",
"147 709 OFFCURVE",
"133 782 CURVE",
"84 782 LINE"
);
}
);
width = 500;
}
);
note = breve;
unicode = 02D8;
},
{
glyphname = dotaccent;
lastChange = "2017-11-01 11:12:25 +0000";
layers = (
{
layerId = "63834EBD-EB8E-4539-93C4-16AFAF002AC8";
paths = (
{
closed = 1;
nodes = (
"200 659 OFFCURVE",
"223 640 OFFCURVE",
"251 640 CURVE SMOOTH",
"279 640 OFFCURVE",
"300 659 OFFCURVE",
"300 691 CURVE SMOOTH",
"300 724 OFFCURVE",
"280 742 OFFCURVE",
"251 742 CURVE SMOOTH",
"222 742 OFFCURVE",
"200 724 OFFCURVE",
"200 691 CURVE SMOOTH"
);
}
);
width = 500;
}
);
note = dotaccent;
unicode = 02D9;
},
{
glyphname = ring;
lastChange = "2017-11-01 11:12:25 +0000";
layers = (
{
layerId = "63834EBD-EB8E-4539-93C4-16AFAF002AC8";
paths = (
{
closed = 1;
nodes = (
"359 763 OFFCURVE",
"313 809 OFFCURVE",
"249 809 CURVE SMOOTH",
"185 809 OFFCURVE",
"141 765 OFFCURVE",
"141 705 CURVE SMOOTH",
"141 641 OFFCURVE",
"184 600 OFFCURVE",
"249 600 CURVE SMOOTH",
"314 600 OFFCURVE",
"359 643 OFFCURVE",
"359 706 CURVE SMOOTH"
);
},
{
closed = 1;
nodes = (
"279 653 OFFCURVE",
"266 648 OFFCURVE",
"249 648 CURVE SMOOTH",
"213 648 OFFCURVE",
"192 670 OFFCURVE",
"192 705 CURVE SMOOTH",
"192 738 OFFCURVE",
"216 762 OFFCURVE",
"249 762 CURVE SMOOTH",
"282 762 OFFCURVE",
"306 738 OFFCURVE",
"306 705 CURVE SMOOTH",
"306 688 OFFCURVE",
"301 675 OFFCURVE",
"290 664 CURVE SMOOTH"
);
}
);
width = 500;
}
);
note = ring;
unicode = 02DA;
},
{
glyphname = ogonek;
lastChange = "2017-11-01 11:12:25 +0000";
layers = (
{
layerId = "63834EBD-EB8E-4539-93C4-16AFAF002AC8";
paths = (
{
closed = 1;
nodes = (
"224 -79 OFFCURVE",
"250 -37 OFFCURVE",
"301 0 CURVE",
"252 0 LINE",
"199 -35 OFFCURVE",
"162 -87 OFFCURVE",
"162 -140 CURVE SMOOTH",
"162 -199 OFFCURVE",
"203 -240 OFFCURVE",
"276 -240 CURVE SMOOTH",
"293 -240 OFFCURVE",
"310 -236 OFFCURVE",
"328 -229 CURVE",
"326 -176 LINE",
"310 -181 OFFCURVE",
"295 -184 OFFCURVE",
"280 -184 CURVE SMOOTH",
"245 -184 OFFCURVE",
"224 -161 OFFCURVE",
"224 -125 CURVE SMOOTH"
);
}
);
width = 500;
}
);
note = ogonek;
unicode = 02DB;
},
{
glyphname = tilde;
lastChange = "2017-11-01 11:12:25 +0000";
layers = (
{
layerId = "63834EBD-EB8E-4539-93C4-16AFAF002AC8";
paths = (
{
closed = 1;
nodes = (
"374 636 OFFCURVE",
"407 675 OFFCURVE",
"414 739 CURVE",
"363 757 LINE",
"356 722 OFFCURVE",
"342 705 OFFCURVE",
"321 705 CURVE SMOOTH",
"311 705 OFFCURVE",
"290 713 OFFCURVE",
"259 728 CURVE SMOOTH",
"227 743 OFFCURVE",
"202 751 OFFCURVE",
"185 751 CURVE SMOOTH",
"132 751 OFFCURVE",
"92 711 OFFCURVE",
"85 646 CURVE",
"136 630 LINE",
"143 666 OFFCURVE",
"156 682 OFFCURVE",
"183 682 CURVE SMOOTH",
"194 682 OFFCURVE",
"216 674 OFFCURVE",
"249 659 CURVE SMOOTH",
"281 644 OFFCURVE",
"305 636 OFFCURVE",
"322 636 CURVE SMOOTH"
);
}
);
width = 500;
}
);
note = tilde;
unicode = 02DC;
},
{
glyphname = hungarumlaut;
lastChange = "2017-11-01 11:12:25 +0000";
layers = (
{
layerId = "63834EBD-EB8E-4539-93C4-16AFAF002AC8";
paths = (
{
closed = 1;
nodes = (
"258 782 LINE",
"149 782 LINE",
"89 602 LINE",
"143 602 LINE"
);
},
{
closed = 1;
nodes = (
"428 782 LINE",
"319 782 LINE",
"259 602 LINE",
"313 602 LINE"
);
}
);
width = 500;
}
);
note = hungarumlaut;
unicode = 02DD;
},
{
glyphname = dotbelow;
lastChange = "2017-11-01 11:12:25 +0000";
layers = (
{
layerId = "63834EBD-EB8E-4539-93C4-16AFAF002AC8";
paths = (
{
closed = 1;
nodes = (
"224 -185 OFFCURVE",
"236 -190 OFFCURVE",
"251 -190 CURVE SMOOTH",
"279 -190 OFFCURVE",
"300 -171 OFFCURVE",
"300 -139 CURVE SMOOTH",
"300 -107 OFFCURVE",
"279 -88 OFFCURVE",
"251 -88 CURVE SMOOTH",
"223 -88 OFFCURVE",
"200 -107 OFFCURVE",
"200 -139 CURVE SMOOTH",
"200 -155 OFFCURVE",
"205 -167 OFFCURVE",
"215 -176 CURVE"
);
}
);
width = 500;
}
);
note = dotbelow;
unicode = 0323;
},
{
glyphname = uni0394;
lastChange = "2017-11-01 11:12:25 +0000";
layers = (
{
layerId = "63834EBD-EB8E-4539-93C4-16AFAF002AC8";
paths = (
{
closed = 1;
nodes = (
"282 714 LINE",
"5 0 LINE",
"639 0 LINE",
"363 714 LINE"
);
},
{
closed = 1;
nodes = (
"321 626 LINE",
"392 422 LINE",
"523 74 LINE",
"118 74 LINE",
"257 437 LINE"
);
}
);
width = 644;
}
);
note = uni0394;
unicode = 0394;
},
{
glyphname = uni03A9;
lastChange = "2017-11-01 11:12:25 +0000";
layers = (
{
layerId = "63834EBD-EB8E-4539-93C4-16AFAF002AC8";
paths = (
{
closed = 1;
nodes = (
"98 559 OFFCURVE",
"68 475 OFFCURVE",
"68 374 CURVE SMOOTH",
"68 246 OFFCURVE",
"122 144 OFFCURVE",
"229 68 CURVE",
"108 74 LINE",
"45 74 LINE",
"45 0 LINE",
"321 0 LINE",
"321 71 LINE",
"208 160 OFFCURVE",
"156 241 OFFCURVE",
"156 373 CURVE SMOOTH",
"156 545 OFFCURVE",
"250 648 OFFCURVE",
"390 648 CURVE SMOOTH",
"530 648 OFFCURVE",
"624 545 OFFCURVE",
"624 373 CURVE SMOOTH",
"624 241 OFFCURVE",
"572 161 OFFCURVE",
"459 72 CURVE",
"459 0 LINE",
"735 0 LINE",
"735 74 LINE",
"672 74 LINE",
"551 68 LINE",
"658 144 OFFCURVE",
"712 246 OFFCURVE",
"712 374 CURVE SMOOTH",
"712 577 OFFCURVE",
"579 724 OFFCURVE",
"390 724 CURVE SMOOTH",
"295 724 OFFCURVE",
"218 691 OFFCURVE",
"158 625 CURVE SMOOTH"
);
}
);
width = 780;
}
);
note = uni03A9;
unicode = 03A9;
},
{
glyphname = uni03BC;
lastChange = "2017-11-01 11:12:25 +0000";
layers = (
{
layerId = "63834EBD-EB8E-4539-93C4-16AFAF002AC8";
paths = (
{
closed = 1;
nodes = (
"171 -220 LINE",
"171 -134 LINE",
"162 37 LINE",
"193 6 OFFCURVE",
"235 -10 OFFCURVE",
"290 -10 CURVE SMOOTH",
"361 -10 OFFCURVE",
"425 26 OFFCURVE",
"462 87 CURVE",
"462 0 LINE",
"545 0 LINE",
"545 552 LINE",
"461 552 LINE",
"461 304 LINE SMOOTH",
"461 160 OFFCURVE",
"419 66 OFFCURVE",
"303 66 CURVE SMOOTH",
"215 66 OFFCURVE",
"171 118 OFFCURVE",
"171 221 CURVE SMOOTH",
"171 552 LINE",
"88 552 LINE",
"88 -220 LINE"
);
}
);
width = 633;
}
);
note = uni03BC;
unicode = 03BC;
},
{
glyphname = pi;
lastChange = "2017-11-01 11:12:25 +0000";
layers = (
{
layerId = "63834EBD-EB8E-4539-93C4-16AFAF002AC8";
paths = (
{
closed = 1;
nodes = (
"15 552 LINE",
"15 482 LINE",
"125 482 LINE",
"125 0 LINE",
"207 0 LINE",
"207 482 LINE",
"441 482 LINE",
"441 142 LINE SMOOTH",
"441 42 OFFCURVE",
"494 -10 OFFCURVE",
"590 -10 CURVE SMOOTH",
"611 -10 OFFCURVE",
"630 -7 OFFCURVE",
"649 0 CURVE",
"646 78 LINE",
"630 70 OFFCURVE",
"612 66 OFFCURVE",
"593 66 CURVE SMOOTH",
"546 66 OFFCURVE",
"523 92 OFFCURVE",
"523 144 CURVE SMOOTH",
"523 482 LINE",
"652 482 LINE",
"662 552 LINE"
);
}
);
width = 686;
}
);
note = pi;
unicode = 03C0;
},
{
glyphname = endash;
lastChange = "2017-11-01 11:12:25 +0000";
layers = (
{
layerId = "63834EBD-EB8E-4539-93C4-16AFAF002AC8";
paths = (
{
closed = 1;
nodes = (
"500 391 LINE",
"0 391 LINE",
"0 323 LINE",
"500 323 LINE"
);
}
);
width = 500;
}
);
note = endash;
unicode = 2013;
},
{
glyphname = emdash;
lastChange = "2017-11-01 11:12:25 +0000";
layers = (
{
layerId = "63834EBD-EB8E-4539-93C4-16AFAF002AC8";
paths = (
{
closed = 1;
nodes = (
"1000 391 LINE",
"0 391 LINE",
"0 323 LINE",
"1000 323 LINE"
);
}
);
width = 1000;
}
);
note = emdash;
unicode = 2014;
},
{
glyphname = quoteleft;
lastChange = "2017-11-01 11:12:25 +0000";
layers = (
{
layerId = "63834EBD-EB8E-4539-93C4-16AFAF002AC8";
paths = (
{
closed = 1;
nodes = (
"147 714 LINE",
"57 486 LINE",
"156 486 LINE",
"207 714 LINE"
);
}
);
width = 250;
}
);
note = quoteleft;
unicode = 2018;
},
{
glyphname = quoteright;
lastChange = "2017-11-01 11:12:25 +0000";
layers = (
{
layerId = "63834EBD-EB8E-4539-93C4-16AFAF002AC8";
paths = (
{
closed = 1;
nodes = (
"103 486 LINE",
"193 714 LINE",
"94 714 LINE",
"43 486 LINE"
);
}
);
width = 250;
}
);
note = quoteright;
unicode = 2019;
},
{
glyphname = quotesinglbase;
lastChange = "2017-11-01 11:12:25 +0000";
layers = (
{
layerId = "63834EBD-EB8E-4539-93C4-16AFAF002AC8";
paths = (
{
closed = 1;
nodes = (
"103 -128 LINE",
"193 108 LINE",
"94 108 LINE",
"43 -128 LINE"
);
}
);
width = 250;
}
);
note = quotesinglbase;
unicode = 201A;
},
{
glyphname = quotedblleft;
lastChange = "2017-11-01 11:12:25 +0000";
layers = (
{
layerId = "63834EBD-EB8E-4539-93C4-16AFAF002AC8";
paths = (
{
closed = 1;
nodes = (
"317 714 LINE",
"227 486 LINE",
"326 486 LINE",
"377 714 LINE"
);
},
{
closed = 1;
nodes = (
"147 714 LINE",
"57 486 LINE",
"156 486 LINE",
"207 714 LINE"
);
}
);
width = 420;
}
);
note = quotedblleft;
unicode = 201C;
},
{
glyphname = quotedblright;
lastChange = "2017-11-01 11:12:25 +0000";
layers = (
{
layerId = "63834EBD-EB8E-4539-93C4-16AFAF002AC8";
paths = (
{
closed = 1;
nodes = (
"103 486 LINE",
"193 714 LINE",
"94 714 LINE",
"43 486 LINE"
);
},
{
closed = 1;
nodes = (
"273 486 LINE",
"363 714 LINE",
"264 714 LINE",
"213 486 LINE"
);
}
);
width = 420;
}
);
note = quotedblright;
unicode = 201D;
},
{
glyphname = quotedblbase;
lastChange = "2017-11-01 11:12:25 +0000";
layers = (
{
layerId = "63834EBD-EB8E-4539-93C4-16AFAF002AC8";
paths = (
{
closed = 1;
nodes = (
"103 -128 LINE",
"193 108 LINE",
"94 108 LINE",
"43 -128 LINE"
);
},
{
closed = 1;
nodes = (
"273 -128 LINE",
"363 108 LINE",
"264 108 LINE",
"213 -128 LINE"
);
}
);
width = 420;
}
);
note = quotedblbase;
unicode = 201E;
},
{
glyphname = dagger;
lastChange = "2017-11-01 11:12:25 +0000";
layers = (
{
layerId = "63834EBD-EB8E-4539-93C4-16AFAF002AC8";
paths = (
{
closed = 1;
nodes = (
"227 -220 LINE",
"295 -220 LINE",
"295 484 LINE",
"482 484 LINE",
"482 552 LINE",
"295 552 LINE",
"295 742 LINE",
"227 742 LINE",
"227 552 LINE",
"40 552 LINE",
"40 484 LINE",
"227 484 LINE"
);
}
);
width = 522;
}
);
note = dagger;
unicode = 2020;
},
{
glyphname = daggerdbl;
lastChange = "2017-11-01 11:12:25 +0000";
layers = (
{
layerId = "63834EBD-EB8E-4539-93C4-16AFAF002AC8";
paths = (
{
closed = 1;
nodes = (
"227 68 LINE",
"40 68 LINE",
"40 0 LINE",
"227 0 LINE",
"227 -220 LINE",
"295 -220 LINE",
"295 0 LINE",
"482 0 LINE",
"482 68 LINE",
"295 68 LINE",
"295 484 LINE",
"482 484 LINE",
"482 552 LINE",
"295 552 LINE",
"295 742 LINE",
"227 742 LINE",
"227 552 LINE",
"40 552 LINE",
"40 484 LINE",
"227 484 LINE"
);
}
);
width = 522;
}
);
note = daggerdbl;
unicode = 2021;
},
{
glyphname = bullet;
lastChange = "2017-11-01 11:12:25 +0000";
layers = (
{
layerId = "63834EBD-EB8E-4539-93C4-16AFAF002AC8";
paths = (
{
closed = 1;
nodes = (
"162 202 OFFCURVE",
"203 185 OFFCURVE",
"250 185 CURVE SMOOTH",
"345 185 OFFCURVE",
"422 262 OFFCURVE",
"422 357 CURVE SMOOTH",
"422 452 OFFCURVE",
"345 529 OFFCURVE",
"250 529 CURVE SMOOTH",
"155 529 OFFCURVE",
"78 452 OFFCURVE",
"78 357 CURVE SMOOTH",
"78 310 OFFCURVE",
"95 269 OFFCURVE",
"129 236 CURVE SMOOTH"
);
}
);
width = 500;
}
);
note = bullet;
unicode = 2022;
},
{
glyphname = ellipsis;
lastChange = "2017-11-01 11:12:25 +0000";
layers = (
{
layerId = "63834EBD-EB8E-4539-93C4-16AFAF002AC8";
paths = (
{
closed = 1;
nodes = (
"67 14 OFFCURVE",
"94 -10 OFFCURVE",
"126 -10 CURVE SMOOTH",
"157 -10 OFFCURVE",
"183 14 OFFCURVE",
"183 49 CURVE SMOOTH",
"183 85 OFFCURVE",
"157 108 OFFCURVE",
"126 108 CURVE SMOOTH",
"94 108 OFFCURVE",
"67 85 OFFCURVE",
"67 49 CURVE SMOOTH"
);
},
{
closed = 1;
nodes = (
"317 14 OFFCURVE",
"344 -10 OFFCURVE",
"376 -10 CURVE SMOOTH",
"407 -10 OFFCURVE",
"433 14 OFFCURVE",
"433 49 CURVE SMOOTH",
"433 85 OFFCURVE",
"407 108 OFFCURVE",
"376 108 CURVE SMOOTH",
"344 108 OFFCURVE",
"317 85 OFFCURVE",
"317 49 CURVE SMOOTH"
);
},
{
closed = 1;
nodes = (
"567 14 OFFCURVE",
"594 -10 OFFCURVE",
"626 -10 CURVE SMOOTH",
"657 -10 OFFCURVE",
"683 14 OFFCURVE",
"683 49 CURVE SMOOTH",
"683 85 OFFCURVE",
"657 108 OFFCURVE",
"626 108 CURVE SMOOTH",
"594 108 OFFCURVE",
"567 85 OFFCURVE",
"567 49 CURVE SMOOTH"
);
}
);
width = 750;
}
);
note = ellipsis;
unicode = 2026;
},
{
glyphname = perthousand;
lastChange = "2017-11-01 11:12:25 +0000";
layers = (
{
layerId = "63834EBD-EB8E-4539-93C4-16AFAF002AC8";
paths = (
{
closed = 1;
nodes = (
"328 0 LINE",
"634 714 LINE",
"552 714 LINE",
"246 0 LINE"
);
},
{
closed = 1;
nodes = (
"132 647 OFFCURVE",
"154 659 OFFCURVE",
"181 659 CURVE SMOOTH",
"236 659 OFFCURVE",
"271 609 OFFCURVE",
"271 521 CURVE SMOOTH",
"271 432 OFFCURVE",
"236 382 OFFCURVE",
"181 382 CURVE SMOOTH",
"126 382 OFFCURVE",
"94 432 OFFCURVE",
"94 521 CURVE SMOOTH",
"94 566 OFFCURVE",
"102 600 OFFCURVE",
"117 624 CURVE SMOOTH"
);
},
{
closed = 1;
nodes = (
"341 649 OFFCURVE",
"274 724 OFFCURVE",
"181 724 CURVE SMOOTH",
"86 724 OFFCURVE",
"24 654 OFFCURVE",
"24 521 CURVE SMOOTH",
"24 392 OFFCURVE",
"90 316 OFFCURVE",
"181 316 CURVE SMOOTH",
"276 316 OFFCURVE",
"341 388 OFFCURVE",
"341 521 CURVE SMOOTH"
);
},
{
closed = 1;
nodes = (
"649 322 OFFCURVE",
"671 334 OFFCURVE",
"698 334 CURVE SMOOTH",
"753 334 OFFCURVE",
"788 284 OFFCURVE",
"788 196 CURVE SMOOTH",
"788 107 OFFCURVE",
"753 57 OFFCURVE",
"698 57 CURVE SMOOTH",
"643 57 OFFCURVE",
"611 107 OFFCURVE",
"611 196 CURVE SMOOTH",
"611 241 OFFCURVE",
"619 275 OFFCURVE",
"634 299 CURVE SMOOTH"
);
},
{
closed = 1;
nodes = (
"858 324 OFFCURVE",
"791 399 OFFCURVE",
"698 399 CURVE SMOOTH",
"603 399 OFFCURVE",
"541 329 OFFCURVE",
"541 196 CURVE SMOOTH",
"541 67 OFFCURVE",
"607 -9 OFFCURVE",
"698 -9 CURVE SMOOTH",
"793 -9 OFFCURVE",
"858 63 OFFCURVE",
"858 196 CURVE SMOOTH"
);
},
{
closed = 1;
nodes = (
"1014 322 OFFCURVE",
"1036 334 OFFCURVE",
"1063 334 CURVE SMOOTH",
"1118 334 OFFCURVE",
"1153 284 OFFCURVE",
"1153 196 CURVE SMOOTH",
"1153 107 OFFCURVE",
"1118 57 OFFCURVE",
"1063 57 CURVE SMOOTH",
"1008 57 OFFCURVE",
"976 107 OFFCURVE",
"976 196 CURVE SMOOTH",
"976 241 OFFCURVE",
"984 275 OFFCURVE",
"999 299 CURVE SMOOTH"
);
},
{
closed = 1;
nodes = (
"1223 324 OFFCURVE",
"1156 399 OFFCURVE",
"1063 399 CURVE SMOOTH",
"968 399 OFFCURVE",
"906 329 OFFCURVE",
"906 196 CURVE SMOOTH",
"906 67 OFFCURVE",
"972 -9 OFFCURVE",
"1063 -9 CURVE SMOOTH",
"1158 -9 OFFCURVE",
"1223 63 OFFCURVE",
"1223 196 CURVE SMOOTH"
);
}
);
width = 1247;
}
);
note = perthousand;
unicode = 2030;
},
{
glyphname = guilsinglleft;
lastChange = "2017-11-01 11:12:25 +0000";
layers = (
{
layerId = "63834EBD-EB8E-4539-93C4-16AFAF002AC8";
paths = (
{
closed = 1;
nodes = (
"302 50 LINE",
"117 268 LINE",
"302 486 LINE",
"213 486 LINE",
"30 268 LINE",
"213 50 LINE"
);
}
);
width = 322;
}
);
note = guilsinglleft;
unicode = 2039;
},
{
glyphname = guilsinglright;
lastChange = "2017-11-01 11:12:25 +0000";
layers = (
{
layerId = "63834EBD-EB8E-4539-93C4-16AFAF002AC8";
paths = (
{
closed = 1;
nodes = (
"205 268 LINE",
"20 50 LINE",
"109 50 LINE",
"292 268 LINE",
"109 486 LINE",
"20 486 LINE"
);
}
);
width = 322;
}
);
note = guilsinglright;
unicode = 203A;
},
{
glyphname = fraction;
lastChange = "2017-11-01 11:12:25 +0000";
layers = (
{
layerId = "63834EBD-EB8E-4539-93C4-16AFAF002AC8";
paths = (
{
closed = 1;
nodes = (
"-75 0 LINE",
"383 742 LINE",
"307 742 LINE",
"-151 0 LINE"
);
}
);
width = 232;
}
);
note = fraction;
unicode = 2044;
},
{
glyphname = zerosuperior;
lastChange = "2017-11-01 11:12:25 +0000";
layers = (
{
layerId = "63834EBD-EB8E-4539-93C4-16AFAF002AC8";
paths = (
{
closed = 1;
nodes = (
"270 729 OFFCURVE",
"232 748 OFFCURVE",
"184 748 CURVE SMOOTH",
"87 748 OFFCURVE",
"30 671 OFFCURVE",
"30 519 CURVE SMOOTH",
"30 367 OFFCURVE",
"87 288 OFFCURVE",
"184 288 CURVE SMOOTH",
"280 288 OFFCURVE",
"337 367 OFFCURVE",
"337 519 CURVE SMOOTH",
"337 595 OFFCURVE",
"324 652 OFFCURVE",
"297 691 CURVE SMOOTH"
);
},
{
closed = 1;
nodes = (
"266 409 OFFCURVE",
"239 354 OFFCURVE",
"184 354 CURVE SMOOTH",
"129 354 OFFCURVE",
"102 409 OFFCURVE",
"102 519 CURVE SMOOTH",
"102 628 OFFCURVE",
"129 683 OFFCURVE",
"184 683 CURVE SMOOTH",
"239 683 OFFCURVE",
"266 628 OFFCURVE",
"266 519 CURVE SMOOTH"
);
}
);
width = 367;
}
);
note = zerosuperior;
unicode = 2070;
},
{
glyphname = foursuperior;
lastChange = "2017-11-01 11:12:25 +0000";
layers = (
{
layerId = "63834EBD-EB8E-4539-93C4-16AFAF002AC8";
paths = (
{
closed = 1;
nodes = (
"292 742 LINE",
"221 742 LINE",
"15 448 LINE",
"15 390 LINE",
"223 390 LINE",
"223 294 LINE",
"292 294 LINE",
"292 390 LINE",
"353 390 LINE",
"353 457 LINE",
"292 457 LINE"
);
},
{
closed = 1;
nodes = (
"223 651 LINE",
"223 457 LINE",
"94 457 LINE",
"159 551 LINE"
);
}
);
width = 367;
}
);
note = foursuperior;
unicode = 2074;
},
{
glyphname = fivesuperior;
lastChange = "2017-11-01 11:12:25 +0000";
layers = (
{
layerId = "63834EBD-EB8E-4539-93C4-16AFAF002AC8";
paths = (
{
closed = 1;
nodes = (
"74 300 OFFCURVE",
"119 288 OFFCURVE",
"169 288 CURVE SMOOTH",
"269 288 OFFCURVE",
"332 353 OFFCURVE",
"332 441 CURVE SMOOTH",
"332 525 OFFCURVE",
"268 583 OFFCURVE",
"173 583 CURVE SMOOTH",
"152 583 OFFCURVE",
"134 582 OFFCURVE",
"119 579 CURVE",
"128 678 LINE",
"289 678 LINE",
"303 742 LINE",
"68 742 LINE",
"49 503 LINE",
"90 518 OFFCURVE",
"128 526 OFFCURVE",
"163 526 CURVE SMOOTH",
"223 526 OFFCURVE",
"261 493 OFFCURVE",
"261 442 CURVE SMOOTH",
"261 387 OFFCURVE",
"228 354 OFFCURVE",
"169 354 CURVE SMOOTH",
"124 354 OFFCURVE",
"83 368 OFFCURVE",
"46 396 CURVE",
"33 325 LINE"
);
}
);
width = 367;
}
);
note = fivesuperior;
unicode = 2075;
},
{
glyphname = sixsuperior;
lastChange = "2017-11-01 11:12:25 +0000";
layers = (
{
layerId = "63834EBD-EB8E-4539-93C4-16AFAF002AC8";
paths = (
{
closed = 1;
nodes = (
"290 741 OFFCURVE",
"256 748 OFFCURVE",
"219 748 CURVE SMOOTH",
"106 748 OFFCURVE",
"36 656 OFFCURVE",
"36 485 CURVE SMOOTH",
"36 360 OFFCURVE",
"89 288 OFFCURVE",
"192 288 CURVE SMOOTH",
"276 288 OFFCURVE",
"339 353 OFFCURVE",
"339 437 CURVE SMOOTH",
"339 520 OFFCURVE",
"276 578 OFFCURVE",
"203 578 CURVE SMOOTH",
"163 578 OFFCURVE",
"131 562 OFFCURVE",
"107 531 CURVE",
"111 626 OFFCURVE",
"155 683 OFFCURVE",
"219 683 CURVE SMOOTH",
"248 683 OFFCURVE",
"279 674 OFFCURVE",
"312 655 CURVE",
"321 726 LINE"
);
},
{
closed = 1;
nodes = (
"108 485 OFFCURVE",
"142 518 OFFCURVE",
"190 518 CURVE SMOOTH",
"237 518 OFFCURVE",
"269 483 OFFCURVE",
"269 438 CURVE SMOOTH",
"269 390 OFFCURVE",
"239 354 OFFCURVE",
"191 354 CURVE SMOOTH",
"140 354 OFFCURVE",
"108 391 OFFCURVE",
"108 440 CURVE SMOOTH"
);
}
);
width = 367;
}
);
note = sixsuperior;
unicode = 2076;
},
{
glyphname = sevensuperior;
lastChange = "2017-11-01 11:12:25 +0000";
layers = (
{
layerId = "63834EBD-EB8E-4539-93C4-16AFAF002AC8";
paths = (
{
closed = 1;
nodes = (
"337 742 LINE",
"32 742 LINE",
"32 678 LINE",
"267 678 LINE",
"195 528 LINE",
"76 294 LINE",
"158 294 LINE",
"337 691 LINE"
);
}
);
width = 367;
}
);
note = sevensuperior;
unicode = 2077;
},
{
glyphname = eightsuperior;
lastChange = "2017-11-01 11:12:25 +0000";
layers = (
{
layerId = "63834EBD-EB8E-4539-93C4-16AFAF002AC8";
paths = (
{
closed = 1;
nodes = (
"34 340 OFFCURVE",
"93 288 OFFCURVE",
"185 288 CURVE SMOOTH",
"274 288 OFFCURVE",
"334 343 OFFCURVE",
"334 415 CURVE SMOOTH",
"334 465 OFFCURVE",
"304 505 OFFCURVE",
"245 535 CURVE",
"294 554 OFFCURVE",
"319 586 OFFCURVE",
"319 631 CURVE SMOOTH",
"319 700 OFFCURVE",
"261 748 OFFCURVE",
"182 748 CURVE SMOOTH",
"107 748 OFFCURVE",
"48 696 OFFCURVE",
"48 628 CURVE SMOOTH",
"48 586 OFFCURVE",
"70 552 OFFCURVE",
"115 525 CURVE",
"61 500 OFFCURVE",
"34 462 OFFCURVE",
"34 411 CURVE SMOOTH"
);
},
{
closed = 1;
nodes = (
"245 463 OFFCURVE",
"264 441 OFFCURVE",
"264 416 CURVE SMOOTH",
"264 380 OFFCURVE",
"232 354 OFFCURVE",
"185 354 CURVE SMOOTH",
"137 354 OFFCURVE",
"103 381 OFFCURVE",
"103 418 CURVE SMOOTH",
"103 453 OFFCURVE",
"124 480 OFFCURVE",
"166 499 CURVE",
"207 482 LINE"
);
},
{
closed = 1;
nodes = (
"116 659 OFFCURVE",
"143 683 OFFCURVE",
"182 683 CURVE SMOOTH",
"221 683 OFFCURVE",
"250 660 OFFCURVE",
"250 628 CURVE SMOOTH",
"250 598 OFFCURVE",
"231 575 OFFCURVE",
"194 559 CURVE",
"165 572 LINE SMOOTH",
"132 586 OFFCURVE",
"116 605 OFFCURVE",
"116 628 CURVE SMOOTH"
);
}
);
width = 367;
}
);
note = eightsuperior;
unicode = 2078;
},
{
glyphname = ninesuperior;
lastChange = "2017-11-01 11:12:25 +0000";
layers = (
{
layerId = "63834EBD-EB8E-4539-93C4-16AFAF002AC8";
paths = (
{
closed = 1;
nodes = (
"77 295 OFFCURVE",
"111 288 OFFCURVE",
"148 288 CURVE SMOOTH",
"264 288 OFFCURVE",
"331 376 OFFCURVE",
"331 551 CURVE SMOOTH",
"331 676 OFFCURVE",
"278 748 OFFCURVE",
"175 748 CURVE SMOOTH",
"91 748 OFFCURVE",
"28 683 OFFCURVE",
"28 599 CURVE SMOOTH",
"28 516 OFFCURVE",
"91 458 OFFCURVE",
"164 458 CURVE SMOOTH",
"204 458 OFFCURVE",
"236 474 OFFCURVE",
"260 505 CURVE",
"256 406 OFFCURVE",
"215 353 OFFCURVE",
"148 353 CURVE SMOOTH",
"119 353 OFFCURVE",
"88 362 OFFCURVE",
"55 381 CURVE",
"46 310 LINE"
);
},
{
closed = 1;
nodes = (
"259 551 OFFCURVE",
"225 518 OFFCURVE",
"177 518 CURVE SMOOTH",
"130 518 OFFCURVE",
"98 553 OFFCURVE",
"98 598 CURVE SMOOTH",
"98 646 OFFCURVE",
"128 682 OFFCURVE",
"176 682 CURVE SMOOTH",
"227 682 OFFCURVE",
"259 645 OFFCURVE",
"259 596 CURVE SMOOTH"
);
}
);
width = 367;
}
);
note = ninesuperior;
unicode = 2079;
},
{
glyphname = parenleftsuperior;
lastChange = "2017-11-01 11:12:25 +0000";
layers = (
{
layerId = "63834EBD-EB8E-4539-93C4-16AFAF002AC8";
paths = (
{
closed = 1;
nodes = (
"76 352 OFFCURVE",
"101 314 OFFCURVE",
"134 277 CURVE",
"205 277 LINE",
"137 360 OFFCURVE",
"104 430 OFFCURVE",
"104 518 CURVE SMOOTH",
"104 607 OFFCURVE",
"137 676 OFFCURVE",
"205 759 CURVE",
"134 759 LINE",
"69 684 OFFCURVE",
"32 615 OFFCURVE",
"32 518 CURVE SMOOTH",
"32 469 OFFCURVE",
"41 426 OFFCURVE",
"59 389 CURVE SMOOTH"
);
}
);
width = 202;
}
);
note = parenleftsuperior;
unicode = 207D;
},
{
glyphname = parenrightsuperior;
lastChange = "2017-11-01 11:12:25 +0000";
layers = (
{
layerId = "63834EBD-EB8E-4539-93C4-16AFAF002AC8";
paths = (
{
closed = 1;
nodes = (
"126 684 OFFCURVE",
"100 721 OFFCURVE",
"67 759 CURVE",
"-3 759 LINE",
"65 676 OFFCURVE",
"97 607 OFFCURVE",
"97 518 CURVE SMOOTH",
"97 430 OFFCURVE",
"65 362 OFFCURVE",
"-3 277 CURVE",
"67 277 LINE",
"134 353 OFFCURVE",
"170 419 OFFCURVE",
"170 518 CURVE SMOOTH",
"170 567 OFFCURVE",
"161 610 OFFCURVE",
"144 647 CURVE SMOOTH"
);
}
);
width = 202;
}
);
note = parenrightsuperior;
unicode = 207E;
},
{
glyphname = Euro;
lastChange = "2017-11-01 11:12:25 +0000";
layers = (
{
layerId = "63834EBD-EB8E-4539-93C4-16AFAF002AC8";
paths = (
{
closed = 1;
nodes = (
"120 391 OFFCURVE",
"119 376 OFFCURVE",
"119 356 CURVE SMOOTH",
"119 344 OFFCURVE",
"120 328 OFFCURVE",
"121 308 CURVE",
"20 308 LINE",
"20 240 LINE",
"134 240 LINE",
"177 83 OFFCURVE",
"308 -10 OFFCURVE",
"467 -10 CURVE SMOOTH",
"544 -10 OFFCURVE",
"608 2 OFFCURVE",
"660 25 CURVE",
"650 109 LINE",
"595 80 OFFCURVE",
"535 66 OFFCURVE",
"472 66 CURVE SMOOTH",
"357 66 OFFCURVE",
"263 128 OFFCURVE",
"224 240 CURVE",
"453 240 LINE",
"483 308 LINE",
"209 308 LINE",
"208 327 OFFCURVE",
"207 342 OFFCURVE",
"207 354 CURVE SMOOTH",
"207 365 OFFCURVE",
"208 381 OFFCURVE",
"209 401 CURVE",
"523 401 LINE",
"553 469 LINE",
"222 469 LINE",
"257 588 OFFCURVE",
"347 648 OFFCURVE",
"470 648 CURVE SMOOTH",
"526 648 OFFCURVE",
"575 637 OFFCURVE",
"617 616 CURVE",
"651 694 LINE",
"599 714 OFFCURVE",
"538 724 OFFCURVE",
"469 724 CURVE SMOOTH",
"300 724 OFFCURVE",
"172 629 OFFCURVE",
"132 469 CURVE",
"20 469 LINE",
"20 401 LINE",
"121 401 LINE"
);
}
);
width = 691;
}
);
note = Euro;
unicode = 20AC;
},
{
glyphname = trademark;
lastChange = "2017-11-01 11:12:25 +0000";
layers = (
{
layerId = "63834EBD-EB8E-4539-93C4-16AFAF002AC8";
paths = (
{
closed = 1;
nodes = (
"614 425 LINE",
"614 333 LINE",
"679 333 LINE",
"679 714 LINE",
"612 714 LINE",
"505 520 LINE",
"400 714 LINE",
"333 714 LINE",
"333 333 LINE",
"395 333 LINE",
"395 422 LINE",
"393 602 LINE",
"479 433 LINE",
"529 433 LINE",
"616 600 LINE"
);
},
{
closed = 1;
nodes = (
"282 714 LINE",
"20 714 LINE",
"20 653 LINE",
"118 653 LINE",
"118 333 LINE",
"184 333 LINE",
"184 653 LINE",
"282 653 LINE"
);
}
);
width = 734;
}
);
note = trademark;
unicode = 2122;
},
{
glyphname = Omega;
lastChange = "2017-11-01 11:12:25 +0000";
layers = (
{
layerId = "63834EBD-EB8E-4539-93C4-16AFAF002AC8";
paths = (
{
closed = 1;
nodes = (
"98 559 OFFCURVE",
"68 475 OFFCURVE",
"68 374 CURVE SMOOTH",
"68 246 OFFCURVE",
"122 144 OFFCURVE",
"229 68 CURVE",
"108 74 LINE",
"45 74 LINE",
"45 0 LINE",
"321 0 LINE",
"321 71 LINE",
"208 160 OFFCURVE",
"156 241 OFFCURVE",
"156 373 CURVE SMOOTH",
"156 545 OFFCURVE",
"250 648 OFFCURVE",
"390 648 CURVE SMOOTH",
"530 648 OFFCURVE",
"624 545 OFFCURVE",
"624 373 CURVE SMOOTH",
"624 241 OFFCURVE",
"572 161 OFFCURVE",
"459 72 CURVE",
"459 0 LINE",
"735 0 LINE",
"735 74 LINE",
"672 74 LINE",
"551 68 LINE",
"658 144 OFFCURVE",
"712 246 OFFCURVE",
"712 374 CURVE SMOOTH",
"712 577 OFFCURVE",
"579 724 OFFCURVE",
"390 724 CURVE SMOOTH",
"295 724 OFFCURVE",
"218 691 OFFCURVE",
"158 625 CURVE SMOOTH"
);
}
);
width = 780;
}
);
note = Omega;
unicode = 2126;
},
{
glyphname = arrowleft;
lastChange = "2017-11-01 11:12:25 +0000";
layers = (
{
layerId = "63834EBD-EB8E-4539-93C4-16AFAF002AC8";
paths = (
{
closed = 1;
nodes = (
"298 85 LINE",
"298 170 LINE",
"108 328 LINE",
"356 323 LINE",
"1000 323 LINE",
"1000 391 LINE",
"356 391 LINE",
"108 386 LINE",
"298 544 LINE",
"298 629 LINE",
"0 379 LINE",
"0 336 LINE"
);
}
);
width = 1000;
}
);
note = arrowleft;
unicode = 2190;
},
{
glyphname = arrowright;
lastChange = "2017-11-01 11:12:25 +0000";
layers = (
{
layerId = "63834EBD-EB8E-4539-93C4-16AFAF002AC8";
paths = (
{
closed = 1;
nodes = (
"892 386 LINE",
"644 391 LINE",
"0 391 LINE",
"0 323 LINE",
"644 323 LINE",
"892 328 LINE",
"702 170 LINE",
"702 85 LINE",
"1000 336 LINE",
"1000 379 LINE",
"702 629 LINE",
"702 544 LINE"
);
}
);
width = 1000;
}
);
note = arrowright;
unicode = 2192;
},
{
glyphname = arrowboth;
lastChange = "2017-11-01 11:12:25 +0000";
layers = (
{
layerId = "63834EBD-EB8E-4539-93C4-16AFAF002AC8";
paths = (
{
closed = 1;
nodes = (
"1248 386 LINE",
"1000 391 LINE",
"356 391 LINE",
"108 386 LINE",
"298 544 LINE",
"298 629 LINE",
"0 379 LINE",
"0 336 LINE",
"298 85 LINE",
"298 170 LINE",
"108 328 LINE",
"356 323 LINE",
"1000 323 LINE",
"1248 328 LINE",
"1058 170 LINE",
"1058 85 LINE",
"1356 336 LINE",
"1356 379 LINE",
"1058 629 LINE",
"1058 544 LINE"
);
}
);
width = 1356;
}
);
note = arrowboth;
unicode = 2194;
},
{
glyphname = partialdiff;
lastChange = "2017-11-01 11:12:25 +0000";
layers = (
{
layerId = "63834EBD-EB8E-4539-93C4-16AFAF002AC8";
paths = (
{
closed = 1;
nodes = (
"528 572 OFFCURVE",
"494 650 OFFCURVE",
"427 693 CURVE SMOOTH",
"394 714 OFFCURVE",
"354 724 OFFCURVE",
"309 724 CURVE SMOOTH",
"255 724 OFFCURVE",
"211 713 OFFCURVE",
"178 691 CURVE",
"185 612 LINE",
"224 637 OFFCURVE",
"264 649 OFFCURVE",
"307 649 CURVE SMOOTH",
"398 649 OFFCURVE",
"445 581 OFFCURVE",
"445 456 CURVE SMOOTH",
"445 452 OFFCURVE",
"445 446 OFFCURVE",
"444 437 CURVE SMOOTH",
"443 428 OFFCURVE",
"443 422 OFFCURVE",
"443 417 CURVE",
"413 474 OFFCURVE",
"366 503 OFFCURVE",
"302 503 CURVE SMOOTH",
"246 503 OFFCURVE",
"197 484 OFFCURVE",
"155 446 CURVE SMOOTH",
"90 387 OFFCURVE",
"47 293 OFFCURVE",
"47 196 CURVE SMOOTH",
"47 68 OFFCURVE",
"119 -10 OFFCURVE",
"226 -10 CURVE SMOOTH",
"387 -10 OFFCURVE",
"528 154 OFFCURVE",
"528 457 CURVE SMOOTH"
);
},
{
closed = 1;
nodes = (
"168 66 OFFCURVE",
"135 112 OFFCURVE",
"135 189 CURVE SMOOTH",
"135 312 OFFCURVE",
"213 429 OFFCURVE",
"313 429 CURVE SMOOTH",
"382 429 OFFCURVE",
"417 380 OFFCURVE",
"417 315 CURVE SMOOTH",
"417 280 OFFCURVE",
"410 246 OFFCURVE",
"396 213 CURVE SMOOTH",
"360 128 OFFCURVE",
"302 66 OFFCURVE",
"231 66 CURVE SMOOTH"
);
}
);
width = 581;
}
);
note = partialdiff;
unicode = 2202;
},
{
glyphname = Delta;
lastChange = "2017-11-01 11:12:25 +0000";
layers = (
{
layerId = "63834EBD-EB8E-4539-93C4-16AFAF002AC8";
paths = (
{
closed = 1;
nodes = (
"282 714 LINE",
"5 0 LINE",
"639 0 LINE",
"363 714 LINE"
);
},
{
closed = 1;
nodes = (
"321 626 LINE",
"392 422 LINE",
"523 74 LINE",
"118 74 LINE",
"257 437 LINE"
);
}
);
width = 644;
}
);
note = Delta;
unicode = 2206;
},
{
glyphname = product;
lastChange = "2017-11-01 11:12:25 +0000";
layers = (
{
layerId = "63834EBD-EB8E-4539-93C4-16AFAF002AC8";
paths = (
{
closed = 1;
nodes = (
"98 -220 LINE",
"181 -220 LINE",
"181 640 LINE",
"537 640 LINE",
"537 -220 LINE",
"620 -220 LINE",
"620 714 LINE",
"98 714 LINE"
);
}
);
width = 718;
}
);
note = product;
unicode = 220F;
},
{
glyphname = summation;
lastChange = "2017-11-01 11:12:25 +0000";
layers = (
{
layerId = "63834EBD-EB8E-4539-93C4-16AFAF002AC8";
paths = (
{
closed = 1;
nodes = (
"531 640 LINE",
"531 714 LINE",
"43 714 LINE",
"43 649 LINE",
"307 271 LINE",
"30 -155 LINE",
"30 -220 LINE",
"561 -220 LINE",
"561 -146 LINE",
"131 -146 LINE",
"405 274 LINE",
"146 640 LINE"
);
}
);
width = 571;
}
);
note = summation;
unicode = 2211;
},
{
glyphname = minus;
lastChange = "2017-11-01 11:12:25 +0000";
layers = (
{
layerId = "63834EBD-EB8E-4539-93C4-16AFAF002AC8";
paths = (
{
closed = 1;
nodes = (
"520 324 LINE",
"520 391 LINE",
"51 391 LINE",
"51 324 LINE"
);
}
);
width = 572;
}
);
note = minus;
unicode = 2212;
},
{
glyphname = radical;
lastChange = "2017-11-01 11:12:25 +0000";
layers = (
{
layerId = "63834EBD-EB8E-4539-93C4-16AFAF002AC8";
paths = (
{
closed = 1;
nodes = (
"231 126 LINE",
"119 449 LINE",
"38 449 LINE",
"197 0 LINE",
"262 0 LINE",
"549 828 LINE",
"477 828 LINE"
);
}
);
width = 549;
}
);
note = radical;
unicode = 221A;
},
{
glyphname = infinity;
lastChange = "2017-11-01 11:12:25 +0000";
layers = (
{
layerId = "63834EBD-EB8E-4539-93C4-16AFAF002AC8";
paths = (
{
closed = 1;
nodes = (
"646 435 OFFCURVE",
"584 504 OFFCURVE",
"501 504 CURVE SMOOTH",
"444 504 OFFCURVE",
"395 470 OFFCURVE",
"356 401 CURVE",
"316 471 OFFCURVE",
"265 506 OFFCURVE",
"204 506 CURVE SMOOTH",
"119 506 OFFCURVE",
"57 436 OFFCURVE",
"57 352 CURVE SMOOTH",
"57 264 OFFCURVE",
"120 198 OFFCURVE",
"204 198 CURVE SMOOTH",
"258 198 OFFCURVE",
"305 233 OFFCURVE",
"346 302 CURVE",
"386 231 OFFCURVE",
"438 196 OFFCURVE",
"501 196 CURVE SMOOTH",
"584 196 OFFCURVE",
"646 269 OFFCURVE",
"646 350 CURVE SMOOTH"
);
},
{
closed = 1;
nodes = (
"157 262 OFFCURVE",
"123 302 OFFCURVE",
"123 351 CURVE SMOOTH",
"123 402 OFFCURVE",
"158 443 OFFCURVE",
"207 443 CURVE SMOOTH",
"248 443 OFFCURVE",
"284 413 OFFCURVE",
"317 352 CURVE",
"282 292 OFFCURVE",
"245 262 OFFCURVE",
"208 262 CURVE SMOOTH"
);
},
{
closed = 1;
nodes = (
"546 441 OFFCURVE",
"579 399 OFFCURVE",
"579 350 CURVE SMOOTH",
"579 299 OFFCURVE",
"544 260 OFFCURVE",
"496 260 CURVE SMOOTH",
"455 260 OFFCURVE",
"418 290 OFFCURVE",
"385 350 CURVE",
"419 411 OFFCURVE",
"456 441 OFFCURVE",
"495 441 CURVE SMOOTH"
);
}
);
width = 705;
}
);
note = infinity;
unicode = 221E;
},
{
glyphname = integral;
lastChange = "2017-11-01 11:12:25 +0000";
layers = (
{
layerId = "63834EBD-EB8E-4539-93C4-16AFAF002AC8";
paths = (
{
closed = 1;
nodes = (
"182 640 OFFCURVE",
"205 666 OFFCURVE",
"252 666 CURVE SMOOTH",
"269 666 OFFCURVE",
"287 664 OFFCURVE",
"308 659 CURVE",
"308 732 LINE",
"289 739 OFFCURVE",
"270 742 OFFCURVE",
"249 742 CURVE SMOOTH",
"153 742 OFFCURVE",
"100 690 OFFCURVE",
"100 590 CURVE SMOOTH",
"100 -67 LINE SMOOTH",
"100 -119 OFFCURVE",
"77 -145 OFFCURVE",
"30 -145 CURVE SMOOTH",
"14 -145 OFFCURVE",
"-5 -143 OFFCURVE",
"-26 -138 CURVE",
"-26 -211 LINE",
"-7 -218 OFFCURVE",
"12 -221 OFFCURVE",
"33 -221 CURVE SMOOTH",
"129 -221 OFFCURVE",
"182 -169 OFFCURVE",
"182 -69 CURVE SMOOTH",
"182 588 LINE SMOOTH"
);
}
);
width = 292;
}
);
note = integral;
unicode = 222B;
},
{
glyphname = approxequal;
lastChange = "2017-11-01 11:12:25 +0000";
layers = (
{
layerId = "63834EBD-EB8E-4539-93C4-16AFAF002AC8";
paths = (
{
closed = 1;
nodes = (
"123 515 OFFCURVE",
"85 503 OFFCURVE",
"51 478 CURVE",
"51 398 LINE",
"85 431 OFFCURVE",
"123 448 OFFCURVE",
"166 448 CURVE SMOOTH",
"193 448 OFFCURVE",
"228 439 OFFCURVE",
"269 421 CURVE SMOOTH",
"319 400 OFFCURVE",
"364 389 OFFCURVE",
"405 389 CURVE SMOOTH",
"448 389 OFFCURVE",
"486 401 OFFCURVE",
"520 426 CURVE",
"520 506 LINE",
"486 473 OFFCURVE",
"448 456 OFFCURVE",
"405 456 CURVE SMOOTH",
"379 456 OFFCURVE",
"345 465 OFFCURVE",
"302 483 CURVE SMOOTH",
"249 504 OFFCURVE",
"204 515 OFFCURVE",
"166 515 CURVE SMOOTH"
);
},
{
closed = 1;
nodes = (
"123 317 OFFCURVE",
"85 305 OFFCURVE",
"51 280 CURVE",
"51 200 LINE",
"85 233 OFFCURVE",
"123 250 OFFCURVE",
"166 250 CURVE SMOOTH",
"193 250 OFFCURVE",
"228 241 OFFCURVE",
"269 223 CURVE SMOOTH",
"319 202 OFFCURVE",
"364 191 OFFCURVE",
"405 191 CURVE SMOOTH",
"448 191 OFFCURVE",
"486 203 OFFCURVE",
"520 228 CURVE",
"520 308 LINE",
"486 275 OFFCURVE",
"448 258 OFFCURVE",
"405 258 CURVE SMOOTH",
"380 258 OFFCURVE",
"345 267 OFFCURVE",
"302 285 CURVE SMOOTH",
"249 306 OFFCURVE",
"204 317 OFFCURVE",
"166 317 CURVE SMOOTH"
);
}
);
width = 572;
}
);
note = approxequal;
unicode = 2248;
},
{
glyphname = notequal;
lastChange = "2017-11-01 11:12:25 +0000";
layers = (
{
layerId = "63834EBD-EB8E-4539-93C4-16AFAF002AC8";
paths = (
{
closed = 1;
nodes = (
"197 224 LINE",
"144 91 LINE",
"202 67 LINE",
"265 224 LINE",
"520 224 LINE",
"520 291 LINE",
"292 291 LINE",
"345 424 LINE",
"520 424 LINE",
"520 491 LINE",
"372 491 LINE",
"425 623 LINE",
"367 647 LINE",
"304 491 LINE",
"51 491 LINE",
"51 424 LINE",
"277 424 LINE",
"224 291 LINE",
"51 291 LINE",
"51 224 LINE"
);
}
);
width = 572;
}
);
note = notequal;
unicode = 2260;
},
{
glyphname = lessequal;
lastChange = "2017-11-01 11:12:25 +0000";
layers = (
{
layerId = "63834EBD-EB8E-4539-93C4-16AFAF002AC8";
paths = (
{
closed = 1;
nodes = (
"520 243 LINE",
"144 398 LINE",
"520 553 LINE",
"520 631 LINE",
"51 423 LINE",
"51 373 LINE",
"520 165 LINE"
);
},
{
closed = 1;
nodes = (
"520 70 LINE",
"520 137 LINE",
"51 137 LINE",
"51 70 LINE"
);
}
);
width = 572;
}
);
note = lessequal;
unicode = 2264;
},
{
glyphname = greaterequal;
lastChange = "2017-11-01 11:12:25 +0000";
layers = (
{
layerId = "63834EBD-EB8E-4539-93C4-16AFAF002AC8";
paths = (
{
closed = 1;
nodes = (
"521 70 LINE",
"521 137 LINE",
"52 137 LINE",
"52 70 LINE"
);
},
{
closed = 1;
nodes = (
"52 553 LINE",
"428 398 LINE",
"52 243 LINE",
"52 165 LINE",
"521 373 LINE",
"521 423 LINE",
"52 631 LINE"
);
}
);
width = 572;
}
);
note = greaterequal;
unicode = 2265;
},
{
glyphname = lozenge;
lastChange = "2017-11-01 11:12:25 +0000";
layers = (
{
layerId = "63834EBD-EB8E-4539-93C4-16AFAF002AC8";
paths = (
{
closed = 1;
nodes = (
"518 356 LINE",
"297 714 LINE",
"252 714 LINE",
"32 356 LINE",
"252 0 LINE",
"297 0 LINE"
);
},
{
closed = 1;
nodes = (
"275 613 LINE",
"430 357 LINE",
"275 100 LINE",
"120 357 LINE"
);
}
);
width = 550;
}
);
note = lozenge;
unicode = 25CA;
},
{
glyphname = commaaccent;
lastChange = "2017-11-01 11:12:25 +0000";
layers = (
{
layerId = "63834EBD-EB8E-4539-93C4-16AFAF002AC8";
paths = (
{
closed = 1;
nodes = (
"325 -50 LINE",
"216 -50 LINE",
"154 -230 LINE",
"208 -230 LINE"
);
}
);
width = 500;
}
);
note = commaaccent;
unicode = F6C3;
},
{
glyphname = ff;
lastChange = "2017-11-01 11:12:25 +0000";
layers = (
{
layerId = "63834EBD-EB8E-4539-93C4-16AFAF002AC8";
paths = (
{
closed = 1;
nodes = (
"5 482 LINE",
"114 482 LINE",
"114 0 LINE",
"197 0 LINE",
"197 482 LINE",
"455 482 LINE",
"455 0 LINE",
"538 0 LINE",
"538 482 LINE",
"708 482 LINE",
"718 552 LINE",
"538 552 LINE",
"538 580 LINE SMOOTH",
"538 651 OFFCURVE",
"571 686 OFFCURVE",
"636 686 CURVE SMOOTH",
"661 686 OFFCURVE",
"689 682 OFFCURVE",
"722 675 CURVE",
"722 751 LINE",
"695 758 OFFCURVE",
"665 762 OFFCURVE",
"634 762 CURVE SMOOTH",
"522 762 OFFCURVE",
"455 693 OFFCURVE",
"455 580 CURVE SMOOTH",
"455 552 LINE",
"197 552 LINE",
"197 580 LINE SMOOTH",
"197 651 OFFCURVE",
"230 686 OFFCURVE",
"295 686 CURVE SMOOTH",
"320 686 OFFCURVE",
"348 682 OFFCURVE",
"381 675 CURVE",
"381 751 LINE",
"354 758 OFFCURVE",
"324 762 OFFCURVE",
"293 762 CURVE SMOOTH",
"181 762 OFFCURVE",
"114 693 OFFCURVE",
"114 580 CURVE SMOOTH",
"114 552 LINE",
"5 552 LINE"
);
}
);
width = 722;
}
);
note = ff;
unicode = FB00;
},
{
glyphname = fi;
lastChange = "2017-11-01 11:12:25 +0000";
layers = (
{
layerId = "63834EBD-EB8E-4539-93C4-16AFAF002AC8";
paths = (
{
closed = 1;
nodes = (
"15 482 LINE",
"124 482 LINE",
"124 0 LINE",
"207 0 LINE",
"207 482 LINE",
"377 482 LINE",
"387 552 LINE",
"207 552 LINE",
"207 580 LINE SMOOTH",
"207 651 OFFCURVE",
"240 686 OFFCURVE",
"305 686 CURVE SMOOTH",
"336 686 OFFCURVE",
"363 681 OFFCURVE",
"386 672 CURVE",
"391 751 LINE",
"363 758 OFFCURVE",
"334 762 OFFCURVE",
"303 762 CURVE SMOOTH",
"191 762 OFFCURVE",
"124 693 OFFCURVE",
"124 580 CURVE SMOOTH",
"124 552 LINE",
"15 552 LINE"
);
},
{
closed = 1;
nodes = (
"479 552 LINE",
"479 0 LINE",
"561 0 LINE",
"561 552 LINE"
);
},
{
closed = 1;
nodes = (
"470 659 OFFCURVE",
"493 640 OFFCURVE",
"521 640 CURVE SMOOTH",
"549 640 OFFCURVE",
"570 659 OFFCURVE",
"570 691 CURVE SMOOTH",
"570 724 OFFCURVE",
"550 742 OFFCURVE",
"521 742 CURVE SMOOTH",
"492 742 OFFCURVE",
"470 724 OFFCURVE",
"470 691 CURVE SMOOTH"
);
}
);
width = 649;
}
);
note = fi;
unicode = FB01;
},
{
glyphname = fl;
lastChange = "2017-11-01 11:12:25 +0000";
layers = (
{
layerId = "63834EBD-EB8E-4539-93C4-16AFAF002AC8";
paths = (
{
closed = 1;
nodes = (
"15 482 LINE",
"124 482 LINE",
"124 0 LINE",
"207 0 LINE",
"207 482 LINE",
"377 482 LINE",
"387 552 LINE",
"207 552 LINE",
"207 580 LINE SMOOTH",
"207 651 OFFCURVE",
"240 686 OFFCURVE",
"305 686 CURVE SMOOTH",
"336 686 OFFCURVE",
"363 681 OFFCURVE",
"386 672 CURVE",
"391 751 LINE",
"363 758 OFFCURVE",
"334 762 OFFCURVE",
"303 762 CURVE SMOOTH",
"191 762 OFFCURVE",
"124 693 OFFCURVE",
"124 580 CURVE SMOOTH",
"124 552 LINE",
"15 552 LINE"
);
},
{
closed = 1;
nodes = (
"478 742 LINE",
"478 0 LINE",
"560 0 LINE",
"560 742 LINE"
);
}
);
width = 648;
}
);
note = fl;
unicode = FB02;
},
{
glyphname = ffi;
lastChange = "2017-11-01 11:12:25 +0000";
layers = (
{
layerId = "63834EBD-EB8E-4539-93C4-16AFAF002AC8";
paths = (
{
closed = 1;
nodes = (
"5 482 LINE",
"114 482 LINE",
"114 0 LINE",
"197 0 LINE",
"197 482 LINE",
"455 482 LINE",
"455 0 LINE",
"538 0 LINE",
"538 482 LINE",
"708 482 LINE",
"718 552 LINE",
"538 552 LINE",
"538 580 LINE SMOOTH",
"538 651 OFFCURVE",
"571 686 OFFCURVE",
"636 686 CURVE SMOOTH",
"661 686 OFFCURVE",
"689 682 OFFCURVE",
"722 675 CURVE",
"722 751 LINE",
"695 758 OFFCURVE",
"665 762 OFFCURVE",
"634 762 CURVE SMOOTH",
"522 762 OFFCURVE",
"455 693 OFFCURVE",
"455 580 CURVE SMOOTH",
"455 552 LINE",
"197 552 LINE",
"197 580 LINE SMOOTH",
"197 651 OFFCURVE",
"230 686 OFFCURVE",
"295 686 CURVE SMOOTH",
"320 686 OFFCURVE",
"348 682 OFFCURVE",
"381 675 CURVE",
"381 751 LINE",
"354 758 OFFCURVE",
"324 762 OFFCURVE",
"293 762 CURVE SMOOTH",
"181 762 OFFCURVE",
"114 693 OFFCURVE",
"114 580 CURVE SMOOTH",
"114 552 LINE",
"5 552 LINE"
);
},
{
closed = 1;
nodes = (
"810 552 LINE",
"810 0 LINE",
"892 0 LINE",
"892 552 LINE"
);
},
{
closed = 1;
nodes = (
"801 659 OFFCURVE",
"824 640 OFFCURVE",
"852 640 CURVE SMOOTH",
"880 640 OFFCURVE",
"901 659 OFFCURVE",
"901 691 CURVE SMOOTH",
"901 724 OFFCURVE",
"881 742 OFFCURVE",
"852 742 CURVE SMOOTH",
"823 742 OFFCURVE",
"801 724 OFFCURVE",
"801 691 CURVE SMOOTH"
);
}
);
width = 980;
}
);
note = ffi;
unicode = FB03;
},
{
glyphname = ffl;
lastChange = "2017-11-01 11:12:25 +0000";
layers = (
{
layerId = "63834EBD-EB8E-4539-93C4-16AFAF002AC8";
paths = (
{
closed = 1;
nodes = (
"5 482 LINE",
"114 482 LINE",
"114 0 LINE",
"197 0 LINE",
"197 482 LINE",
"455 482 LINE",
"455 0 LINE",
"538 0 LINE",
"538 482 LINE",
"708 482 LINE",
"718 552 LINE",
"538 552 LINE",
"538 580 LINE SMOOTH",
"538 651 OFFCURVE",
"571 686 OFFCURVE",
"636 686 CURVE SMOOTH",
"661 686 OFFCURVE",
"689 682 OFFCURVE",
"722 675 CURVE",
"722 751 LINE",
"695 758 OFFCURVE",
"665 762 OFFCURVE",
"634 762 CURVE SMOOTH",
"522 762 OFFCURVE",
"455 693 OFFCURVE",
"455 580 CURVE SMOOTH",
"455 552 LINE",
"197 552 LINE",
"197 580 LINE SMOOTH",
"197 651 OFFCURVE",
"230 686 OFFCURVE",
"295 686 CURVE SMOOTH",
"320 686 OFFCURVE",
"348 682 OFFCURVE",
"381 675 CURVE",
"381 751 LINE",
"354 758 OFFCURVE",
"324 762 OFFCURVE",
"293 762 CURVE SMOOTH",
"181 762 OFFCURVE",
"114 693 OFFCURVE",
"114 580 CURVE SMOOTH",
"114 552 LINE",
"5 552 LINE"
);
},
{
closed = 1;
nodes = (
"810 742 LINE",
"810 0 LINE",
"892 0 LINE",
"892 742 LINE"
);
}
);
width = 980;
}
);
note = ffl;
unicode = FB04;
},
